<svg width="256" height="221" viewBox="0 0 256 221" fill="none" xmlns="http://www.w3.org/2000/svg">
<g opacity="0.35">
<path opacity="0.0152" d="M254.436 204.306C254.436 213.087 197.836 220.207 127.996 220.207C58.1715 220.207 1.56348 213.087 1.56348 204.306C1.56348 195.518 58.1715 188.398 127.996 188.398C197.836 188.398 254.436 195.518 254.436 204.306Z" fill="#909295"/>
<path opacity="0.0303" d="M252.88 204.203C252.88 212.867 196.981 219.892 127.996 219.892C59.0337 219.892 3.11975 212.867 3.11975 204.203C3.11975 195.533 59.0264 188.515 127.996 188.515C196.974 188.515 252.88 195.533 252.88 204.203Z" fill="#8F9093"/>
<path opacity="0.0455" d="M251.317 204.1C251.317 212.639 196.112 219.568 127.996 219.568C59.8958 219.568 4.68323 212.639 4.68323 204.1C4.68323 195.555 59.8958 188.633 127.996 188.633C196.112 188.625 251.317 195.547 251.317 204.1Z" fill="#8D8F92"/>
<path opacity="0.0606" d="M249.761 203.99C249.761 212.411 195.257 219.237 128.004 219.237C60.7653 219.237 6.25415 212.411 6.25415 203.99C6.25415 195.562 60.7653 188.743 128.004 188.743C195.249 188.743 249.761 195.562 249.761 203.99Z" fill="#8B8D90"/>
<path opacity="0.0758" d="M248.197 203.887C248.197 212.183 194.387 218.914 127.996 218.914C61.62 218.914 7.80298 212.183 7.80298 203.887C7.80298 195.584 61.62 188.861 127.996 188.861C194.387 188.853 248.197 195.577 248.197 203.887Z" fill="#8A8B8E"/>
<path opacity="0.0909" d="M246.633 203.777C246.633 211.956 193.525 218.584 127.996 218.584C62.482 218.584 9.36633 211.956 9.36633 203.777C9.36633 195.591 62.482 188.963 127.996 188.963C193.525 188.971 246.633 195.591 246.633 203.777Z" fill="#88898C"/>
<path opacity="0.1061" d="M245.077 203.674C245.077 211.728 192.67 218.26 127.996 218.26C63.3442 218.26 10.9226 211.728 10.9226 203.674C10.9226 195.613 63.3369 189.081 127.996 189.081C192.663 189.081 245.077 195.613 245.077 203.674Z" fill="#86888A"/>
<path opacity="0.1212" d="M243.514 203.571C243.514 211.507 191.801 217.937 127.996 217.937C64.2063 217.937 12.4861 211.5 12.4861 203.571C12.4861 195.628 64.2063 189.199 127.996 189.199C191.801 189.199 243.514 195.628 243.514 203.571Z" fill="#858689"/>
<path opacity="0.1364" d="M241.958 203.461C241.958 211.272 190.946 217.606 127.996 217.606C65.0613 217.606 14.0425 211.272 14.0425 203.461C14.0425 195.643 65.0613 189.309 127.996 189.309C190.946 189.309 241.958 195.643 241.958 203.461Z" fill="#838487"/>
<path opacity="0.1515" d="M240.394 203.358C240.394 211.052 190.077 217.283 127.996 217.283C65.9234 217.283 15.606 211.044 15.606 203.358C15.606 195.658 65.9307 189.426 127.996 189.426C190.084 189.426 240.394 195.658 240.394 203.358Z" fill="#818285"/>
<path opacity="0.1667" d="M238.838 203.248C238.838 210.817 189.222 216.952 127.996 216.952C66.7855 216.952 17.1621 210.817 17.1621 203.248C17.1621 195.672 66.7855 189.536 127.996 189.536C189.222 189.536 238.838 195.672 238.838 203.248Z" fill="#7F8083"/>
<path opacity="0.1818" d="M237.274 203.145C237.274 210.596 188.36 216.629 127.996 216.629C67.6477 216.629 18.7257 210.589 18.7257 203.145C18.7257 195.687 67.655 189.654 127.996 189.654C188.36 189.654 237.274 195.687 237.274 203.145Z" fill="#7E7F81"/>
<path opacity="0.197" d="M235.711 203.035C235.711 210.361 187.49 216.306 127.996 216.306C68.5097 216.306 20.2819 210.361 20.2819 203.035C20.2819 195.702 68.5097 189.764 127.996 189.764C187.498 189.764 235.711 195.702 235.711 203.035Z" fill="#7C7D80"/>
<path opacity="0.2121" d="M234.155 202.932C234.155 210.141 186.636 215.982 127.996 215.982C69.3719 215.982 21.8455 210.141 21.8455 202.932C21.8455 195.716 69.3719 189.875 127.996 189.875C186.636 189.882 234.155 195.716 234.155 202.932Z" fill="#7A7B7E"/>
<path opacity="0.2273" d="M232.591 202.829C232.591 209.913 185.766 215.659 127.996 215.659C70.234 215.659 23.4016 209.913 23.4016 202.829C23.4016 195.738 70.234 189.992 127.996 189.992C185.773 189.992 232.591 195.731 232.591 202.829Z" fill="#79797C"/>
<path opacity="0.2424" d="M231.035 202.719C231.035 209.685 184.911 215.328 127.996 215.328C71.0961 215.328 24.9651 209.685 24.9651 202.719C24.9651 195.746 71.0961 190.102 127.996 190.102C184.911 190.102 231.035 195.746 231.035 202.719Z" fill="#77787A"/>
<path opacity="0.2576" d="M229.471 202.616C229.471 209.457 184.049 215.005 127.996 215.005C71.9582 215.005 26.5212 209.457 26.5212 202.616C26.5212 195.768 71.9582 190.22 127.996 190.22C184.049 190.22 229.471 195.768 229.471 202.616Z" fill="#757678"/>
<path opacity="0.2727" d="M227.915 202.506C227.915 209.229 183.187 214.674 127.996 214.674C72.8203 214.674 28.0847 209.229 28.0847 202.506C28.0847 195.775 72.8203 190.33 127.996 190.33C183.187 190.33 227.915 195.782 227.915 202.506Z" fill="#747477"/>
<path opacity="0.2879" d="M226.352 202.403C226.352 209.002 182.325 214.351 127.996 214.351C73.6824 214.351 29.641 209.002 29.641 202.403C29.641 195.797 73.6824 190.448 127.996 190.448C182.325 190.448 226.352 195.797 226.352 202.403Z" fill="#727275"/>
<path opacity="0.303" d="M224.795 202.3C224.795 208.781 181.463 214.028 128.004 214.028C74.5518 214.028 31.2118 208.774 31.2118 202.3C31.2118 195.812 74.5518 190.565 128.004 190.565C181.463 190.558 224.795 195.812 224.795 202.3Z" fill="#707173"/>
<path opacity="0.3182" d="M223.232 202.19C223.232 208.546 180.6 213.697 127.996 213.697C75.4066 213.697 32.7679 208.546 32.7679 202.19C32.7679 195.826 75.4066 190.675 127.996 190.675C180.6 190.675 223.232 195.826 223.232 202.19Z" fill="#6F6F71"/>
<path opacity="0.3333" d="M221.668 202.087C221.668 208.326 179.739 213.374 127.996 213.374C76.2689 213.374 34.3243 208.318 34.3243 202.087C34.3243 195.841 76.2689 190.793 127.996 190.793C179.739 190.786 221.668 195.841 221.668 202.087Z" fill="#6D6D6F"/>
<path opacity="0.3485" d="M220.112 201.977C220.112 208.091 178.876 213.05 127.996 213.05C77.131 213.05 35.8878 208.098 35.8878 201.977C35.8878 195.856 77.131 190.896 127.996 190.896C178.876 190.903 220.112 195.856 220.112 201.977Z" fill="#6B6B6E"/>
<path opacity="0.3636" d="M218.549 201.874C218.549 207.87 178.014 212.727 127.996 212.727C77.9931 212.727 37.444 207.87 37.444 201.874C37.444 195.871 77.9931 191.013 127.996 191.013C178.014 191.013 218.549 195.871 218.549 201.874Z" fill="#6A696C"/>
<path opacity="0.3788" d="M216.993 201.764C216.993 207.635 177.152 212.396 127.996 212.396C78.8553 212.396 39.0076 207.635 39.0076 201.764C39.0076 195.885 78.8553 191.124 127.996 191.124C177.152 191.131 216.993 195.885 216.993 201.764Z" fill="#68686A"/>
<path opacity="0.3939" d="M215.429 201.661C215.429 207.414 176.29 212.073 127.996 212.073C79.7174 212.073 40.5637 207.414 40.5637 201.661C40.5637 195.9 79.7174 191.241 127.996 191.241C176.29 191.241 215.429 195.9 215.429 201.661Z" fill="#666668"/>
<path opacity="0.4091" d="M213.873 201.558C213.873 207.187 175.435 211.75 127.996 211.75C80.5796 211.75 42.1273 207.187 42.1273 201.558C42.1273 195.922 80.5796 191.359 127.996 191.359C175.428 191.359 213.873 195.922 213.873 201.558Z" fill="#656466"/>
<path opacity="0.4242" d="M212.309 201.448C212.309 206.959 174.566 211.419 127.996 211.419C81.4416 211.419 43.6835 206.959 43.6835 201.448C43.6835 195.929 81.4416 191.469 127.996 191.469C174.566 191.469 212.309 195.937 212.309 201.448Z" fill="#636265"/>
<path opacity="0.4394" d="M210.746 201.345C210.746 206.731 173.704 211.096 127.996 211.096C82.3037 211.096 45.2469 206.731 45.2469 201.345C45.2469 195.951 82.3037 191.587 127.996 191.587C173.704 191.579 210.746 195.951 210.746 201.345Z" fill="#616163"/>
<path opacity="0.4545" d="M209.189 201.235C209.189 206.503 172.849 210.765 127.996 210.765C83.1658 210.765 46.8031 206.496 46.8031 201.235C46.8031 195.959 83.1585 191.697 127.996 191.697C172.841 191.697 209.189 195.966 209.189 201.235Z" fill="#605F61"/>
<path opacity="0.4697" d="M207.626 201.132C207.626 206.276 171.979 210.442 127.996 210.442C84.0279 210.442 48.3666 206.276 48.3666 201.132C48.3666 195.981 84.0279 191.807 127.996 191.807C171.979 191.807 207.626 195.981 207.626 201.132Z" fill="#5E5D5F"/>
<path opacity="0.4848" d="M206.07 201.029C206.07 206.055 171.124 210.118 127.996 210.118C84.8901 210.118 49.9229 206.048 49.9229 201.029C49.9229 195.995 84.8828 191.925 127.996 191.925C171.117 191.925 206.07 195.995 206.07 201.029Z" fill="#5C5B5D"/>
<path opacity="0.5" d="M204.506 200.919C204.506 205.82 170.255 209.795 127.996 209.795C85.7522 209.795 51.4863 205.827 51.4863 200.919C51.4863 196.01 85.7522 192.035 127.996 192.035C170.262 192.035 204.506 196.01 204.506 200.919Z" fill="#5A5A5C"/>
<path opacity="0.5152" d="M202.95 200.816C202.95 205.599 169.4 209.472 127.996 209.472C86.6143 209.472 53.0426 205.599 53.0426 200.816C53.0426 196.025 86.607 192.152 127.996 192.152C169.4 192.152 202.95 196.025 202.95 200.816Z" fill="#59585A"/>
<path opacity="0.5303" d="M201.387 200.706C201.387 205.364 168.538 209.141 127.996 209.141C87.4692 209.141 54.6062 205.364 54.6062 200.706C54.6062 196.04 87.4766 192.263 127.996 192.263C168.538 192.263 201.387 196.04 201.387 200.706Z" fill="#575658"/>
<path opacity="0.5455" d="M199.83 200.603C199.83 205.144 167.676 208.818 128.004 208.818C88.3386 208.818 56.1697 205.144 56.1697 200.603C56.1697 196.054 88.3386 192.38 128.004 192.38C167.676 192.38 199.83 196.054 199.83 200.603Z" fill="#555456"/>
<path opacity="0.5606" d="M198.267 200.493C198.267 204.909 166.814 208.487 127.996 208.487C89.1935 208.487 57.726 204.909 57.726 200.493C57.726 196.069 89.1935 192.49 127.996 192.49C166.814 192.49 198.267 196.069 198.267 200.493Z" fill="#545254"/>
<path opacity="0.5758" d="M196.703 200.39C196.703 204.688 165.945 208.164 127.996 208.164C90.0556 208.164 59.2894 204.688 59.2894 200.39C59.2894 196.084 90.0629 192.608 127.996 192.608C165.952 192.608 196.703 196.091 196.703 200.39Z" fill="#525152"/>
<path opacity="0.5909" d="M195.147 200.287C195.147 204.461 165.09 207.841 127.996 207.841C90.9177 207.841 60.8456 204.461 60.8456 200.287C60.8456 196.106 90.9177 192.718 127.996 192.718C165.09 192.718 195.147 196.106 195.147 200.287Z" fill="#504F51"/>
<path opacity="0.6061" d="M193.584 200.177C193.584 204.233 164.228 207.51 127.996 207.51C91.7799 207.51 62.4092 204.225 62.4092 200.177C62.4092 196.12 91.7872 192.829 127.996 192.829C164.228 192.836 193.584 196.12 193.584 200.177Z" fill="#4F4D4F"/>
<path opacity="0.6212" d="M192.027 200.074C192.027 204.005 163.365 207.187 127.996 207.187C92.642 207.187 63.9653 204.005 63.9653 200.074C63.9653 196.135 92.642 192.946 127.996 192.946C163.365 192.946 192.027 196.135 192.027 200.074Z" fill="#4D4B4D"/>
<path opacity="0.6364" d="M190.464 199.963C190.464 203.777 162.503 206.856 127.996 206.856C93.5041 206.856 65.5288 203.77 65.5288 199.963C65.5288 196.15 93.5114 193.056 127.996 193.056C162.503 193.064 190.464 196.15 190.464 199.963Z" fill="#4B4A4B"/>
<path opacity="0.6515" d="M188.908 199.861C188.908 203.549 161.641 206.54 127.996 206.54C94.3661 206.54 67.085 203.557 67.085 199.861C67.085 196.165 94.3661 193.174 127.996 193.174C161.641 193.174 188.908 196.165 188.908 199.861Z" fill="#4A4849"/>
<path opacity="0.6667" d="M187.344 199.758C187.344 203.329 160.779 206.217 127.996 206.217C95.2282 206.217 68.6484 203.329 68.6484 199.758C68.6484 196.187 95.2282 193.291 127.996 193.291C160.779 193.284 187.344 196.179 187.344 199.758Z" fill="#484648"/>
<path opacity="0.6818" d="M185.78 199.647C185.78 203.094 159.917 205.886 127.996 205.886C96.0903 205.886 70.2046 203.094 70.2046 199.647C70.2046 196.194 96.0903 193.402 127.996 193.402C159.917 193.402 185.78 196.194 185.78 199.647Z" fill="#464446"/>
<path opacity="0.697" d="M184.224 199.545C184.224 202.873 159.055 205.563 127.996 205.563C96.9526 205.563 71.7683 202.873 71.7683 199.545C71.7683 196.216 96.9526 193.519 127.996 193.519C159.055 193.512 184.224 196.209 184.224 199.545Z" fill="#454244"/>
<path opacity="0.7121" d="M182.661 199.434C182.661 202.638 158.193 205.232 127.996 205.232C97.8147 205.232 73.3245 202.638 73.3245 199.434C73.3245 196.223 97.8147 193.629 127.996 193.629C158.193 193.629 182.661 196.223 182.661 199.434Z" fill="#434142"/>
<path opacity="0.7273" d="M181.105 199.332C181.105 202.418 157.331 204.909 127.996 204.909C98.6769 204.909 74.8881 202.418 74.8881 199.332C74.8881 196.245 98.6769 193.74 127.996 193.74C157.331 193.74 181.105 196.245 181.105 199.332Z" fill="#413F40"/>
<path opacity="0.7424" d="M179.541 199.221C179.541 202.183 156.468 204.578 127.996 204.578C99.5389 204.578 76.4442 202.183 76.4442 199.221C76.4442 196.253 99.5389 193.85 127.996 193.85C156.468 193.857 179.541 196.26 179.541 199.221Z" fill="#403D3F"/>
<path opacity="0.7576" d="M177.985 199.118C177.985 201.962 155.614 204.255 127.996 204.255C100.401 204.255 78.0078 201.962 78.0078 199.118C78.0078 196.275 100.401 193.967 127.996 193.967C155.606 193.967 177.985 196.275 177.985 199.118Z" fill="#3E3B3D"/>
<path opacity="0.7727" d="M176.422 199.016C176.422 201.734 154.744 203.931 127.996 203.931C101.263 203.931 79.564 201.734 79.564 199.016C79.564 196.289 101.256 194.085 127.996 194.085C154.744 194.085 176.422 196.289 176.422 199.016Z" fill="#3C3A3B"/>
<path opacity="0.7879" d="M174.865 198.905C174.865 201.507 153.889 203.601 128.004 203.601C102.133 203.601 81.1348 201.499 81.1348 198.905C81.1348 196.304 102.133 194.195 128.004 194.195C153.882 194.195 174.865 196.304 174.865 198.905Z" fill="#3B3839"/>
<path opacity="0.803" d="M173.302 198.802C173.302 201.279 153.02 203.285 127.996 203.285C102.987 203.285 82.6836 201.286 82.6836 198.802C82.6836 196.319 102.98 194.313 127.996 194.313C153.02 194.313 173.302 196.319 173.302 198.802Z" fill="#393637"/>
<path opacity="0.8182" d="M171.738 198.692C171.738 201.051 152.158 202.954 127.996 202.954C103.849 202.954 84.2471 201.051 84.2471 198.692C84.2471 196.333 103.849 194.423 127.996 194.423C152.158 194.423 171.738 196.333 171.738 198.692Z" fill="#373436"/>
<path opacity="0.8333" d="M170.182 198.589C170.182 200.823 151.303 202.631 127.996 202.631C104.712 202.631 85.8107 200.831 85.8107 198.589C85.8107 196.348 104.712 194.541 127.996 194.541C151.296 194.541 170.182 196.348 170.182 198.589Z" fill="#363334"/>
<path opacity="0.8485" d="M168.618 198.487C168.618 200.603 150.433 202.308 127.996 202.308C105.574 202.308 87.3668 200.603 87.3668 198.487C87.3668 196.37 105.574 194.651 127.996 194.651C150.441 194.651 168.618 196.363 168.618 198.487Z" fill="#343132"/>
<path opacity="0.8636" d="M167.062 198.376C167.062 200.368 149.579 201.977 127.996 201.977C106.436 201.977 88.9303 200.368 88.9303 198.376C88.9303 196.378 106.436 194.761 127.996 194.761C149.579 194.761 167.062 196.378 167.062 198.376Z" fill="#322F30"/>
<path opacity="0.8788" d="M165.499 198.273C165.499 200.147 148.709 201.654 127.996 201.654C107.298 201.654 90.4866 200.147 90.4866 198.273C90.4866 196.4 107.291 194.879 127.996 194.879C148.717 194.879 165.499 196.4 165.499 198.273Z" fill="#302D2E"/>
<path opacity="0.8939" d="M163.943 198.163C163.943 199.912 147.854 201.323 127.996 201.323C108.16 201.323 92.05 199.912 92.05 198.163C92.05 196.407 108.16 194.989 127.996 194.989C147.854 194.989 163.943 196.414 163.943 198.163Z" fill="#2F2B2D"/>
<path opacity="0.9091" d="M162.379 198.06C162.379 199.692 146.992 201 127.996 201C109.015 201 93.6064 199.692 93.6064 198.06C93.6064 196.429 109.015 195.106 127.996 195.106C146.992 195.106 162.379 196.429 162.379 198.06Z" fill="#2D2A2B"/>
<path opacity="0.9242" d="M160.816 197.95C160.816 199.457 146.123 200.669 127.996 200.669C109.877 200.669 95.1699 199.457 95.1699 197.95C95.1699 196.436 109.885 195.217 127.996 195.217C146.13 195.217 160.816 196.444 160.816 197.95Z" fill="#2B2829"/>
<path opacity="0.9394" d="M159.259 197.847C159.259 199.236 145.268 200.346 127.996 200.346C110.739 200.346 96.7261 199.229 96.7261 197.847C96.7261 196.458 110.739 195.334 127.996 195.334C145.268 195.334 159.259 196.458 159.259 197.847Z" fill="#2A2627"/>
<path opacity="0.9545" d="M157.696 197.744C157.696 199.008 144.399 200.022 127.996 200.022C111.601 200.022 98.2897 199.008 98.2897 197.744C98.2897 196.473 111.609 195.452 127.996 195.452C144.406 195.444 157.696 196.473 157.696 197.744Z" fill="#282425"/>
<path opacity="0.9697" d="M156.14 197.634C156.14 198.78 143.544 199.699 127.996 199.699C112.464 199.699 99.8458 198.78 99.8458 197.634C99.8458 196.488 112.464 195.562 127.996 195.562C143.544 195.562 156.14 196.488 156.14 197.634Z" fill="#262324"/>
<path opacity="0.9848" d="M154.576 197.531C154.576 198.553 142.682 199.376 127.996 199.376C113.326 199.376 101.409 198.56 101.409 197.531C101.409 196.503 113.326 195.672 127.996 195.672C142.682 195.672 154.576 196.503 154.576 197.531Z" fill="#252122"/>
<path d="M153.02 197.421C153.02 198.325 141.82 199.045 127.996 199.045C114.188 199.045 102.965 198.325 102.965 197.421C102.965 196.517 114.188 195.782 127.996 195.782C141.82 195.79 153.02 196.517 153.02 197.421Z" fill="#231F20"/>
</g>
<path d="M46.5913 148.431C47.6434 150.761 48.8562 153.222 50.2444 155.779C51.6983 158.454 53.1815 160.901 54.6281 163.128C45.3712 163.128 36.1216 163.128 26.8647 163.128C25.6446 160.681 24.4318 158.226 23.2117 155.779C21.9915 153.333 20.7787 150.878 19.5586 148.431C28.5671 148.431 37.5829 148.431 46.5913 148.431Z" fill="url(#paint0_radial_508_231)"/>
<path d="M83.8818 98.2146C85.891 105.078 88.2582 111.948 91.1441 118.576L68.7873 117.503C66.1425 110.596 64.0164 103.446 62.2483 96.4437L83.8818 98.2146Z" fill="url(#paint1_radial_508_231)"/>
<path d="M58.1935 100.75C59.8885 107.804 62.0219 114.814 64.5864 121.772L40.5418 120.589C38.3573 113.381 36.4723 106.099 35.0038 98.9052L58.1935 100.75Z" fill="url(#paint2_radial_508_231)"/>
<path d="M29.3269 98.2365C30.7881 105.563 32.4612 112.859 34.6385 120.06L8.82585 118.752C6.96278 111.228 5.58923 103.733 4.50061 96.304L29.3269 98.2365Z" fill="url(#paint3_radial_508_231)"/>
<path d="M52.6773 73.7233C53.9559 80.6379 55.439 87.5304 57.4044 94.3347L32.9434 92.8063C31.2776 85.7007 30.0867 78.6318 29.1588 71.6218L52.6773 73.7233Z" fill="url(#paint4_radial_508_231)"/>
<path d="M93.4164 128.18C94.5635 130.708 95.7763 133.324 97.0768 135.749C95.7178 139.437 94.2931 142.898 92.8684 146.22L79.7758 145.94C76.4442 139.908 73.3464 133.449 70.9719 127.137L93.4164 128.18Z" fill="url(#paint5_radial_508_231)"/>
<path d="M37.0933 124.704C39.2267 131.281 41.6377 137.924 44.5675 144.331L17.3083 143.677C14.8388 136.976 12.7346 130.142 11.0542 123.404L37.0933 124.704Z" fill="url(#paint6_radial_508_231)"/>
<path d="M91.6922 148.821C90.2091 151.922 88.8063 154.824 87.3378 157.506C85.2701 154.435 83.334 151.811 81.4198 148.637L91.6922 148.821Z" fill="#26A9E0"/>
<path d="M76.6561 148.615C79.111 152.737 82.0627 157.308 85.1897 161.085C84.576 162.069 84.0353 162.995 83.3559 163.892L61.0064 163.914C57.2291 158.902 54.0436 153.457 51.2892 148.115L76.6561 148.615Z" fill="url(#paint7_radial_508_231)"/>
<path d="M40.5271 180.704L70.3289 180.065C65.894 183.416 61.145 185.517 56.0965 186.237C48.9219 186.09 45.7729 184.106 40.5271 180.704Z" fill="url(#paint8_radial_508_231)"/>
<path d="M81.8362 166.074C79.0306 169.991 76.0205 173.385 72.8934 176.192C72.8934 176.192 72.8934 176.192 72.8277 176.112C69.2404 173.481 65.4193 169.557 62.7306 166.148L81.8362 166.074Z" fill="url(#paint9_radial_508_231)"/>
<path d="M57.3385 166.184C60.6409 170.343 64.462 174.267 68.7434 177.456L38.1745 178.007C34.295 174.561 31.0145 170.417 28.2382 166.177L57.3385 166.184Z" fill="url(#paint10_radial_508_231)"/>
<path d="M58.2812 100.669C60.6337 111.338 64.3307 123.33 70.2194 135.873C71.761 139.165 73.3684 142.296 74.9976 145.264C55.7898 144.853 36.5819 144.434 17.3668 144.023C14.2763 137.034 11.1492 128.672 8.59939 119.039C6.39293 110.721 5.04129 103.035 4.2157 96.2599C22.24 97.7296 40.2569 99.1992 58.2812 100.669Z" fill="url(#paint11_radial_508_231)"/>
<path d="M166.741 0L118.586 44.9703L123.985 37.2915L123.839 33.3015L107.956 33.3456L108.862 54.3244L88.7917 74.2524L115.393 77.0006C108.328 136.388 88.5067 185.936 59.5013 190.088L170.416 186.281C201.124 183.518 211.44 146.477 222.027 87.7949L244.171 89.8083L166.741 0ZM138.671 104.982C140.519 94.129 151.551 87.2806 163.512 89.5585L158.032 117.253L137.392 112.521L138.671 104.982ZM133.374 136.101L136.515 117.621L157.031 122.302L153.415 140.584L133.374 136.101ZM178.716 146.242L158.909 141.811L162.657 123.58L182.924 128.202L178.716 146.242ZM185.803 115.872L184.086 123.22L163.694 118.547L169.371 90.9326C181.024 94.2245 188.272 105.283 185.803 115.872Z" fill="url(#paint12_radial_508_231)"/>
<path d="M168.166 6.43695C173.784 31.1486 172.25 61.8856 169.218 87.2953C169.218 87.2953 181.097 91.322 186.109 99.4711C189.492 104.96 190.661 111.199 189.28 117.092L181.499 150.437L153.363 144.133C146.664 158.755 138.152 172.298 127.996 184.378C127.996 184.378 172.045 182.424 173.221 182.188C197.741 177.375 207.524 147.476 218.461 86.7442L218.965 83.9372L235.404 85.4215L168.166 6.43695Z" fill="url(#paint13_radial_508_231)"/>
<defs>
<radialGradient id="paint0_radial_508_231" cx="0" cy="0" r="1" gradientUnits="userSpaceOnUse" gradientTransform="translate(132.818 130.715) scale(108.232 108.854)">
<stop stop-color="white"/>
<stop offset="0.6791" stop-color="#EC1C24"/>
<stop offset="1" stop-color="#931216"/>
</radialGradient>
<radialGradient id="paint1_radial_508_231" cx="0" cy="0" r="1" gradientUnits="userSpaceOnUse" gradientTransform="translate(119.346 132.704) scale(94.001 94.5405)">
<stop stop-color="white"/>
<stop offset="0.6791" stop-color="#EC1C24"/>
<stop offset="1" stop-color="#931216"/>
</radialGradient>
<radialGradient id="paint2_radial_508_231" cx="0" cy="0" r="1" gradientUnits="userSpaceOnUse" gradientTransform="translate(119.346 132.704) scale(94.0012 94.5408)">
<stop stop-color="white"/>
<stop offset="0.492" stop-color="#F37920"/>
<stop offset="1" stop-color="#ED3024"/>
</radialGradient>
<radialGradient id="paint3_radial_508_231" cx="0" cy="0" r="1" gradientUnits="userSpaceOnUse" gradientTransform="translate(119.346 132.704) scale(94.0015 94.5412)">
<stop stop-color="white"/>
<stop offset="0.6791" stop-color="#EC1C24"/>
<stop offset="1" stop-color="#931216"/>
</radialGradient>
<radialGradient id="paint4_radial_508_231" cx="0" cy="0" r="1" gradientUnits="userSpaceOnUse" gradientTransform="translate(119.346 132.704) scale(94.0012 94.5409)">
<stop stop-color="white"/>
<stop offset="0.492" stop-color="#8BC53F"/>
<stop offset="1" stop-color="#008941"/>
</radialGradient>
<radialGradient id="paint5_radial_508_231" cx="0" cy="0" r="1" gradientUnits="userSpaceOnUse" gradientTransform="translate(119.346 132.704) scale(94.0012 94.5408)">
<stop stop-color="white"/>
<stop offset="0.6791" stop-color="#EC1C24"/>
<stop offset="1" stop-color="#931216"/>
</radialGradient>
<radialGradient id="paint6_radial_508_231" cx="0" cy="0" r="1" gradientUnits="userSpaceOnUse" gradientTransform="translate(119.346 132.704) scale(94.0015 94.5412)">
<stop stop-color="white"/>
<stop offset="0.492" stop-color="#F37920"/>
<stop offset="1" stop-color="#ED3024"/>
</radialGradient>
<radialGradient id="paint7_radial_508_231" cx="0" cy="0" r="1" gradientUnits="userSpaceOnUse" gradientTransform="translate(119.346 132.704) scale(94.0008 94.5404)">
<stop stop-color="white"/>
<stop offset="0.492" stop-color="#F37920"/>
<stop offset="1" stop-color="#ED3024"/>
</radialGradient>
<radialGradient id="paint8_radial_508_231" cx="0" cy="0" r="1" gradientUnits="userSpaceOnUse" gradientTransform="translate(119.346 132.704) scale(94.0009 94.5408)">
<stop stop-color="white"/>
<stop offset="0.492" stop-color="#8BC53F"/>
<stop offset="1" stop-color="#008941"/>
</radialGradient>
<radialGradient id="paint9_radial_508_231" cx="0" cy="0" r="1" gradientUnits="userSpaceOnUse" gradientTransform="translate(119.346 132.704) scale(94.0009 94.5404)">
<stop stop-color="white"/>
<stop offset="0.6791" stop-color="#EC1C24"/>
<stop offset="1" stop-color="#931216"/>
</radialGradient>
<radialGradient id="paint10_radial_508_231" cx="0" cy="0" r="1" gradientUnits="userSpaceOnUse" gradientTransform="translate(119.346 132.704) scale(94.0015 94.5411)">
<stop stop-color="white"/>
<stop offset="0.492" stop-color="#00BCF1"/>
<stop offset="1" stop-color="#0060AE"/>
</radialGradient>
<radialGradient id="paint11_radial_508_231" cx="0" cy="0" r="1" gradientUnits="userSpaceOnUse" gradientTransform="translate(170.172 114.731) scale(203.81 204.98)">
<stop stop-color="white"/>
<stop offset="0.492" stop-color="#00BCF1"/>
<stop offset="1" stop-color="#0060AE"/>
</radialGradient>
<radialGradient id="paint12_radial_508_231" cx="0" cy="0" r="1" gradientUnits="userSpaceOnUse" gradientTransform="translate(6.45918 -61.2509) scale(264.082 265.598)">
<stop stop-color="white"/>
<stop offset="0.6791" stop-color="#0074BB"/>
<stop offset="1" stop-color="#2B2B80"/>
</radialGradient>
<radialGradient id="paint13_radial_508_231" cx="0" cy="0" r="1" gradientUnits="userSpaceOnUse" gradientTransform="translate(239.376 3.44892) rotate(-10.9396) scale(180.148 190.745)">
<stop stop-color="white"/>
<stop offset="0.6791" stop-color="#0074BB"/>
<stop offset="1" stop-color="#2B2B80"/>
</radialGradient>
</defs>
</svg>
