<svg width="302" height="88" viewBox="0 0 302 88" fill="none" xmlns="http://www.w3.org/2000/svg">
<g opacity="0.35">
<path opacity="0.0152" d="M102.038 75.7865C102.038 78.5968 83.7602 80.8757 61.2069 80.8757C38.6584 80.8757 20.3779 78.5968 20.3779 75.7865C20.3779 72.9738 38.6584 70.695 61.2069 70.695C83.7602 70.695 102.038 72.9738 102.038 75.7865Z" fill="#909295"/>
<path opacity="0.0303" d="M101.536 75.7536C101.536 78.5263 83.4841 80.7745 61.2069 80.7745C38.9368 80.7745 20.8805 78.5263 20.8805 75.7536C20.8805 72.9785 38.9344 70.7326 61.2069 70.7326C83.4818 70.7326 101.536 72.9785 101.536 75.7536Z" fill="#8F9093"/>
<path opacity="0.0455" d="M101.031 75.7207C101.031 78.4534 83.2034 80.6711 61.2069 80.6711C39.2152 80.6711 21.3854 78.4534 21.3854 75.7207C21.3854 72.9856 39.2152 70.7703 61.2069 70.7703C83.2034 70.7679 101.031 72.9833 101.031 75.7207Z" fill="#8D8F92"/>
<path opacity="0.0606" d="M100.528 75.6854C100.528 78.3805 82.9274 80.5653 61.2093 80.5653C39.496 80.5653 21.8927 78.3805 21.8927 75.6854C21.8927 72.988 39.496 70.8055 61.2093 70.8055C82.925 70.8055 100.528 72.988 100.528 75.6854Z" fill="#8B8D90"/>
<path opacity="0.0758" d="M100.023 75.6524C100.023 78.3076 82.6466 80.4618 61.207 80.4618C39.772 80.4618 22.3929 78.3076 22.3929 75.6524C22.3929 72.995 39.772 70.8431 61.207 70.8431C82.6466 70.8408 100.023 72.9926 100.023 75.6524Z" fill="#8A8B8E"/>
<path opacity="0.0909" d="M99.5185 75.6172C99.5185 78.2347 82.3682 80.356 61.2069 80.356C40.0504 80.356 22.8978 78.2347 22.8978 75.6172C22.8978 72.9974 40.0504 70.8761 61.2069 70.8761C82.3682 70.8785 99.5185 72.9974 99.5185 75.6172Z" fill="#88898C"/>
<path opacity="0.1061" d="M99.0159 75.5842C99.0159 78.1618 82.0921 80.2524 61.207 80.2524C40.3289 80.2524 23.4003 78.1618 23.4003 75.5842C23.4003 73.0044 40.3265 70.9137 61.207 70.9137C82.0898 70.9137 99.0159 73.0044 99.0159 75.5842Z" fill="#86888A"/>
<path opacity="0.1212" d="M98.511 75.5514C98.511 78.0912 81.8114 80.149 61.2069 80.149C40.6072 80.149 23.9052 78.0889 23.9052 75.5514C23.9052 73.0091 40.6072 70.9514 61.2069 70.9514C81.8114 70.9514 98.511 73.0091 98.511 75.5514Z" fill="#858689"/>
<path opacity="0.1364" d="M98.0085 75.5161C98.0085 78.016 81.5353 80.0432 61.207 80.0432C40.8833 80.0432 24.4078 78.016 24.4078 75.5161C24.4078 73.0138 40.8833 70.9866 61.207 70.9866C81.5353 70.9866 98.0085 73.0138 98.0085 75.5161Z" fill="#838487"/>
<path opacity="0.1515" d="M97.5036 75.4831C97.5036 77.9454 81.2545 79.9397 61.2069 79.9397C41.1617 79.9397 24.9127 77.943 24.9127 75.4831C24.9127 73.0185 41.164 71.0242 61.2069 71.0242C81.2569 71.0242 97.5036 73.0185 97.5036 75.4831Z" fill="#818285"/>
<path opacity="0.1667" d="M97.001 75.4479C97.001 77.8701 80.9785 79.8338 61.2069 79.8338C41.4401 79.8338 25.4152 77.8701 25.4152 75.4479C25.4152 73.0232 41.4401 71.0595 61.2069 71.0595C80.9785 71.0595 97.001 73.0232 97.001 75.4479Z" fill="#7F8083"/>
<path opacity="0.1818" d="M96.4961 75.415C96.4961 77.7996 80.7001 79.7304 61.2069 79.7304C41.7185 79.7304 25.9201 77.7973 25.9201 75.415C25.9201 73.0279 41.7208 71.0972 61.2069 71.0972C80.7001 71.0972 96.4961 73.0279 96.4961 75.415Z" fill="#7E7F81"/>
<path opacity="0.197" d="M95.9912 75.3797C95.9912 77.7244 80.4193 79.6269 61.2069 79.6269C41.9969 79.6269 26.4227 77.7244 26.4227 75.3797C26.4227 73.0327 41.9969 71.1324 61.2069 71.1324C80.4217 71.1324 95.9912 73.0327 95.9912 75.3797Z" fill="#7C7D80"/>
<path opacity="0.2121" d="M95.4886 75.3468C95.4886 77.6538 80.1433 79.5234 61.2069 79.5234C42.2753 79.5234 26.9276 77.6538 26.9276 75.3468C26.9276 73.0374 42.2753 71.1677 61.2069 71.1677C80.1433 71.1701 95.4886 73.0374 95.4886 75.3468Z" fill="#7A7B7E"/>
<path opacity="0.2273" d="M94.9837 75.3138C94.9837 77.5809 79.8625 79.4199 61.2069 79.4199C42.5537 79.4199 27.4301 77.5809 27.4301 75.3138C27.4301 73.0444 42.5537 71.2053 61.2069 71.2053C79.8649 71.2053 94.9837 73.042 94.9837 75.3138Z" fill="#79797C"/>
<path opacity="0.2424" d="M94.4812 75.2785C94.4812 77.508 79.5865 79.3141 61.207 79.3141C42.8322 79.3141 27.9351 77.508 27.9351 75.2785C27.9351 73.0467 42.8322 71.2406 61.207 71.2406C79.5865 71.2406 94.4812 73.0467 94.4812 75.2785Z" fill="#77787A"/>
<path opacity="0.2576" d="M93.9763 75.2456C93.9763 77.4351 79.3081 79.2107 61.2069 79.2107C43.1105 79.2107 28.4376 77.4351 28.4376 75.2456C28.4376 73.0538 43.1105 71.2783 61.2069 71.2783C79.3081 71.2783 93.9763 73.0538 93.9763 75.2456Z" fill="#757678"/>
<path opacity="0.2727" d="M93.4738 75.2104C93.4738 77.3622 79.0297 79.1048 61.207 79.1048C43.389 79.1048 28.9425 77.3622 28.9425 75.2104C28.9425 73.0562 43.389 71.3135 61.207 71.3135C79.0297 71.3135 93.4738 73.0585 93.4738 75.2104Z" fill="#747477"/>
<path opacity="0.2879" d="M92.9688 75.1774C92.9688 77.2893 78.7512 79.0013 61.2069 79.0013C43.6673 79.0013 29.445 77.2893 29.445 75.1774C29.445 73.0632 43.6673 71.3511 61.2069 71.3511C78.7512 71.3511 92.9688 73.0632 92.9688 75.1774Z" fill="#727275"/>
<path opacity="0.303" d="M92.4663 75.1445C92.4663 77.2188 78.4728 78.8979 61.2093 78.8979C43.9481 78.8979 29.9523 77.2164 29.9523 75.1445C29.9523 73.0679 43.9481 71.3888 61.2093 71.3888C78.4728 71.3864 92.4663 73.0679 92.4663 75.1445Z" fill="#707173"/>
<path opacity="0.3182" d="M91.9614 75.1092C91.9614 77.1435 78.1944 78.7921 61.2069 78.7921C44.2241 78.7921 30.4548 77.1435 30.4548 75.1092C30.4548 73.0726 44.2241 71.4241 61.2069 71.4241C78.1944 71.4241 91.9614 73.0726 91.9614 75.1092Z" fill="#6F6F71"/>
<path opacity="0.3333" d="M91.4565 75.0763C91.4565 77.0729 77.916 78.6886 61.2069 78.6886C44.5026 78.6886 30.9574 77.0706 30.9574 75.0763C30.9574 73.0773 44.5026 71.4617 61.2069 71.4617C77.916 71.4593 91.4565 73.0773 91.4565 75.0763Z" fill="#6D6D6F"/>
<path opacity="0.3485" d="M90.9539 75.041C90.9539 76.9977 77.6376 78.5851 61.2069 78.5851C44.781 78.5851 31.4623 77 31.4623 75.041C31.4623 73.082 44.781 71.4946 61.2069 71.4946C77.6376 71.497 90.9539 73.082 90.9539 75.041Z" fill="#6B6B6E"/>
<path opacity="0.3636" d="M90.449 75.0081C90.449 76.9271 77.3592 78.4816 61.2069 78.4816C45.0594 78.4816 31.9648 76.9271 31.9648 75.0081C31.9648 73.0867 45.0594 71.5322 61.2069 71.5322C77.3592 71.5322 90.449 73.0867 90.449 75.0081Z" fill="#6A696C"/>
<path opacity="0.3788" d="M89.9465 74.9728C89.9465 76.8519 77.0808 78.3758 61.2069 78.3758C45.3378 78.3758 32.4697 76.8519 32.4697 74.9728C32.4697 73.0914 45.3378 71.5675 61.2069 71.5675C77.0808 71.5699 89.9465 73.0914 89.9465 74.9728Z" fill="#68686A"/>
<path opacity="0.3939" d="M89.4416 74.9399C89.4416 76.7813 76.8024 78.2723 61.2069 78.2723C45.6162 78.2723 32.9723 76.7813 32.9723 74.9399C32.9723 73.0962 45.6162 71.6052 61.2069 71.6052C76.8024 71.6052 89.4416 73.0962 89.4416 74.9399Z" fill="#666668"/>
<path opacity="0.4091" d="M88.939 74.907C88.939 76.7084 76.5263 78.1688 61.2069 78.1688C45.8946 78.1688 33.4772 76.7084 33.4772 74.907C33.4772 73.1032 45.8946 71.6428 61.2069 71.6428C76.524 71.6428 88.939 73.1032 88.939 74.907Z" fill="#656466"/>
<path opacity="0.4242" d="M88.4341 74.8717C88.4341 76.6355 76.2456 78.063 61.2069 78.063C46.173 78.063 33.9797 76.6355 33.9797 74.8717C33.9797 73.1055 46.173 71.678 61.2069 71.678C76.2456 71.678 88.4341 73.1079 88.4341 74.8717Z" fill="#636265"/>
<path opacity="0.4394" d="M87.9292 74.8387C87.9292 76.5626 75.9672 77.9595 61.207 77.9595C46.4514 77.9595 34.4847 76.5626 34.4847 74.8387C34.4847 73.1126 46.4514 71.7156 61.207 71.7156C75.9672 71.7133 87.9292 73.1126 87.9292 74.8387Z" fill="#616163"/>
<path opacity="0.4545" d="M87.4267 74.8035C87.4267 76.4897 75.6911 77.8537 61.2069 77.8537C46.7298 77.8537 34.9872 76.4873 34.9872 74.8035C34.9872 73.1149 46.7274 71.7509 61.2069 71.7509C75.6888 71.7509 87.4267 73.1173 87.4267 74.8035Z" fill="#605F61"/>
<path opacity="0.4697" d="M86.9218 74.7706C86.9218 76.4168 75.4104 77.7502 61.207 77.7502C47.0082 77.7502 35.4921 76.4168 35.4921 74.7706C35.4921 73.122 47.0082 71.7862 61.207 71.7862C75.4104 71.7862 86.9218 73.122 86.9218 74.7706Z" fill="#5E5D5F"/>
<path opacity="0.4848" d="M86.4192 74.7377C86.4192 76.3462 75.1343 77.6468 61.2069 77.6468C47.2866 77.6468 35.9946 76.3439 35.9946 74.7377C35.9946 73.1267 47.2842 71.8239 61.2069 71.8239C75.1319 71.8239 86.4192 73.1267 86.4192 74.7377Z" fill="#5C5B5D"/>
<path opacity="0.5" d="M85.9143 74.7024C85.9143 76.271 74.8536 77.5433 61.207 77.5433C47.565 77.5433 36.4996 76.2733 36.4996 74.7024C36.4996 73.1314 47.565 71.8591 61.207 71.8591C74.8559 71.8591 85.9143 73.1314 85.9143 74.7024Z" fill="#5A5A5C"/>
<path opacity="0.5152" d="M85.4118 74.6694C85.4118 76.2004 74.5775 77.4398 61.207 77.4398C47.8435 77.4398 37.0021 76.2004 37.0021 74.6694C37.0021 73.1361 47.8411 71.8967 61.207 71.8967C74.5775 71.8967 85.4118 73.1361 85.4118 74.6694Z" fill="#59585A"/>
<path opacity="0.5303" d="M84.9069 74.6342C84.9069 76.1252 74.2991 77.334 61.2069 77.334C48.1195 77.334 37.507 76.1252 37.507 74.6342C37.507 73.1408 48.1218 71.932 61.2069 71.932C74.2991 71.932 84.9069 73.1408 84.9069 74.6342Z" fill="#575658"/>
<path opacity="0.5455" d="M84.4043 74.6013C84.4043 76.0546 74.0207 77.2305 61.2093 77.2305C48.4002 77.2305 38.0119 76.0546 38.0119 74.6013C38.0119 73.1455 48.4002 71.9697 61.2093 71.9697C74.0207 71.9697 84.4043 73.1455 84.4043 74.6013Z" fill="#555456"/>
<path opacity="0.5606" d="M83.8994 74.566C83.8994 75.9794 73.7423 77.1247 61.2069 77.1247C48.6763 77.1247 38.5145 75.9794 38.5145 74.566C38.5145 73.1502 48.6763 72.0049 61.2069 72.0049C73.7423 72.0049 83.8994 73.1502 83.8994 74.566Z" fill="#545254"/>
<path opacity="0.5758" d="M83.3945 74.533C83.3945 75.9088 73.4615 77.0212 61.2069 77.0212C48.9547 77.0212 39.0193 75.9088 39.0193 74.533C39.0193 73.1549 48.957 72.0425 61.2069 72.0425C73.4639 72.0425 83.3945 73.1573 83.3945 74.533Z" fill="#525152"/>
<path opacity="0.5909" d="M82.8919 74.5001C82.8919 75.8359 73.1855 76.9177 61.2069 76.9177C49.2331 76.9177 39.5219 75.8359 39.5219 74.5001C39.5219 73.162 49.2331 72.0778 61.2069 72.0778C73.1855 72.0778 82.8919 73.162 82.8919 74.5001Z" fill="#504F51"/>
<path opacity="0.6061" d="M82.3871 74.4648C82.3871 75.763 72.9071 76.8119 61.207 76.8119C49.5115 76.8119 40.0269 75.7606 40.0269 74.4648C40.0269 73.1667 49.5139 72.1131 61.207 72.1131C72.9071 72.1154 82.3871 73.1667 82.3871 74.4648Z" fill="#4F4D4F"/>
<path opacity="0.6212" d="M81.8845 74.4319C81.8845 75.6901 72.6287 76.7084 61.2069 76.7084C49.7899 76.7084 40.5294 75.6901 40.5294 74.4319C40.5294 73.1714 49.7899 72.1508 61.2069 72.1508C72.6287 72.1508 81.8845 73.1714 81.8845 74.4319Z" fill="#4D4B4D"/>
<path opacity="0.6364" d="M81.3796 74.3967C81.3796 75.6172 72.3503 76.6026 61.207 76.6026C50.0684 76.6026 41.0343 75.6149 41.0343 74.3967C41.0343 73.1761 50.0707 72.186 61.207 72.186C72.3503 72.1884 81.3796 73.1761 81.3796 74.3967Z" fill="#4B4A4B"/>
<path opacity="0.6515" d="M80.877 74.3637C80.877 75.5443 72.0718 76.5014 61.2069 76.5014C50.3467 76.5014 41.5368 75.5466 41.5368 74.3637C41.5368 73.1808 50.3467 72.2236 61.2069 72.2236C72.0718 72.2236 80.877 73.1808 80.877 74.3637Z" fill="#4A4849"/>
<path opacity="0.6667" d="M80.3722 74.3308C80.3722 75.4737 71.7935 76.3979 61.207 76.3979C50.6252 76.3979 42.0417 75.4737 42.0417 74.3308C42.0417 73.1878 50.6252 72.2612 61.207 72.2612C71.7935 72.2589 80.3722 73.1855 80.3722 74.3308Z" fill="#484648"/>
<path opacity="0.6818" d="M79.8673 74.2955C79.8673 75.3985 71.5151 76.2922 61.207 76.2922C50.9036 76.2922 42.5443 75.3985 42.5443 74.2955C42.5443 73.1902 50.9036 72.2966 61.207 72.2966C71.5151 72.2966 79.8673 73.1902 79.8673 74.2955Z" fill="#464446"/>
<path opacity="0.697" d="M79.3647 74.2626C79.3647 75.3279 71.2366 76.1887 61.2069 76.1887C51.182 76.1887 43.0492 75.3279 43.0492 74.2626C43.0492 73.1973 51.182 72.3342 61.2069 72.3342C71.2366 72.3318 79.3647 73.1949 79.3647 74.2626Z" fill="#454244"/>
<path opacity="0.7121" d="M78.8598 74.2273C78.8598 75.2527 70.9583 76.0828 61.207 76.0828C51.4604 76.0828 43.5518 75.2527 43.5518 74.2273C43.5518 73.1996 51.4604 72.3694 61.207 72.3694C70.9583 72.3694 78.8598 73.1996 78.8598 74.2273Z" fill="#434142"/>
<path opacity="0.7273" d="M78.3572 74.1944C78.3572 75.1821 70.6798 75.9794 61.2069 75.9794C51.7388 75.9794 44.0566 75.1821 44.0566 74.1944C44.0566 73.2067 51.7388 72.4047 61.2069 72.4047C70.6798 72.4047 78.3572 73.2067 78.3572 74.1944Z" fill="#413F40"/>
<path opacity="0.7424" d="M77.8523 74.1591C77.8523 75.1069 70.4014 75.8735 61.207 75.8735C52.0172 75.8735 44.5592 75.1069 44.5592 74.1591C44.5592 73.209 52.0172 72.44 61.207 72.44C70.4014 72.4424 77.8523 73.2114 77.8523 74.1591Z" fill="#403D3F"/>
<path opacity="0.7576" d="M77.3498 74.1262C77.3498 75.0363 70.1254 75.77 61.2069 75.77C52.2956 75.77 45.0641 75.0363 45.0641 74.1262C45.0641 73.216 52.2956 72.4776 61.2069 72.4776C70.123 72.4776 77.3498 73.216 77.3498 74.1262Z" fill="#3E3B3D"/>
<path opacity="0.7727" d="M76.8449 74.0933C76.8449 74.9634 69.8446 75.6666 61.2069 75.6666C52.574 75.6666 45.5667 74.9634 45.5667 74.0933C45.5667 73.2208 52.5716 72.5153 61.2069 72.5153C69.8446 72.5153 76.8449 73.2208 76.8449 74.0933Z" fill="#3C3A3B"/>
<path opacity="0.7879" d="M76.3423 74.058C76.3423 74.8905 69.5686 75.5608 61.2093 75.5608C52.8548 75.5608 46.0739 74.8882 46.0739 74.058C46.0739 73.2255 52.8548 72.5505 61.2093 72.5505C69.5662 72.5505 76.3423 73.2255 76.3423 74.058Z" fill="#3B3839"/>
<path opacity="0.803" d="M75.8374 74.025C75.8374 74.8176 69.2878 75.4596 61.2069 75.4596C53.1308 75.4596 46.5741 74.8199 46.5741 74.025C46.5741 73.2302 53.1284 72.5881 61.2069 72.5881C69.2878 72.5881 75.8374 73.2302 75.8374 74.025Z" fill="#393637"/>
<path opacity="0.8182" d="M75.3325 73.9898C75.3325 74.7447 69.0094 75.3538 61.2069 75.3538C53.4092 75.3538 47.079 74.7447 47.079 73.9898C47.079 73.2349 53.4092 72.6234 61.2069 72.6234C69.0094 72.6234 75.3325 73.2349 75.3325 73.9898Z" fill="#373436"/>
<path opacity="0.8333" d="M74.83 73.9569C74.83 74.6718 68.7334 75.2503 61.207 75.2503C53.6876 75.2503 47.5839 74.6742 47.5839 73.9569C47.5839 73.2396 53.6876 72.6611 61.207 72.6611C68.731 72.6611 74.83 73.2396 74.83 73.9569Z" fill="#363334"/>
<path opacity="0.8485" d="M74.325 73.924C74.325 74.6013 68.4526 75.1469 61.2069 75.1469C53.966 75.1469 48.0864 74.6013 48.0864 73.924C48.0864 73.2467 53.966 72.6964 61.2069 72.6964C68.4549 72.6964 74.325 73.2443 74.325 73.924Z" fill="#343132"/>
<path opacity="0.8636" d="M73.8225 73.8887C73.8225 74.526 68.1765 75.041 61.207 75.041C54.2444 75.041 48.5914 74.526 48.5914 73.8887C48.5914 73.249 54.2444 72.7316 61.207 72.7316C68.1765 72.7316 73.8225 73.249 73.8225 73.8887Z" fill="#322F30"/>
<path opacity="0.8788" d="M73.3176 73.8557C73.3176 74.4554 67.8958 74.9375 61.207 74.9375C54.5229 74.9375 49.0939 74.4554 49.0939 73.8557C49.0939 73.256 54.5205 72.7692 61.207 72.7692C67.8982 72.7692 73.3176 73.256 73.3176 73.8557Z" fill="#302D2E"/>
<path opacity="0.8939" d="M72.8151 73.8205C72.8151 74.3802 67.6197 74.8317 61.2069 74.8317C54.8012 74.8317 49.5988 74.3802 49.5988 73.8205C49.5988 73.2584 54.8012 72.8045 61.2069 72.8045C67.6197 72.8045 72.8151 73.2607 72.8151 73.8205Z" fill="#2F2B2D"/>
<path opacity="0.9091" d="M72.3102 73.7876C72.3102 74.3097 67.3413 74.7283 61.207 74.7283C55.0773 74.7283 50.1014 74.3097 50.1014 73.7876C50.1014 73.2655 55.0773 72.8422 61.207 72.8422C67.3413 72.8422 72.3102 73.2655 72.3102 73.7876Z" fill="#2D2A2B"/>
<path opacity="0.9242" d="M71.8052 73.7523C71.8052 74.2344 67.0605 74.6224 61.2069 74.6224C55.3557 74.6224 50.6063 74.2344 50.6063 73.7523C50.6063 73.2678 55.358 72.8774 61.2069 72.8774C67.0629 72.8774 71.8052 73.2702 71.8052 73.7523Z" fill="#2B2829"/>
<path opacity="0.9394" d="M71.3027 73.7193C71.3027 74.1638 66.7845 74.5189 61.207 74.5189C55.6341 74.5189 51.1088 74.1615 51.1088 73.7193C51.1088 73.2749 55.6341 72.915 61.207 72.915C66.7845 72.915 71.3027 73.2749 71.3027 73.7193Z" fill="#2A2627"/>
<path opacity="0.9545" d="M70.7978 73.6864C70.7978 74.0909 66.5037 74.4154 61.2069 74.4154C55.9125 74.4154 51.6137 74.0909 51.6137 73.6864C51.6137 73.2795 55.9149 72.9526 61.2069 72.9526C66.5061 72.9503 70.7978 73.2795 70.7978 73.6864Z" fill="#FF832F"/>
<path opacity="0.9697" d="M70.2953 73.6512C70.2953 74.018 66.2277 74.312 61.2069 74.312C56.1909 74.312 52.1163 74.018 52.1163 73.6512C52.1163 73.2843 56.1909 72.988 61.2069 72.988C66.2277 72.988 70.2953 73.2843 70.2953 73.6512Z" fill="#FF832F"/>
<path opacity="0.9848" d="M69.7903 73.6182C69.7903 73.9451 65.9493 74.2085 61.2069 74.2085C56.4693 74.2085 52.6212 73.9475 52.6212 73.6182C52.6212 73.289 56.4693 73.0233 61.2069 73.0233C65.9493 73.0233 69.7903 73.289 69.7903 73.6182Z" fill="#FF832F"/>
<path d="M69.2878 73.583C69.2878 73.8722 65.6709 74.1027 61.2069 74.1027C56.7477 74.1027 53.1237 73.8722 53.1237 73.583C53.1237 73.2937 56.7477 73.0585 61.2069 73.0585C65.6709 73.0609 69.2878 73.2937 69.2878 73.583Z" fill="#FF832F"/>
</g>
<path d="M73.7187 10.3988L58.168 24.7914L59.9116 22.3339L59.8644 21.0569L54.7351 21.071L55.0277 27.7852L48.5465 34.1631L57.137 35.0427C54.8555 54.0494 48.4545 69.9072 39.0878 71.2359L74.9054 70.0177C84.8219 69.1335 88.1533 57.2784 91.5721 38.4974L98.7233 39.1417L73.7187 10.3988ZM64.654 43.9981C65.2509 40.5246 68.8135 38.3328 72.6758 39.0618L70.9063 47.9255L64.2411 46.411L64.654 43.9981ZM62.9434 53.9577L63.9579 48.0431L70.5831 49.5411L69.4152 55.3923L62.9434 53.9577ZM77.5857 57.2031L71.1894 55.785L72.3998 49.9503L78.9447 51.4296L77.5857 57.2031ZM79.8743 47.4834L79.3198 49.8351L72.7348 48.3394L74.568 39.5016C78.3312 40.5551 80.6718 44.0945 79.8743 47.4834Z" fill="#FF832F"/>
<path d="M74.1787 12.4589C75.9931 20.3678 75.4976 30.2051 74.5185 38.3375C74.5185 38.3375 78.3548 39.6262 79.9734 42.2343C81.0658 43.991 81.4433 45.9877 80.9973 47.8738L78.4846 58.5459L69.3987 56.5281C67.2351 61.2081 64.4864 65.5424 61.2069 69.4086C61.2069 69.4086 75.4316 68.7831 75.8114 68.7078C83.7295 67.1674 86.8887 57.5982 90.4207 38.1611L90.5835 37.2627L95.8921 37.7378L74.1787 12.4589Z" fill="#FF832F"/>
<path d="M124.978 46.0253H115.793L113.908 51.8129H107.234L117.244 21.5813H124.311L134.322 51.8129H126.864L124.978 46.0253ZM117.794 40.0636H122.975L120.385 31.08L117.794 40.0636Z" fill="#FF832F"/>
<path d="M143.743 52.0716C142.487 52.0716 141.4 51.9564 140.484 51.7259C139.569 51.4954 138.816 51.0721 138.226 50.4512C137.636 49.8327 137.198 48.9838 136.912 47.9043C136.624 46.8249 136.48 45.435 136.48 43.737V21.5813H142.525V42.7799C142.525 43.5019 142.565 44.1062 142.643 44.5978C142.721 45.0893 142.858 45.4773 143.056 45.7666C143.252 46.0558 143.533 46.2651 143.901 46.3945C144.266 46.5238 144.724 46.5897 145.274 46.5897C145.588 46.5897 145.849 46.5826 146.059 46.5685C146.269 46.5544 146.477 46.5332 146.687 46.5027V51.9446C145.901 52.0269 144.92 52.0716 143.743 52.0716Z" fill="#FF832F"/>
<path d="M156.894 52.0716C155.636 52.0716 154.551 51.9564 153.635 51.7259C152.72 51.4954 151.967 51.0721 151.377 50.4512C150.788 49.8327 150.351 48.9838 150.063 47.9043C149.775 46.8249 149.632 45.435 149.632 43.737V21.5813H155.676V42.7799C155.676 43.5019 155.716 44.1062 155.794 44.5978C155.872 45.0893 156.011 45.4773 156.207 45.7666C156.403 46.0558 156.684 46.2651 157.052 46.3945C157.417 46.5238 157.875 46.5897 158.425 46.5897C158.739 46.5897 159.001 46.5826 159.211 46.5685C159.421 46.5544 159.628 46.5332 159.838 46.5027V51.9446C159.053 52.0269 158.071 52.0716 156.894 52.0716Z" fill="#FF832F"/>
<path d="M162.585 28.9211H168.16V32.0301C168.318 31.6561 168.558 31.2516 168.886 30.8213C169.214 30.3886 169.599 29.9864 170.045 29.6125C170.488 29.2386 170.993 28.9352 171.557 28.7047C172.119 28.4742 172.727 28.359 173.383 28.359C173.827 28.359 174.181 28.3872 174.443 28.4437C174.705 28.5001 174.941 28.5589 175.151 28.6154V34.3183C175.018 34.2313 174.719 34.1325 174.247 34.0149C173.775 33.8997 173.225 33.8433 172.598 33.8433C171.21 33.8433 170.203 34.2901 169.575 35.1861C168.948 36.0821 168.634 37.1639 168.634 38.4315V51.8082H162.585V28.9211Z" fill="#FF832F"/>
<path d="M187.12 52.3726C185.655 52.3726 184.279 52.1351 182.998 51.6601C181.714 51.185 180.589 50.4583 179.622 49.48C178.652 48.5017 177.895 47.2717 177.345 45.7878C176.795 44.3062 176.521 42.5706 176.521 40.5834V39.7203C176.521 37.8483 176.797 36.2068 177.345 34.7957C177.895 33.3847 178.654 32.2041 179.622 31.254C180.589 30.3039 181.714 29.5843 182.998 29.0951C184.279 28.606 185.655 28.3614 187.12 28.3614C188.585 28.3614 189.96 28.606 191.242 29.0951C192.523 29.5843 193.65 30.3039 194.618 31.254C195.585 32.2041 196.345 33.3847 196.895 34.7957C197.444 36.2068 197.718 37.8483 197.718 39.7203V40.5834C197.718 42.5424 197.444 44.2615 196.895 45.7431C196.345 47.227 195.585 48.457 194.618 49.4353C193.65 50.4136 192.523 51.1497 191.242 51.6389C189.96 52.1281 188.585 52.3726 187.12 52.3726ZM187.12 46.8884C188.533 46.8884 189.618 46.324 190.378 45.1928C191.138 44.0616 191.518 42.5259 191.518 40.5834V39.7132C191.518 37.9753 191.138 36.5619 190.378 35.473C189.618 34.3865 188.533 33.8433 187.12 33.8433C185.706 33.8433 184.621 34.3865 183.861 35.473C183.102 36.5595 182.722 37.9729 182.722 39.7132V40.5834C182.722 42.5824 183.102 44.1345 183.861 45.2351C184.621 46.3381 185.706 46.8884 187.12 46.8884Z" fill="#FF832F"/>
<path d="M208.005 52.3726C205.624 52.3726 203.805 51.6248 202.548 50.1267C201.292 48.631 200.662 46.3545 200.662 43.302V28.9211H206.707V42.2978C206.707 43.7982 206.988 44.9388 207.552 45.7172C208.113 46.4956 209.024 46.886 210.279 46.886C211.641 46.886 212.641 46.4462 213.283 45.5667C213.925 44.6871 214.245 43.5959 214.245 42.2978V28.9211H220.29V51.8106H214.715V48.7016C214.191 49.7104 213.368 50.5735 212.242 51.2932C211.119 52.0128 209.706 52.3726 208.005 52.3726Z" fill="#FF832F"/>
<path d="M224.219 28.9211H229.794V32.0301C230.317 31.0235 231.134 30.1581 232.247 29.4385C233.359 28.7188 234.845 28.359 236.702 28.359C239.189 28.359 241.067 29.0998 242.336 30.5838C243.605 32.0677 244.24 34.1749 244.24 36.9099V51.8105H238.195V38.3892C238.195 36.8888 237.901 35.7552 237.313 34.9909C236.723 34.2266 235.763 33.8433 234.428 33.8433C233.694 33.8433 233.066 33.9656 232.542 34.2125C232.019 34.4571 231.587 34.7816 231.247 35.1861C230.907 35.5906 230.657 36.0727 230.502 36.6371C230.343 37.1992 230.266 37.7848 230.266 38.3892V51.8105H224.221V28.9211H224.219Z" fill="#FF832F"/>
<path d="M256.134 52.3726C254.772 52.3726 253.543 52.121 252.444 51.6177C251.344 51.1144 250.403 50.3736 249.617 49.393C248.831 48.4146 248.23 47.1894 247.812 45.7219C247.392 44.2544 247.185 42.54 247.185 40.5833V39.7203C247.185 36.0351 247.963 33.2201 249.52 31.2775C251.078 29.335 253.281 28.3614 256.136 28.3614C257.313 28.3614 258.432 28.6577 259.493 29.2456C260.553 29.8359 261.438 30.6919 262.143 31.8161V21.5813H268.188V51.8129H262.613V48.7039C262.351 49.1648 262.018 49.6187 261.612 50.0632C261.206 50.51 260.73 50.9051 260.18 51.2508C259.63 51.5965 259.015 51.8693 258.335 52.0716C257.651 52.2715 256.919 52.3726 256.134 52.3726ZM257.587 46.8884C258.868 46.8884 259.949 46.3992 260.827 45.4209C261.702 44.4425 262.141 43.0456 262.141 41.2324V39.0735C262.141 37.345 261.702 36.0445 260.827 35.1649C259.949 34.2877 258.871 33.848 257.587 33.848C256.33 33.848 255.317 34.3301 254.544 35.2943C253.772 36.2585 253.385 37.7354 253.385 39.7203V40.5833C253.385 42.6552 253.784 44.2262 254.581 45.2915C255.381 46.3545 256.381 46.8884 257.587 46.8884Z" fill="#FF832F"/>
<path d="M207.212 69C206.553 69 205.879 68.9053 205.181 68.7192C204.483 68.5331 203.822 68.1968 203.189 67.7071L203.73 66.8582C204.362 67.2434 204.991 67.4981 205.617 67.6189C206.242 67.7397 206.75 67.8017 207.137 67.8017C207.421 67.8017 207.729 67.7724 208.067 67.7136C208.401 67.6548 208.712 67.5667 208.994 67.4426C209.275 67.3185 209.515 67.152 209.711 66.9398C209.904 66.7276 210.003 66.4664 210.003 66.1595C210.003 65.8395 209.908 65.5783 209.711 65.3791C209.518 65.18 209.275 65.0233 208.987 64.9057C208.696 64.7882 208.391 64.7033 208.067 64.6445C207.742 64.5858 207.448 64.5335 207.176 64.4813C206.789 64.4029 206.37 64.3115 205.918 64.2005C205.466 64.0928 205.047 63.936 204.66 63.7369C204.274 63.5377 203.949 63.2732 203.694 62.9467C203.435 62.6203 203.307 62.2056 203.307 61.7028C203.307 61.1902 203.435 60.7527 203.694 60.3903C203.953 60.0311 204.28 59.7405 204.68 59.5218C205.079 59.303 205.515 59.1431 205.987 59.0386C206.458 58.9374 206.914 58.8851 207.349 58.8851C208.728 58.8851 209.898 59.3292 210.851 60.2172L210.386 61.0857C209.521 60.4164 208.516 60.0834 207.369 60.0834C207.022 60.0834 206.681 60.116 206.354 60.1813C206.026 60.2466 205.731 60.3413 205.473 60.4719C205.214 60.5992 205.007 60.7657 204.853 60.9649C204.699 61.1641 204.621 61.3926 204.621 61.6506C204.621 61.9477 204.716 62.1893 204.912 62.3819C205.106 62.5745 205.345 62.7313 205.63 62.8553C205.915 62.9794 206.206 63.0708 206.511 63.1361C206.812 63.2014 207.074 63.2504 207.294 63.2896C207.746 63.3679 208.211 63.4626 208.686 63.5801C209.164 63.6944 209.596 63.8577 209.983 64.0634C210.369 64.2691 210.69 64.54 210.939 64.8731C211.192 65.2094 211.316 65.6371 211.316 66.166C211.316 66.6949 211.188 67.1357 210.93 67.4981C210.671 67.8572 210.343 68.1511 209.944 68.3764C209.544 68.6017 209.102 68.7616 208.62 68.8596C208.139 68.9575 207.664 69 207.212 69Z" fill="#FF832F"/>
<path d="M218.008 69C217.248 69 216.554 68.8727 215.928 68.6147C215.303 68.3568 214.765 68.0042 214.313 67.5536C213.861 67.1031 213.514 66.5709 213.268 65.9538C213.023 65.3367 212.902 64.6674 212.902 63.9491C212.902 63.2308 213.029 62.5615 213.288 61.9444C213.547 61.3273 213.901 60.7951 214.353 60.3446C214.805 59.894 215.335 59.5414 215.948 59.2835C216.56 59.0255 217.222 58.8982 217.93 58.8982C218.588 58.8982 219.207 59.0027 219.787 59.2149C220.367 59.4271 220.871 59.7438 221.297 60.1683C221.723 60.5927 222.06 61.1184 222.312 61.7485C222.564 62.3786 222.689 63.11 222.689 63.9458C222.689 64.0601 222.689 64.1646 222.689 64.2527C222.689 64.3442 222.676 64.4388 222.65 64.5433H214.29C214.418 65.5065 214.831 66.2933 215.529 66.8974C216.223 67.5014 217.12 67.805 218.218 67.805C218.758 67.805 219.328 67.7234 219.921 67.5634C220.514 67.4034 221.074 67.1684 221.605 66.8582L222.145 67.7071C221.615 68.0793 221.015 68.3894 220.347 68.6311C219.679 68.8759 218.899 69 218.008 69ZM221.356 63.3483C221.33 62.8455 221.225 62.395 221.038 61.9901C220.851 61.5853 220.606 61.2457 220.304 60.9682C220 60.6907 219.646 60.4752 219.24 60.3217C218.834 60.1683 218.398 60.0899 217.933 60.0899C217.455 60.0899 217.006 60.1715 216.59 60.3315C216.171 60.4915 215.804 60.7135 215.486 60.9976C215.172 61.2816 214.909 61.6212 214.703 62.0195C214.497 62.4178 214.362 62.8619 214.297 63.3516H221.356V63.3483Z" fill="#FF832F"/>
<path d="M224.972 59.1267H226.325V60.8637C226.636 60.2728 227.042 59.7961 227.543 59.4369C228.048 59.0778 228.683 58.8982 229.46 58.8982C229.951 58.8982 230.406 58.9798 230.832 59.1398C231.258 59.2998 231.651 59.5283 232.011 59.8254L231.314 60.769C231.015 60.5503 230.704 60.3968 230.377 60.3054C230.049 60.214 229.715 60.1715 229.381 60.1715C228.942 60.1715 228.536 60.2564 228.162 60.4229C227.789 60.5894 227.465 60.8311 227.196 61.1478C226.924 61.4645 226.711 61.853 226.557 62.3134C226.403 62.7737 226.325 63.2961 226.325 63.874V68.7715H224.972V59.1267Z" fill="#FF832F"/>
<path d="M232.791 59.1268H234.261L237.57 67.2827L240.878 59.1268H242.349L238.363 68.7682H236.777L232.791 59.1268Z" fill="#FF832F"/>
<path d="M245.074 57.0437C244.815 57.0437 244.593 56.9523 244.406 56.7727C244.219 56.5931 244.124 56.3679 244.124 56.0969C244.124 55.8259 244.219 55.6006 244.406 55.421C244.593 55.2414 244.815 55.15 245.074 55.15C245.333 55.15 245.556 55.2414 245.742 55.421C245.929 55.6006 246.024 55.8259 246.024 56.0969C246.024 56.3679 245.929 56.5931 245.742 56.7727C245.556 56.9523 245.333 57.0437 245.074 57.0437ZM244.396 59.1267H245.749V68.7682H244.396V59.1267Z" fill="#FF832F"/>
<path d="M252.968 69C252.258 69 251.609 68.8727 251.016 68.6147C250.423 68.3568 249.909 68.0042 249.477 67.5536C249.044 67.1031 248.71 66.5709 248.471 65.9538C248.232 65.3367 248.114 64.6674 248.114 63.9491C248.114 63.2308 248.238 62.5615 248.491 61.9444C248.743 61.3273 249.09 60.7951 249.535 60.3446C249.981 59.894 250.502 59.5414 251.101 59.2835C251.701 59.0255 252.356 58.8982 253.067 58.8982C253.738 58.8982 254.377 59.0125 254.983 59.2443C255.589 59.4761 256.142 59.8026 256.647 60.227L256.182 61.0955C255.703 60.7984 255.235 60.5666 254.77 60.3903C254.305 60.2172 253.804 60.1291 253.26 60.1291C252.706 60.1291 252.195 60.227 251.73 60.4197C251.265 60.6123 250.869 60.88 250.541 61.2196C250.214 61.5591 249.958 61.9607 249.778 62.4244C249.598 62.888 249.506 63.3941 249.506 63.9491C249.506 64.5041 249.591 65.0102 249.758 65.4738C249.925 65.9375 250.171 66.3391 250.495 66.6786C250.816 67.0182 251.206 67.2859 251.655 67.4785C252.107 67.6712 252.608 67.7691 253.165 67.7691C253.591 67.7691 254.085 67.7005 254.655 67.5667C255.222 67.4328 255.798 67.1977 256.378 66.8614L256.919 67.7103C256.467 68.0172 255.92 68.3111 255.274 68.5886C254.626 68.8629 253.859 69 252.968 69Z" fill="#FF832F"/>
<path d="M263.358 69C262.598 69 261.904 68.8727 261.278 68.6147C260.653 68.3568 260.116 68.0042 259.664 67.5536C259.212 67.1031 258.864 66.5709 258.619 65.9538C258.373 65.3367 258.252 64.6674 258.252 63.9491C258.252 63.2308 258.38 62.5615 258.638 61.9444C258.897 61.3273 259.251 60.7951 259.703 60.3446C260.155 59.894 260.686 59.5414 261.298 59.2835C261.911 59.0255 262.572 58.8982 263.28 58.8982C263.938 58.8982 264.557 59.0027 265.137 59.2149C265.717 59.4271 266.221 59.7438 266.647 60.1683C267.073 60.5927 267.41 61.1184 267.663 61.7485C267.915 62.3786 268.039 63.11 268.039 63.9458C268.039 64.0601 268.039 64.1646 268.039 64.2527C268.039 64.3442 268.026 64.4388 268 64.5433H259.641C259.768 65.5065 260.181 66.2933 260.879 66.8974C261.576 67.5014 262.471 67.805 263.568 67.805C264.109 67.805 264.678 67.7234 265.271 67.5634C265.864 67.4034 266.424 67.1684 266.955 66.8582L267.495 67.7071C266.965 68.0793 266.365 68.3894 265.697 68.6311C265.029 68.8759 264.249 69 263.358 69ZM266.706 63.3483C266.68 62.8455 266.575 62.395 266.388 61.9901C266.202 61.5853 265.956 61.2457 265.655 60.9682C265.35 60.6907 264.996 60.4752 264.59 60.3217C264.184 60.1683 263.748 60.0899 263.283 60.0899C262.805 60.0899 262.356 60.1715 261.937 60.3315C261.518 60.4915 261.151 60.7135 260.833 60.9976C260.515 61.2816 260.256 61.6212 260.05 62.0195C259.844 62.4178 259.709 62.8619 259.644 63.3516H266.706V63.3483Z" fill="#FF832F"/>
<path d="M162.981 21.8658H165.123C165.317 21.8658 165.501 21.8988 165.678 21.967C165.855 22.0352 166.006 22.1222 166.138 22.2351C166.27 22.348 166.374 22.4773 166.452 22.6278C166.529 22.7783 166.569 22.9359 166.569 23.1052C166.569 23.2581 166.536 23.4062 166.47 23.5473C166.404 23.6884 166.315 23.8154 166.199 23.9283C166.083 24.0412 165.947 24.1306 165.791 24.1988C165.633 24.267 165.463 24.3069 165.284 24.314L166.683 25.9955H166.102L164.736 24.3446H163.465V25.9955H162.979V21.8658H162.981ZM165.123 23.9424C165.258 23.9424 165.383 23.9213 165.498 23.8766C165.614 23.8343 165.713 23.7731 165.796 23.6979C165.878 23.6202 165.944 23.5309 165.994 23.4298C166.043 23.3286 166.069 23.2204 166.069 23.1052C166.069 22.99 166.043 22.8841 165.994 22.7807C165.944 22.6772 165.878 22.5902 165.796 22.5126C165.713 22.435 165.614 22.3762 165.498 22.3338C165.383 22.2915 165.258 22.268 165.123 22.268H163.467V23.9424H165.123Z" fill="#FF832F"/>
<path d="M169.903 26.0637C169.615 26.0637 169.354 26.0214 169.115 25.9367C168.879 25.852 168.676 25.7345 168.507 25.5863C168.337 25.4381 168.207 25.2618 168.115 25.0595C168.023 24.8573 167.976 24.6385 167.976 24.401V21.8658H168.483V24.401C168.483 24.5703 168.516 24.7303 168.582 24.8784C168.648 25.0289 168.74 25.1583 168.863 25.2712C168.985 25.384 169.134 25.4734 169.309 25.5393C169.486 25.6051 169.681 25.6404 169.903 25.6404C170.125 25.6404 170.323 25.6075 170.498 25.5393C170.675 25.4734 170.823 25.384 170.944 25.2712C171.066 25.1583 171.158 25.0289 171.224 24.8784C171.291 24.7279 171.324 24.5703 171.324 24.401V21.8658H171.831V24.401C171.831 24.6362 171.784 24.8549 171.692 25.0595C171.6 25.2618 171.468 25.4381 171.3 25.5863C171.13 25.7368 170.927 25.852 170.691 25.9367C170.453 26.0214 170.191 26.0637 169.903 26.0637Z" fill="#FF832F"/>
<path d="M173.527 21.8658H173.933L176.92 25.2147V21.8658H177.406V25.9931H177L174.013 22.6443V25.9931H173.527V21.8658Z" fill="#FF832F"/>
<path d="M180.962 25.9931H179.171V21.8658H180.962C181.299 21.8658 181.615 21.9176 181.908 22.0211C182.2 22.1245 182.455 22.268 182.672 22.4514C182.889 22.6349 183.059 22.8512 183.182 23.1052C183.305 23.3592 183.368 23.632 183.368 23.9283C183.368 24.2246 183.307 24.4974 183.182 24.7514C183.057 25.0054 182.887 25.2241 182.672 25.4052C182.457 25.5863 182.2 25.7321 181.908 25.8356C181.615 25.9414 181.301 25.9931 180.962 25.9931ZM179.678 25.5816H180.962C181.24 25.5816 181.497 25.5416 181.728 25.4617C181.96 25.3817 182.158 25.2665 182.323 25.1207C182.488 24.9725 182.616 24.7985 182.705 24.5962C182.795 24.394 182.84 24.1729 182.84 23.933C182.84 23.6884 182.795 23.4674 182.705 23.2675C182.616 23.0676 182.488 22.8936 182.323 22.7454C182.158 22.5972 181.96 22.4844 181.728 22.4044C181.497 22.3244 181.24 22.2845 180.962 22.2845H179.678V25.5816Z" fill="#FF832F"/>
<path d="M191.428 26.0637C191.14 26.0637 190.878 26.0214 190.64 25.9367C190.404 25.852 190.201 25.7345 190.031 25.5863C189.861 25.4381 189.731 25.2618 189.639 25.0595C189.547 24.8573 189.5 24.6385 189.5 24.401V21.8658H190.008V24.401C190.008 24.5703 190.041 24.7303 190.107 24.8784C190.173 25.0289 190.265 25.1583 190.387 25.2712C190.51 25.384 190.659 25.4734 190.833 25.5393C191.01 25.6051 191.206 25.6404 191.428 25.6404C191.65 25.6404 191.848 25.6075 192.022 25.5393C192.199 25.4734 192.348 25.384 192.468 25.2712C192.591 25.1583 192.683 25.0289 192.749 24.8784C192.815 24.7279 192.848 24.5703 192.848 24.401V21.8658H193.355V24.401C193.355 24.6362 193.308 24.8549 193.216 25.0595C193.124 25.2618 192.992 25.4381 192.825 25.5863C192.655 25.7368 192.452 25.852 192.216 25.9367C191.978 26.0214 191.716 26.0637 191.428 26.0637Z" fill="#FF832F"/>
<path d="M195.052 25.9931V21.8658H195.526L197.418 24.1941L199.311 21.8658H199.785V25.9931H199.278V22.6325L197.451 24.8737H197.383L195.557 22.6325V25.9931H195.052Z" fill="#FF832F"/>
<path d="M206.212 21.8658H206.719V25.9931H206.212V21.8658Z" fill="#FF832F"/>
<path d="M208.484 21.8658H208.991V23.6649H211.728V21.8658H212.235V25.9931H211.728V24.0765H208.991V25.9931H208.484V21.8658Z" fill="#FF832F"/>
<path d="M214 21.8658H216.142C216.336 21.8658 216.52 21.8988 216.697 21.967C216.874 22.0352 217.025 22.1222 217.157 22.2351C217.289 22.348 217.393 22.4773 217.471 22.6278C217.548 22.7783 217.589 22.9359 217.589 23.1052C217.589 23.2581 217.556 23.4062 217.489 23.5473C217.423 23.6884 217.334 23.8154 217.218 23.9283C217.103 24.0412 216.966 24.1306 216.81 24.1988C216.652 24.267 216.482 24.3069 216.303 24.314L217.702 25.9955H217.121L215.755 24.3446H214.484V25.9955H213.998V21.8658H214ZM216.142 23.9424C216.277 23.9424 216.402 23.9213 216.517 23.8766C216.633 23.8343 216.732 23.7731 216.815 23.6979C216.897 23.6202 216.963 23.5309 217.013 23.4298C217.062 23.3286 217.088 23.2204 217.088 23.1052C217.088 22.99 217.062 22.8841 217.013 22.7807C216.963 22.6772 216.897 22.5902 216.815 22.5126C216.732 22.435 216.633 22.3762 216.517 22.3338C216.402 22.2915 216.277 22.268 216.142 22.268H214.486V23.9424H216.142Z" fill="#FF832F"/>
<path d="M223.485 25.6404L226.561 22.2798H223.553V21.8682H227.203V22.221L224.126 25.5816H227.269V25.9932H223.482V25.6404H223.485Z" fill="#FF832F"/>
<path d="M230.65 26.0637C230.362 26.0637 230.1 26.0214 229.862 25.9367C229.626 25.852 229.423 25.7345 229.253 25.5863C229.083 25.4381 228.954 25.2618 228.862 25.0595C228.77 24.8573 228.722 24.6385 228.722 24.401V21.8658H229.23V24.401C229.23 24.5703 229.263 24.7303 229.329 24.8784C229.395 25.0289 229.487 25.1583 229.61 25.2712C229.732 25.384 229.881 25.4734 230.056 25.5393C230.232 25.6051 230.428 25.6404 230.65 25.6404C230.872 25.6404 231.07 25.6075 231.245 25.5393C231.422 25.4734 231.57 25.384 231.691 25.2712C231.813 25.1583 231.905 25.0289 231.971 24.8784C232.037 24.7279 232.07 24.5703 232.07 24.401V21.8658H232.578V24.401C232.578 24.6362 232.531 24.8549 232.438 25.0595C232.346 25.2618 232.214 25.4381 232.047 25.5863C231.877 25.7368 231.674 25.852 231.438 25.9367C231.202 26.0214 230.94 26.0637 230.65 26.0637Z" fill="#FF832F"/>
<path d="M234.274 21.8658H234.781V23.6649H237.518V21.8658H238.026V25.9931H237.518V24.0765H234.781V25.9931H234.274V21.8658Z" fill="#FF832F"/>
<path d="M241.326 21.8658H241.867L243.929 25.9931H243.388L242.82 24.8431H240.373L239.804 25.9931H239.264L241.326 21.8658ZM240.569 24.4434H242.624L241.595 22.3503L240.569 24.4434Z" fill="#FF832F"/>
<path d="M246.89 26.0637C246.602 26.0637 246.34 26.0214 246.102 25.9367C245.866 25.852 245.663 25.7345 245.493 25.5863C245.323 25.4381 245.193 25.2618 245.101 25.0595C245.009 24.8573 244.962 24.6385 244.962 24.401V21.8658H245.469V24.401C245.469 24.5703 245.502 24.7303 245.568 24.8784C245.635 25.0289 245.727 25.1583 245.849 25.2712C245.972 25.384 246.121 25.4734 246.295 25.5393C246.472 25.6051 246.668 25.6404 246.89 25.6404C247.111 25.6404 247.31 25.6075 247.484 25.5393C247.661 25.4734 247.81 25.384 247.93 25.2712C248.053 25.1583 248.145 25.0289 248.211 24.8784C248.277 24.7279 248.31 24.5703 248.31 24.401V21.8658H248.817V24.401C248.817 24.6362 248.77 24.8549 248.678 25.0595C248.586 25.2618 248.454 25.4381 248.286 25.5863C248.117 25.7368 247.914 25.852 247.678 25.9367C247.439 26.0214 247.178 26.0637 246.89 26.0637Z" fill="#FF832F"/>
<path d="M251.946 26.0637C251.625 26.0637 251.309 26.0308 250.995 25.9626C250.681 25.8967 250.403 25.7886 250.16 25.6381L250.349 25.3441C250.492 25.4029 250.639 25.4523 250.785 25.4922C250.931 25.5322 251.075 25.5628 251.214 25.5863C251.354 25.6098 251.488 25.6263 251.618 25.6357C251.745 25.6451 251.863 25.6498 251.967 25.6498C252.13 25.6498 252.297 25.6381 252.47 25.6145C252.644 25.591 252.802 25.5534 252.946 25.4993C253.09 25.4452 253.21 25.3747 253.305 25.2876C253.399 25.2006 253.446 25.0901 253.446 24.9608C253.446 24.8314 253.399 24.7209 253.307 24.6268C253.215 24.5351 253.1 24.4551 252.963 24.3916C252.826 24.3258 252.677 24.2717 252.517 24.2294C252.356 24.187 252.212 24.1471 252.08 24.1118C251.892 24.0647 251.686 24.0107 251.469 23.9495C251.25 23.8884 251.047 23.8131 250.861 23.719C250.674 23.6273 250.516 23.5121 250.391 23.378C250.264 23.2416 250.202 23.0747 250.202 22.8748C250.202 22.6819 250.259 22.5173 250.372 22.3833C250.485 22.2492 250.632 22.1363 250.811 22.0493C250.99 21.9623 251.193 21.8988 251.415 21.8588C251.639 21.8165 251.861 21.7977 252.08 21.7977C252.401 21.7977 252.696 21.8306 252.97 21.8988C253.243 21.9646 253.515 22.0681 253.784 22.2045L253.621 22.5055C253.383 22.4162 253.135 22.3433 252.878 22.2892C252.621 22.2351 252.359 22.2092 252.094 22.2092C251.915 22.2092 251.741 22.2233 251.571 22.2539C251.401 22.2845 251.252 22.3268 251.125 22.3833C250.997 22.4397 250.894 22.5102 250.818 22.5926C250.743 22.6749 250.702 22.7666 250.702 22.8701C250.702 22.9876 250.752 23.0911 250.851 23.1805C250.95 23.2699 251.07 23.3451 251.212 23.411C251.354 23.4768 251.502 23.5285 251.656 23.5709C251.809 23.6132 251.936 23.6461 252.04 23.6744C252.257 23.7284 252.477 23.7872 252.703 23.8507C252.927 23.9142 253.133 23.9918 253.319 24.0859C253.503 24.18 253.654 24.2976 253.772 24.4363C253.89 24.5751 253.949 24.7491 253.949 24.9584C253.949 25.1701 253.888 25.3488 253.763 25.4922C253.638 25.6357 253.479 25.7486 253.286 25.8333C253.092 25.9179 252.878 25.9767 252.639 26.012C252.401 26.0473 252.172 26.0637 251.946 26.0637Z" fill="#FF832F"/>
<path d="M255.4 21.8658H258.59V22.2656H255.886V23.6696H257.981V24.0694H255.886V25.591H258.658V25.9931H255.4V21.8658Z" fill="#FF832F"/>
<path d="M106.977 64.6234L195 64.9958" stroke="#FF832F"/>
</svg>
