<svg width="302" height="115" viewBox="0 0 302 115" fill="none" xmlns="http://www.w3.org/2000/svg">
<g opacity="0.35">
<path opacity="0.0152" d="M102.038 90.7865C102.038 93.5968 83.7602 95.8757 61.2069 95.8757C38.6584 95.8757 20.3779 93.5968 20.3779 90.7865C20.3779 87.9738 38.6584 85.695 61.2069 85.695C83.7602 85.695 102.038 87.9738 102.038 90.7865Z" fill="#909295"/>
<path opacity="0.0303" d="M101.536 90.7536C101.536 93.5263 83.4841 95.7745 61.2069 95.7745C38.9368 95.7745 20.8805 93.5263 20.8805 90.7536C20.8805 87.9785 38.9344 85.7326 61.2069 85.7326C83.4818 85.7326 101.536 87.9785 101.536 90.7536Z" fill="#8F9093"/>
<path opacity="0.0455" d="M101.031 90.7207C101.031 93.4534 83.2034 95.6711 61.2069 95.6711C39.2152 95.6711 21.3854 93.4534 21.3854 90.7207C21.3854 87.9856 39.2152 85.7703 61.2069 85.7703C83.2034 85.7679 101.031 87.9833 101.031 90.7207Z" fill="#8D8F92"/>
<path opacity="0.0606" d="M100.528 90.6854C100.528 93.3805 82.9274 95.5653 61.2093 95.5653C39.496 95.5653 21.8927 93.3805 21.8927 90.6854C21.8927 87.988 39.496 85.8055 61.2093 85.8055C82.925 85.8055 100.528 87.988 100.528 90.6854Z" fill="#8B8D90"/>
<path opacity="0.0758" d="M100.023 90.6524C100.023 93.3076 82.6466 95.4618 61.207 95.4618C39.772 95.4618 22.3929 93.3076 22.3929 90.6524C22.3929 87.995 39.772 85.8431 61.207 85.8431C82.6466 85.8408 100.023 87.9926 100.023 90.6524Z" fill="#8A8B8E"/>
<path opacity="0.0909" d="M99.5185 90.6172C99.5185 93.2347 82.3682 95.356 61.2069 95.356C40.0504 95.356 22.8978 93.2347 22.8978 90.6172C22.8978 87.9974 40.0504 85.8761 61.2069 85.8761C82.3682 85.8785 99.5185 87.9974 99.5185 90.6172Z" fill="#88898C"/>
<path opacity="0.1061" d="M99.0159 90.5842C99.0159 93.1618 82.0921 95.2524 61.207 95.2524C40.3289 95.2524 23.4003 93.1618 23.4003 90.5842C23.4003 88.0044 40.3265 85.9137 61.207 85.9137C82.0898 85.9137 99.0159 88.0044 99.0159 90.5842Z" fill="#86888A"/>
<path opacity="0.1212" d="M98.511 90.5514C98.511 93.0912 81.8114 95.149 61.2069 95.149C40.6072 95.149 23.9052 93.0889 23.9052 90.5514C23.9052 88.0091 40.6072 85.9514 61.2069 85.9514C81.8114 85.9514 98.511 88.0091 98.511 90.5514Z" fill="#858689"/>
<path opacity="0.1364" d="M98.0085 90.5161C98.0085 93.016 81.5353 95.0432 61.207 95.0432C40.8833 95.0432 24.4078 93.016 24.4078 90.5161C24.4078 88.0138 40.8833 85.9866 61.207 85.9866C81.5353 85.9866 98.0085 88.0138 98.0085 90.5161Z" fill="#838487"/>
<path opacity="0.1515" d="M97.5036 90.4831C97.5036 92.9454 81.2545 94.9397 61.2069 94.9397C41.1617 94.9397 24.9127 92.943 24.9127 90.4831C24.9127 88.0185 41.164 86.0242 61.2069 86.0242C81.2569 86.0242 97.5036 88.0185 97.5036 90.4831Z" fill="#818285"/>
<path opacity="0.1667" d="M97.001 90.4479C97.001 92.8701 80.9785 94.8338 61.2069 94.8338C41.4401 94.8338 25.4152 92.8701 25.4152 90.4479C25.4152 88.0232 41.4401 86.0595 61.2069 86.0595C80.9785 86.0595 97.001 88.0232 97.001 90.4479Z" fill="#7F8083"/>
<path opacity="0.1818" d="M96.4961 90.415C96.4961 92.7996 80.7001 94.7304 61.2069 94.7304C41.7185 94.7304 25.9201 92.7973 25.9201 90.415C25.9201 88.0279 41.7208 86.0972 61.2069 86.0972C80.7001 86.0972 96.4961 88.0279 96.4961 90.415Z" fill="#7E7F81"/>
<path opacity="0.197" d="M95.9912 90.3797C95.9912 92.7244 80.4193 94.6269 61.2069 94.6269C41.9969 94.6269 26.4227 92.7244 26.4227 90.3797C26.4227 88.0327 41.9969 86.1324 61.2069 86.1324C80.4217 86.1324 95.9912 88.0327 95.9912 90.3797Z" fill="#7C7D80"/>
<path opacity="0.2121" d="M95.4886 90.3468C95.4886 92.6538 80.1433 94.5234 61.2069 94.5234C42.2753 94.5234 26.9276 92.6538 26.9276 90.3468C26.9276 88.0374 42.2753 86.1677 61.2069 86.1677C80.1433 86.1701 95.4886 88.0374 95.4886 90.3468Z" fill="#7A7B7E"/>
<path opacity="0.2273" d="M94.9837 90.3138C94.9837 92.5809 79.8625 94.4199 61.2069 94.4199C42.5537 94.4199 27.4301 92.5809 27.4301 90.3138C27.4301 88.0444 42.5537 86.2053 61.2069 86.2053C79.8649 86.2053 94.9837 88.042 94.9837 90.3138Z" fill="#79797C"/>
<path opacity="0.2424" d="M94.4812 90.2785C94.4812 92.508 79.5865 94.3141 61.207 94.3141C42.8322 94.3141 27.9351 92.508 27.9351 90.2785C27.9351 88.0467 42.8322 86.2406 61.207 86.2406C79.5865 86.2406 94.4812 88.0467 94.4812 90.2785Z" fill="#77787A"/>
<path opacity="0.2576" d="M93.9763 90.2456C93.9763 92.4351 79.3081 94.2107 61.2069 94.2107C43.1105 94.2107 28.4376 92.4351 28.4376 90.2456C28.4376 88.0538 43.1105 86.2783 61.2069 86.2783C79.3081 86.2783 93.9763 88.0538 93.9763 90.2456Z" fill="#757678"/>
<path opacity="0.2727" d="M93.4738 90.2104C93.4738 92.3622 79.0297 94.1048 61.207 94.1048C43.389 94.1048 28.9425 92.3622 28.9425 90.2104C28.9425 88.0562 43.389 86.3135 61.207 86.3135C79.0297 86.3135 93.4738 88.0585 93.4738 90.2104Z" fill="#747477"/>
<path opacity="0.2879" d="M92.9688 90.1774C92.9688 92.2893 78.7512 94.0013 61.2069 94.0013C43.6673 94.0013 29.445 92.2893 29.445 90.1774C29.445 88.0632 43.6673 86.3511 61.2069 86.3511C78.7512 86.3511 92.9688 88.0632 92.9688 90.1774Z" fill="#727275"/>
<path opacity="0.303" d="M92.4663 90.1445C92.4663 92.2188 78.4728 93.8979 61.2093 93.8979C43.9481 93.8979 29.9523 92.2164 29.9523 90.1445C29.9523 88.0679 43.9481 86.3888 61.2093 86.3888C78.4728 86.3864 92.4663 88.0679 92.4663 90.1445Z" fill="#707173"/>
<path opacity="0.3182" d="M91.9614 90.1092C91.9614 92.1435 78.1944 93.7921 61.2069 93.7921C44.2241 93.7921 30.4548 92.1435 30.4548 90.1092C30.4548 88.0726 44.2241 86.4241 61.2069 86.4241C78.1944 86.4241 91.9614 88.0726 91.9614 90.1092Z" fill="#6F6F71"/>
<path opacity="0.3333" d="M91.4565 90.0763C91.4565 92.0729 77.916 93.6886 61.2069 93.6886C44.5026 93.6886 30.9574 92.0706 30.9574 90.0763C30.9574 88.0773 44.5026 86.4617 61.2069 86.4617C77.916 86.4593 91.4565 88.0773 91.4565 90.0763Z" fill="#6D6D6F"/>
<path opacity="0.3485" d="M90.9539 90.041C90.9539 91.9977 77.6376 93.5851 61.2069 93.5851C44.781 93.5851 31.4623 92 31.4623 90.041C31.4623 88.082 44.781 86.4946 61.2069 86.4946C77.6376 86.497 90.9539 88.082 90.9539 90.041Z" fill="#6B6B6E"/>
<path opacity="0.3636" d="M90.449 90.0081C90.449 91.9271 77.3592 93.4816 61.2069 93.4816C45.0594 93.4816 31.9648 91.9271 31.9648 90.0081C31.9648 88.0867 45.0594 86.5322 61.2069 86.5322C77.3592 86.5322 90.449 88.0867 90.449 90.0081Z" fill="#6A696C"/>
<path opacity="0.3788" d="M89.9465 89.9728C89.9465 91.8519 77.0808 93.3758 61.2069 93.3758C45.3378 93.3758 32.4697 91.8519 32.4697 89.9728C32.4697 88.0914 45.3378 86.5675 61.2069 86.5675C77.0808 86.5699 89.9465 88.0914 89.9465 89.9728Z" fill="#68686A"/>
<path opacity="0.3939" d="M89.4416 89.9399C89.4416 91.7813 76.8024 93.2723 61.2069 93.2723C45.6162 93.2723 32.9723 91.7813 32.9723 89.9399C32.9723 88.0962 45.6162 86.6052 61.2069 86.6052C76.8024 86.6052 89.4416 88.0962 89.4416 89.9399Z" fill="#666668"/>
<path opacity="0.4091" d="M88.939 89.907C88.939 91.7084 76.5263 93.1688 61.2069 93.1688C45.8946 93.1688 33.4772 91.7084 33.4772 89.907C33.4772 88.1032 45.8946 86.6428 61.2069 86.6428C76.524 86.6428 88.939 88.1032 88.939 89.907Z" fill="#656466"/>
<path opacity="0.4242" d="M88.4341 89.8717C88.4341 91.6355 76.2456 93.063 61.2069 93.063C46.173 93.063 33.9797 91.6355 33.9797 89.8717C33.9797 88.1055 46.173 86.678 61.2069 86.678C76.2456 86.678 88.4341 88.1079 88.4341 89.8717Z" fill="#636265"/>
<path opacity="0.4394" d="M87.9292 89.8387C87.9292 91.5626 75.9672 92.9595 61.207 92.9595C46.4514 92.9595 34.4847 91.5626 34.4847 89.8387C34.4847 88.1126 46.4514 86.7156 61.207 86.7156C75.9672 86.7133 87.9292 88.1126 87.9292 89.8387Z" fill="#616163"/>
<path opacity="0.4545" d="M87.4267 89.8035C87.4267 91.4897 75.6911 92.8537 61.2069 92.8537C46.7298 92.8537 34.9872 91.4873 34.9872 89.8035C34.9872 88.1149 46.7274 86.7509 61.2069 86.7509C75.6888 86.7509 87.4267 88.1173 87.4267 89.8035Z" fill="#605F61"/>
<path opacity="0.4697" d="M86.9218 89.7706C86.9218 91.4168 75.4104 92.7502 61.207 92.7502C47.0082 92.7502 35.4921 91.4168 35.4921 89.7706C35.4921 88.122 47.0082 86.7862 61.207 86.7862C75.4104 86.7862 86.9218 88.122 86.9218 89.7706Z" fill="#5E5D5F"/>
<path opacity="0.4848" d="M86.4192 89.7377C86.4192 91.3462 75.1343 92.6468 61.2069 92.6468C47.2866 92.6468 35.9946 91.3439 35.9946 89.7377C35.9946 88.1267 47.2842 86.8239 61.2069 86.8239C75.1319 86.8239 86.4192 88.1267 86.4192 89.7377Z" fill="#5C5B5D"/>
<path opacity="0.5" d="M85.9143 89.7024C85.9143 91.271 74.8536 92.5433 61.207 92.5433C47.565 92.5433 36.4996 91.2733 36.4996 89.7024C36.4996 88.1314 47.565 86.8591 61.207 86.8591C74.8559 86.8591 85.9143 88.1314 85.9143 89.7024Z" fill="#5A5A5C"/>
<path opacity="0.5152" d="M85.4118 89.6694C85.4118 91.2004 74.5775 92.4398 61.207 92.4398C47.8435 92.4398 37.0021 91.2004 37.0021 89.6694C37.0021 88.1361 47.8411 86.8967 61.207 86.8967C74.5775 86.8967 85.4118 88.1361 85.4118 89.6694Z" fill="#59585A"/>
<path opacity="0.5303" d="M84.9069 89.6342C84.9069 91.1252 74.2991 92.334 61.2069 92.334C48.1195 92.334 37.507 91.1252 37.507 89.6342C37.507 88.1408 48.1218 86.932 61.2069 86.932C74.2991 86.932 84.9069 88.1408 84.9069 89.6342Z" fill="#575658"/>
<path opacity="0.5455" d="M84.4043 89.6013C84.4043 91.0546 74.0207 92.2305 61.2093 92.2305C48.4002 92.2305 38.0119 91.0546 38.0119 89.6013C38.0119 88.1455 48.4002 86.9697 61.2093 86.9697C74.0207 86.9697 84.4043 88.1455 84.4043 89.6013Z" fill="#555456"/>
<path opacity="0.5606" d="M83.8994 89.566C83.8994 90.9794 73.7423 92.1247 61.2069 92.1247C48.6763 92.1247 38.5145 90.9794 38.5145 89.566C38.5145 88.1502 48.6763 87.0049 61.2069 87.0049C73.7423 87.0049 83.8994 88.1502 83.8994 89.566Z" fill="#545254"/>
<path opacity="0.5758" d="M83.3945 89.533C83.3945 90.9088 73.4615 92.0212 61.2069 92.0212C48.9547 92.0212 39.0193 90.9088 39.0193 89.533C39.0193 88.1549 48.957 87.0425 61.2069 87.0425C73.4639 87.0425 83.3945 88.1573 83.3945 89.533Z" fill="#525152"/>
<path opacity="0.5909" d="M82.8919 89.5001C82.8919 90.8359 73.1855 91.9177 61.2069 91.9177C49.2331 91.9177 39.5219 90.8359 39.5219 89.5001C39.5219 88.162 49.2331 87.0778 61.2069 87.0778C73.1855 87.0778 82.8919 88.162 82.8919 89.5001Z" fill="#504F51"/>
<path opacity="0.6061" d="M82.3871 89.4648C82.3871 90.763 72.9071 91.8119 61.207 91.8119C49.5115 91.8119 40.0269 90.7606 40.0269 89.4648C40.0269 88.1667 49.5139 87.1131 61.207 87.1131C72.9071 87.1154 82.3871 88.1667 82.3871 89.4648Z" fill="#4F4D4F"/>
<path opacity="0.6212" d="M81.8845 89.4319C81.8845 90.6901 72.6287 91.7084 61.2069 91.7084C49.7899 91.7084 40.5294 90.6901 40.5294 89.4319C40.5294 88.1714 49.7899 87.1508 61.2069 87.1508C72.6287 87.1508 81.8845 88.1714 81.8845 89.4319Z" fill="#4D4B4D"/>
<path opacity="0.6364" d="M81.3796 89.3967C81.3796 90.6172 72.3503 91.6026 61.207 91.6026C50.0684 91.6026 41.0343 90.6149 41.0343 89.3967C41.0343 88.1761 50.0707 87.186 61.207 87.186C72.3503 87.1884 81.3796 88.1761 81.3796 89.3967Z" fill="#4B4A4B"/>
<path opacity="0.6515" d="M80.877 89.3637C80.877 90.5443 72.0718 91.5014 61.2069 91.5014C50.3467 91.5014 41.5368 90.5466 41.5368 89.3637C41.5368 88.1808 50.3467 87.2236 61.2069 87.2236C72.0718 87.2236 80.877 88.1808 80.877 89.3637Z" fill="#4A4849"/>
<path opacity="0.6667" d="M80.3722 89.3308C80.3722 90.4737 71.7935 91.3979 61.207 91.3979C50.6252 91.3979 42.0417 90.4737 42.0417 89.3308C42.0417 88.1878 50.6252 87.2612 61.207 87.2612C71.7935 87.2589 80.3722 88.1855 80.3722 89.3308Z" fill="#484648"/>
<path opacity="0.6818" d="M79.8673 89.2955C79.8673 90.3985 71.5151 91.2922 61.207 91.2922C50.9036 91.2922 42.5443 90.3985 42.5443 89.2955C42.5443 88.1902 50.9036 87.2966 61.207 87.2966C71.5151 87.2966 79.8673 88.1902 79.8673 89.2955Z" fill="#464446"/>
<path opacity="0.697" d="M79.3647 89.2626C79.3647 90.3279 71.2366 91.1887 61.2069 91.1887C51.182 91.1887 43.0492 90.3279 43.0492 89.2626C43.0492 88.1973 51.182 87.3342 61.2069 87.3342C71.2366 87.3318 79.3647 88.1949 79.3647 89.2626Z" fill="#454244"/>
<path opacity="0.7121" d="M78.8598 89.2273C78.8598 90.2527 70.9583 91.0828 61.207 91.0828C51.4604 91.0828 43.5518 90.2527 43.5518 89.2273C43.5518 88.1996 51.4604 87.3694 61.207 87.3694C70.9583 87.3694 78.8598 88.1996 78.8598 89.2273Z" fill="#434142"/>
<path opacity="0.7273" d="M78.3572 89.1944C78.3572 90.1821 70.6798 90.9794 61.2069 90.9794C51.7388 90.9794 44.0566 90.1821 44.0566 89.1944C44.0566 88.2067 51.7388 87.4047 61.2069 87.4047C70.6798 87.4047 78.3572 88.2067 78.3572 89.1944Z" fill="#413F40"/>
<path opacity="0.7424" d="M77.8523 89.1591C77.8523 90.1069 70.4014 90.8735 61.207 90.8735C52.0172 90.8735 44.5592 90.1069 44.5592 89.1591C44.5592 88.209 52.0172 87.44 61.207 87.44C70.4014 87.4424 77.8523 88.2114 77.8523 89.1591Z" fill="#403D3F"/>
<path opacity="0.7576" d="M77.3498 89.1262C77.3498 90.0363 70.1254 90.77 61.2069 90.77C52.2956 90.77 45.0641 90.0363 45.0641 89.1262C45.0641 88.216 52.2956 87.4776 61.2069 87.4776C70.123 87.4776 77.3498 88.216 77.3498 89.1262Z" fill="#3E3B3D"/>
<path opacity="0.7727" d="M76.8449 89.0933C76.8449 89.9634 69.8446 90.6666 61.2069 90.6666C52.574 90.6666 45.5667 89.9634 45.5667 89.0933C45.5667 88.2208 52.5716 87.5153 61.2069 87.5153C69.8446 87.5153 76.8449 88.2208 76.8449 89.0933Z" fill="#3C3A3B"/>
<path opacity="0.7879" d="M76.3423 89.058C76.3423 89.8905 69.5686 90.5608 61.2093 90.5608C52.8548 90.5608 46.0739 89.8882 46.0739 89.058C46.0739 88.2255 52.8548 87.5505 61.2093 87.5505C69.5662 87.5505 76.3423 88.2255 76.3423 89.058Z" fill="#3B3839"/>
<path opacity="0.803" d="M75.8374 89.025C75.8374 89.8176 69.2878 90.4596 61.2069 90.4596C53.1308 90.4596 46.5741 89.8199 46.5741 89.025C46.5741 88.2302 53.1284 87.5881 61.2069 87.5881C69.2878 87.5881 75.8374 88.2302 75.8374 89.025Z" fill="#393637"/>
<path opacity="0.8182" d="M75.3325 88.9898C75.3325 89.7447 69.0094 90.3538 61.2069 90.3538C53.4092 90.3538 47.079 89.7447 47.079 88.9898C47.079 88.2349 53.4092 87.6234 61.2069 87.6234C69.0094 87.6234 75.3325 88.2349 75.3325 88.9898Z" fill="#373436"/>
<path opacity="0.8333" d="M74.83 88.9569C74.83 89.6718 68.7334 90.2503 61.207 90.2503C53.6876 90.2503 47.5839 89.6742 47.5839 88.9569C47.5839 88.2396 53.6876 87.6611 61.207 87.6611C68.731 87.6611 74.83 88.2396 74.83 88.9569Z" fill="#363334"/>
<path opacity="0.8485" d="M74.325 88.924C74.325 89.6013 68.4526 90.1469 61.2069 90.1469C53.966 90.1469 48.0864 89.6013 48.0864 88.924C48.0864 88.2467 53.966 87.6964 61.2069 87.6964C68.4549 87.6964 74.325 88.2443 74.325 88.924Z" fill="#343132"/>
<path opacity="0.8636" d="M73.8225 88.8887C73.8225 89.526 68.1765 90.041 61.207 90.041C54.2444 90.041 48.5914 89.526 48.5914 88.8887C48.5914 88.249 54.2444 87.7316 61.207 87.7316C68.1765 87.7316 73.8225 88.249 73.8225 88.8887Z" fill="#322F30"/>
<path opacity="0.8788" d="M73.3176 88.8557C73.3176 89.4554 67.8958 89.9375 61.207 89.9375C54.5229 89.9375 49.0939 89.4554 49.0939 88.8557C49.0939 88.256 54.5205 87.7692 61.207 87.7692C67.8982 87.7692 73.3176 88.256 73.3176 88.8557Z" fill="#302D2E"/>
<path opacity="0.8939" d="M72.8151 88.8205C72.8151 89.3802 67.6197 89.8317 61.2069 89.8317C54.8012 89.8317 49.5988 89.3802 49.5988 88.8205C49.5988 88.2584 54.8012 87.8045 61.2069 87.8045C67.6197 87.8045 72.8151 88.2607 72.8151 88.8205Z" fill="#2F2B2D"/>
<path opacity="0.9091" d="M72.3102 88.7876C72.3102 89.3097 67.3413 89.7283 61.207 89.7283C55.0773 89.7283 50.1014 89.3097 50.1014 88.7876C50.1014 88.2655 55.0773 87.8422 61.207 87.8422C67.3413 87.8422 72.3102 88.2655 72.3102 88.7876Z" fill="#2D2A2B"/>
<path opacity="0.9242" d="M71.8052 88.7523C71.8052 89.2344 67.0605 89.6224 61.2069 89.6224C55.3557 89.6224 50.6063 89.2344 50.6063 88.7523C50.6063 88.2678 55.358 87.8774 61.2069 87.8774C67.0629 87.8774 71.8052 88.2702 71.8052 88.7523Z" fill="#2B2829"/>
<path opacity="0.9394" d="M71.3027 88.7193C71.3027 89.1638 66.7845 89.5189 61.207 89.5189C55.6341 89.5189 51.1088 89.1615 51.1088 88.7193C51.1088 88.2749 55.6341 87.915 61.207 87.915C66.7845 87.915 71.3027 88.2749 71.3027 88.7193Z" fill="#2A2627"/>
<path opacity="0.9545" d="M70.7978 88.6864C70.7978 89.0909 66.5037 89.4154 61.2069 89.4154C55.9125 89.4154 51.6137 89.0909 51.6137 88.6864C51.6137 88.2795 55.9149 87.9526 61.2069 87.9526C66.5061 87.9503 70.7978 88.2795 70.7978 88.6864Z" fill="#282425"/>
<path opacity="0.9697" d="M70.2953 88.6512C70.2953 89.018 66.2277 89.312 61.2069 89.312C56.1909 89.312 52.1163 89.018 52.1163 88.6512C52.1163 88.2843 56.1909 87.988 61.2069 87.988C66.2277 87.988 70.2953 88.2843 70.2953 88.6512Z" fill="#262324"/>
<path opacity="0.9848" d="M69.7903 88.6182C69.7903 88.9451 65.9493 89.2085 61.2069 89.2085C56.4693 89.2085 52.6212 88.9475 52.6212 88.6182C52.6212 88.289 56.4693 88.0233 61.2069 88.0233C65.9493 88.0233 69.7903 88.289 69.7903 88.6182Z" fill="#252122"/>
<path d="M69.2878 88.583C69.2878 88.8722 65.6709 89.1027 61.2069 89.1027C56.7477 89.1027 53.1237 88.8722 53.1237 88.583C53.1237 88.2937 56.7477 88.0585 61.2069 88.0585C65.6709 88.0609 69.2878 88.2937 69.2878 88.583Z" fill="#231F20"/>
</g>
<path d="M34.9188 72.9039C35.2585 73.6494 35.6502 74.4372 36.0985 75.2556C36.568 76.1116 37.0469 76.8948 37.5141 77.6073C34.5248 77.6073 31.5378 77.6073 28.5485 77.6073C28.1544 76.8242 27.7628 76.0387 27.3688 75.2556C26.9748 74.4725 26.5831 73.687 26.1891 72.9039C29.0982 72.9039 32.0097 72.9039 34.9188 72.9039Z" fill="url(#paint0_radial_968_490)"/>
<path d="M46.961 56.8321C47.6099 59.0286 48.3743 61.2275 49.3062 63.3488L42.0866 63.0054C41.2325 60.7948 40.5459 58.5065 39.9749 56.2653L46.961 56.8321Z" fill="url(#paint1_radial_968_490)"/>
<path d="M38.6654 57.6434C39.2128 59.9011 39.9017 62.1447 40.7299 64.3718L32.9652 63.9931C32.2597 61.6861 31.651 59.3555 31.1768 57.0532L38.6654 57.6434Z" fill="url(#paint2_radial_968_490)"/>
<path d="M29.3436 56.8392C29.8154 59.1838 30.3557 61.5191 31.0588 63.8238L22.7232 63.4052C22.1215 60.997 21.678 58.5982 21.3264 56.2206L29.3436 56.8392Z" fill="url(#paint3_radial_968_490)"/>
<path d="M36.8841 48.9938C37.297 51.2067 37.776 53.4127 38.4107 55.5904L30.5115 55.1012C29.9735 52.8271 29.5889 50.5647 29.2893 48.3212L36.8841 48.9938Z" fill="url(#paint4_radial_968_490)"/>
<path d="M50.04 66.4225C50.4104 67.2315 50.8021 68.0687 51.222 68.8448C50.7832 70.0254 50.3231 71.133 49.863 72.196L45.635 72.1067C44.5592 70.1759 43.5588 68.1087 42.792 66.0886L50.04 66.4225Z" fill="url(#paint5_radial_968_490)"/>
<path d="M31.8516 65.3101C32.5405 67.4149 33.3191 69.5409 34.2652 71.5916L25.4624 71.3823C24.6649 69.2375 23.9854 67.0504 23.4427 64.8939L31.8516 65.3101Z" fill="url(#paint6_radial_968_490)"/>
<path d="M49.4832 73.0285C49.0042 74.021 48.5512 74.9499 48.077 75.8083C47.4093 74.8252 46.784 73.9857 46.1659 72.9697L49.4832 73.0285Z" fill="#26A9E0"/>
<path d="M44.6276 72.9627C45.4204 74.282 46.3735 75.7448 47.3834 76.9536C47.1852 77.2687 47.0106 77.565 46.7912 77.8519L39.5738 77.859C38.354 76.2551 37.3253 74.5124 36.4359 72.8027L44.6276 72.9627Z" fill="url(#paint7_radial_968_490)"/>
<path d="M32.9604 83.2327L42.5843 83.0281C41.1522 84.1005 39.6186 84.7731 37.9883 85.0036C35.6714 84.9566 34.6545 84.3216 32.9604 83.2327Z" fill="url(#paint8_radial_968_490)"/>
<path d="M46.3004 78.5504C45.3944 79.8039 44.4223 80.8904 43.4125 81.7888C43.4125 81.7888 43.4125 81.7888 43.3913 81.7629C42.2328 80.921 40.9989 79.6651 40.1306 78.5739L46.3004 78.5504Z" fill="url(#paint9_radial_968_490)"/>
<path d="M38.3894 78.5857C39.4558 79.9168 40.6898 81.1726 42.0724 82.1932L32.2008 82.3696C30.9479 81.2666 29.8886 79.9403 28.992 78.5833L38.3894 78.5857Z" fill="url(#paint10_radial_968_490)"/>
<path d="M38.6937 57.6176C39.4535 61.0323 40.6473 64.8703 42.549 68.8848C43.0468 69.9383 43.5659 70.9402 44.092 71.8903C37.8892 71.7586 31.6864 71.6245 25.4812 71.4928C24.4832 69.2563 23.4734 66.5801 22.65 63.4969C21.9375 60.8348 21.501 58.3748 21.2344 56.2065C27.055 56.6769 32.8732 57.1472 38.6937 57.6176Z" fill="url(#paint11_radial_968_490)"/>
<path d="M73.7187 25.3988L58.168 39.7914L59.9116 37.3339L59.8644 36.0569L54.7351 36.071L55.0277 42.7852L48.5465 49.1631L57.137 50.0427C54.8555 69.0494 48.4545 84.9072 39.0878 86.2359L74.9054 85.0177C84.8219 84.1335 88.1533 72.2784 91.5721 53.4974L98.7233 54.1417L73.7187 25.3988ZM64.654 58.9981C65.2509 55.5246 68.8135 53.3328 72.6758 54.0618L70.9063 62.9255L64.2411 61.411L64.654 58.9981ZM62.9434 68.9577L63.9579 63.0431L70.5831 64.5411L69.4152 70.3923L62.9434 68.9577ZM77.5857 72.2031L71.1894 70.785L72.3998 64.9503L78.9447 66.4296L77.5857 72.2031ZM79.8743 62.4834L79.3198 64.8351L72.7348 63.3394L74.568 54.5016C78.3313 55.5551 80.6718 59.0945 79.8743 62.4834Z" fill="url(#paint12_radial_968_490)"/>
<path d="M74.1787 27.4589C75.9931 35.3678 75.4976 45.2051 74.5185 53.3375C74.5185 53.3375 78.3548 54.6262 79.9734 57.2343C81.0658 58.991 81.4433 60.9877 80.9973 62.8738L78.4846 73.5459L69.3987 71.5281C67.2351 76.2081 64.4864 80.5424 61.2069 84.4086C61.2069 84.4086 75.4316 83.7831 75.8114 83.7078C83.7295 82.1674 86.8887 72.5982 90.4207 53.1611L90.5835 52.2627L95.8921 52.7378L74.1787 27.4589Z" fill="url(#paint13_radial_968_490)"/>
<path d="M124.978 61.0253H115.793L113.908 66.8129H107.234L117.244 36.5813H124.311L134.322 66.8129H126.864L124.978 61.0253ZM117.794 55.0636H122.975L120.385 46.08L117.794 55.0636Z" fill="#08337F"/>
<path d="M143.743 67.0716C142.487 67.0716 141.4 66.9564 140.484 66.7259C139.569 66.4954 138.816 66.0721 138.226 65.4512C137.636 64.8327 137.198 63.9838 136.912 62.9043C136.624 61.8249 136.48 60.435 136.48 58.737V36.5813H142.525V57.7799C142.525 58.5019 142.565 59.1062 142.643 59.5978C142.721 60.0893 142.858 60.4773 143.056 60.7666C143.252 61.0558 143.533 61.2651 143.901 61.3945C144.266 61.5238 144.724 61.5897 145.274 61.5897C145.588 61.5897 145.849 61.5826 146.059 61.5685C146.269 61.5544 146.477 61.5332 146.687 61.5027V66.9446C145.901 67.0269 144.92 67.0716 143.743 67.0716Z" fill="#08337F"/>
<path d="M156.894 67.0716C155.636 67.0716 154.551 66.9564 153.635 66.7259C152.72 66.4954 151.967 66.0721 151.377 65.4512C150.788 64.8327 150.351 63.9838 150.063 62.9043C149.775 61.8249 149.632 60.435 149.632 58.737V36.5813H155.676V57.7799C155.676 58.5019 155.716 59.1062 155.794 59.5978C155.872 60.0893 156.011 60.4773 156.207 60.7666C156.403 61.0558 156.684 61.2651 157.052 61.3945C157.417 61.5238 157.875 61.5897 158.425 61.5897C158.739 61.5897 159.001 61.5826 159.211 61.5685C159.421 61.5544 159.628 61.5332 159.838 61.5027V66.9446C159.053 67.0269 158.071 67.0716 156.894 67.0716Z" fill="#08337F"/>
<path d="M162.585 43.9211H168.16V47.0301C168.318 46.6561 168.558 46.2516 168.886 45.8213C169.214 45.3886 169.599 44.9864 170.045 44.6125C170.488 44.2386 170.993 43.9352 171.557 43.7047C172.119 43.4742 172.727 43.359 173.383 43.359C173.827 43.359 174.181 43.3872 174.443 43.4437C174.705 43.5001 174.941 43.5589 175.151 43.6154V49.3183C175.018 49.2313 174.719 49.1325 174.247 49.0149C173.775 48.8997 173.225 48.8433 172.598 48.8433C171.21 48.8433 170.203 49.2901 169.575 50.1861C168.948 51.0821 168.634 52.1639 168.634 53.4315V66.8082H162.585V43.9211Z" fill="#08337F"/>
<path d="M187.12 67.3726C185.655 67.3726 184.279 67.1351 182.998 66.6601C181.714 66.185 180.589 65.4583 179.622 64.48C178.652 63.5017 177.895 62.2717 177.345 60.7878C176.795 59.3062 176.521 57.5706 176.521 55.5834V54.7203C176.521 52.8483 176.797 51.2068 177.345 49.7957C177.895 48.3847 178.654 47.2041 179.622 46.254C180.589 45.3039 181.714 44.5843 182.998 44.0951C184.279 43.606 185.655 43.3614 187.12 43.3614C188.585 43.3614 189.96 43.606 191.242 44.0951C192.523 44.5843 193.65 45.3039 194.618 46.254C195.585 47.2041 196.345 48.3847 196.895 49.7957C197.444 51.2068 197.718 52.8483 197.718 54.7203V55.5834C197.718 57.5424 197.444 59.2615 196.895 60.7431C196.345 62.227 195.585 63.457 194.618 64.4353C193.65 65.4136 192.523 66.1497 191.242 66.6389C189.96 67.1281 188.585 67.3726 187.12 67.3726ZM187.12 61.8884C188.533 61.8884 189.618 61.324 190.378 60.1928C191.138 59.0616 191.518 57.5259 191.518 55.5834V54.7132C191.518 52.9753 191.138 51.5619 190.378 50.473C189.618 49.3865 188.533 48.8433 187.12 48.8433C185.706 48.8433 184.621 49.3865 183.861 50.473C183.102 51.5595 182.722 52.9729 182.722 54.7132V55.5834C182.722 57.5824 183.102 59.1345 183.861 60.2351C184.621 61.3381 185.706 61.8884 187.12 61.8884Z" fill="#08337F"/>
<path d="M208.005 67.3726C205.624 67.3726 203.805 66.6248 202.548 65.1267C201.292 63.631 200.662 61.3545 200.662 58.302V43.9211H206.707V57.2978C206.707 58.7982 206.988 59.9388 207.552 60.7172C208.113 61.4956 209.024 61.886 210.279 61.886C211.641 61.886 212.641 61.4462 213.283 60.5667C213.925 59.6871 214.245 58.5959 214.245 57.2978V43.9211H220.29V66.8106H214.715V63.7016C214.191 64.7104 213.368 65.5735 212.242 66.2932C211.119 67.0128 209.706 67.3726 208.005 67.3726Z" fill="#08337F"/>
<path d="M224.219 43.9211H229.794V47.0301C230.317 46.0235 231.134 45.1581 232.247 44.4385C233.359 43.7188 234.845 43.359 236.702 43.359C239.189 43.359 241.067 44.0998 242.336 45.5838C243.605 47.0677 244.24 49.1749 244.24 51.9099V66.8105H238.195V53.3892C238.195 51.8888 237.901 50.7552 237.313 49.9909C236.723 49.2266 235.763 48.8433 234.428 48.8433C233.694 48.8433 233.066 48.9656 232.542 49.2125C232.019 49.4571 231.587 49.7816 231.247 50.1861C230.907 50.5906 230.657 51.0727 230.502 51.6371C230.343 52.1992 230.266 52.7848 230.266 53.3892V66.8105H224.221V43.9211H224.219Z" fill="#08337F"/>
<path d="M256.134 67.3726C254.772 67.3726 253.543 67.121 252.444 66.6177C251.344 66.1144 250.403 65.3736 249.617 64.393C248.831 63.4146 248.23 62.1894 247.812 60.7219C247.392 59.2544 247.185 57.54 247.185 55.5833V54.7203C247.185 51.0351 247.963 48.2201 249.52 46.2775C251.078 44.335 253.281 43.3614 256.136 43.3614C257.313 43.3614 258.432 43.6577 259.493 44.2456C260.553 44.8359 261.438 45.6919 262.143 46.8161V36.5813H268.188V66.8129H262.613V63.7039C262.351 64.1648 262.018 64.6187 261.612 65.0632C261.206 65.51 260.73 65.9051 260.18 66.2508C259.63 66.5965 259.015 66.8693 258.335 67.0716C257.651 67.2715 256.919 67.3726 256.134 67.3726ZM257.587 61.8884C258.868 61.8884 259.949 61.3992 260.827 60.4209C261.702 59.4425 262.141 58.0456 262.141 56.2324V54.0735C262.141 52.345 261.702 51.0445 260.827 50.1649C259.949 49.2877 258.871 48.848 257.587 48.848C256.33 48.848 255.317 49.3301 254.544 50.2943C253.772 51.2585 253.385 52.7354 253.385 54.7203V55.5833C253.385 57.6552 253.784 59.2262 254.581 60.2915C255.381 61.3545 256.381 61.8884 257.587 61.8884Z" fill="#08337F"/>
<path d="M224.226 80.1261C223.751 80.1261 223.265 80.0579 222.763 79.9238C222.26 79.7898 221.784 79.5475 221.328 79.1948L221.718 78.5833C222.173 78.8608 222.626 79.0443 223.077 79.1313C223.527 79.2183 223.893 79.263 224.171 79.263C224.377 79.263 224.598 79.2418 224.841 79.1995C225.082 79.1572 225.306 79.0937 225.509 79.0043C225.712 78.9149 225.884 78.795 226.026 78.6421C226.165 78.4893 226.236 78.3011 226.236 78.0801C226.236 77.8496 226.167 77.6615 226.026 77.518C225.887 77.3745 225.712 77.2617 225.504 77.177C225.294 77.0923 225.075 77.0312 224.841 76.9889C224.608 76.9465 224.395 76.9089 224.2 76.8713C223.921 76.8148 223.619 76.749 223.294 76.669C222.968 76.5914 222.666 76.4785 222.388 76.3351C222.109 76.1916 221.876 76.0011 221.692 75.766C221.505 75.5308 221.413 75.2321 221.413 74.8699C221.413 74.5007 221.505 74.1856 221.692 73.9245C221.878 73.6658 222.114 73.4565 222.402 73.299C222.69 73.1414 223.003 73.0262 223.343 72.9509C223.683 72.878 224.011 72.8404 224.325 72.8404C225.318 72.8404 226.16 73.1602 226.847 73.7999L226.512 74.4255C225.889 73.9434 225.165 73.7035 224.339 73.7035C224.089 73.7035 223.843 73.727 223.607 73.774C223.371 73.8211 223.159 73.8893 222.973 73.9833C222.786 74.0751 222.638 74.195 222.527 74.3384C222.416 74.4819 222.359 74.6465 222.359 74.8323C222.359 75.0463 222.428 75.2204 222.569 75.3591C222.708 75.4979 222.881 75.6107 223.086 75.7001C223.291 75.7895 223.501 75.8553 223.721 75.9024C223.938 75.9494 224.126 75.9847 224.285 76.0129C224.61 76.0693 224.945 76.1375 225.287 76.2222C225.632 76.3045 225.943 76.4221 226.222 76.5702C226.5 76.7184 226.731 76.9136 226.911 77.1535C227.092 77.3957 227.182 77.7038 227.182 78.0848C227.182 78.4657 227.09 78.7832 226.903 79.0443C226.717 79.303 226.481 79.5146 226.193 79.6769C225.905 79.8392 225.587 79.9544 225.24 80.025C224.893 80.0955 224.551 80.1261 224.226 80.1261Z" fill="#08337F"/>
<path d="M232.002 80.1261C231.455 80.1261 230.954 80.0344 230.504 79.8486C230.053 79.6628 229.666 79.4088 229.341 79.0843C229.015 78.7597 228.765 78.3764 228.588 77.9319C228.411 77.4874 228.324 77.0053 228.324 76.4879C228.324 75.9705 228.416 75.4884 228.602 75.044C228.789 74.5995 229.043 74.2162 229.369 73.8916C229.695 73.5671 230.077 73.3131 230.518 73.1273C230.959 72.9415 231.436 72.8498 231.945 72.8498C232.42 72.8498 232.866 72.925 233.283 73.0779C233.701 73.2308 234.064 73.4589 234.371 73.7646C234.678 74.0703 234.921 74.449 235.102 74.9029C235.284 75.3567 235.374 75.8835 235.374 76.4856C235.374 76.5679 235.374 76.6432 235.374 76.7066C235.374 76.7725 235.364 76.8407 235.345 76.9159H229.324C229.416 77.6097 229.713 78.1765 230.216 78.6116C230.716 79.0466 231.363 79.2653 232.153 79.2653C232.542 79.2653 232.953 79.2065 233.38 79.0913C233.807 78.9761 234.21 78.8067 234.593 78.5833L234.982 79.1948C234.6 79.4629 234.168 79.6863 233.687 79.8603C233.205 80.0367 232.644 80.1261 232.002 80.1261ZM234.413 76.0552C234.394 75.693 234.319 75.3685 234.184 75.0769C234.05 74.7853 233.873 74.5407 233.656 74.3408C233.437 74.1409 233.182 73.9857 232.889 73.8752C232.597 73.7646 232.283 73.7082 231.948 73.7082C231.603 73.7082 231.28 73.767 230.98 73.8822C230.678 73.9974 230.414 74.1574 230.185 74.362C229.959 74.5666 229.77 74.8111 229.621 75.0981C229.473 75.385 229.376 75.7048 229.329 76.0576H234.413V76.0552Z" fill="#08337F"/>
<path d="M237.018 73.0144H237.993V74.2655C238.217 73.8399 238.509 73.4965 238.87 73.2378C239.234 72.9791 239.691 72.8498 240.25 72.8498C240.604 72.8498 240.932 72.9086 241.239 73.0238C241.546 73.1391 241.829 73.3037 242.088 73.5177L241.586 74.1973C241.371 74.0398 241.147 73.9292 240.911 73.8634C240.675 73.7975 240.434 73.767 240.194 73.767C239.878 73.767 239.585 73.8281 239.316 73.9481C239.047 74.068 238.814 74.242 238.62 74.4701C238.424 74.6983 238.271 74.9781 238.16 75.3097C238.049 75.6413 237.993 76.0176 237.993 76.4338V79.9615H237.018V73.0144Z" fill="#08337F"/>
<path d="M242.65 73.0145H243.709L246.092 78.8891L248.475 73.0145H249.535L246.663 79.9591H245.521L242.65 73.0145Z" fill="#08337F"/>
<path d="M251.498 71.514C251.311 71.514 251.151 71.4482 251.016 71.3188C250.882 71.1895 250.813 71.0272 250.813 70.832C250.813 70.6368 250.882 70.4746 251.016 70.3452C251.151 70.2159 251.311 70.15 251.498 70.15C251.684 70.15 251.844 70.2159 251.979 70.3452C252.113 70.4746 252.182 70.6368 252.182 70.832C252.182 71.0272 252.113 71.1895 251.979 71.3188C251.844 71.4482 251.684 71.514 251.498 71.514ZM251.009 73.0144H251.984V79.9591H251.009V73.0144Z" fill="#08337F"/>
<path d="M257.184 80.1261C256.672 80.1261 256.205 80.0344 255.777 79.8486C255.35 79.6628 254.98 79.4088 254.669 79.0843C254.357 78.7597 254.116 78.3764 253.944 77.9319C253.772 77.4874 253.687 77.0053 253.687 76.4879C253.687 75.9705 253.777 75.4884 253.958 75.044C254.14 74.5995 254.39 74.2162 254.711 73.8916C255.032 73.5671 255.407 73.3131 255.839 73.1273C256.271 72.9415 256.742 72.8498 257.254 72.8498C257.738 72.8498 258.198 72.9321 258.635 73.0991C259.071 73.266 259.47 73.5012 259.833 73.807L259.498 74.4325C259.154 74.2185 258.816 74.0515 258.481 73.9245C258.146 73.7999 257.785 73.7364 257.394 73.7364C256.995 73.7364 256.627 73.807 256.292 73.9457C255.957 74.0845 255.671 74.2773 255.435 74.5219C255.199 74.7665 255.015 75.0557 254.886 75.3897C254.756 75.7236 254.69 76.0881 254.69 76.4879C254.69 76.8877 254.751 77.2522 254.871 77.5862C254.992 77.9201 255.169 78.2094 255.402 78.454C255.634 78.6986 255.914 78.8914 256.238 79.0302C256.563 79.1689 256.924 79.2395 257.325 79.2395C257.632 79.2395 257.988 79.1901 258.399 79.0937C258.807 78.9972 259.222 78.8279 259.64 78.5857L260.029 79.1971C259.703 79.4182 259.309 79.6299 258.845 79.8298C258.378 80.0273 257.825 80.1261 257.184 80.1261Z" fill="#08337F"/>
<path d="M264.668 80.1261C264.12 80.1261 263.62 80.0344 263.169 79.8486C262.719 79.6628 262.332 79.4088 262.006 79.0843C261.681 78.7597 261.431 78.3764 261.254 77.9319C261.077 77.4874 260.989 77.0053 260.989 76.4879C260.989 75.9705 261.081 75.4884 261.268 75.044C261.454 74.5995 261.709 74.2162 262.035 73.8916C262.36 73.5671 262.742 73.3131 263.184 73.1273C263.625 72.9415 264.101 72.8498 264.611 72.8498C265.085 72.8498 265.531 72.925 265.949 73.0779C266.366 73.2308 266.73 73.4589 267.036 73.7646C267.343 74.0703 267.586 74.449 267.768 74.9029C267.95 75.3567 268.039 75.8835 268.039 76.4856C268.039 76.5679 268.039 76.6432 268.039 76.7066C268.039 76.7725 268.03 76.8407 268.011 76.9159H261.99C262.082 77.6097 262.379 78.1765 262.882 78.6116C263.384 79.0466 264.028 79.2653 264.819 79.2653C265.208 79.2653 265.618 79.2065 266.046 79.0913C266.473 78.9761 266.876 78.8067 267.258 78.5833L267.648 79.1948C267.265 79.4629 266.834 79.6863 266.352 79.8603C265.871 80.0367 265.309 80.1261 264.668 80.1261ZM267.079 76.0552C267.06 75.693 266.985 75.3685 266.85 75.0769C266.716 74.7853 266.539 74.5407 266.322 74.3408C266.102 74.1409 265.847 73.9857 265.555 73.8752C265.262 73.7646 264.948 73.7082 264.613 73.7082C264.269 73.7082 263.946 73.767 263.644 73.8822C263.342 73.9974 263.077 74.1574 262.849 74.362C262.62 74.5666 262.433 74.8111 262.285 75.0981C262.136 75.385 262.039 75.7048 261.992 76.0576H267.079V76.0552Z" fill="#08337F"/>
<path d="M162.981 36.8658H165.123C165.317 36.8658 165.501 36.8988 165.678 36.967C165.855 37.0352 166.006 37.1222 166.138 37.2351C166.27 37.348 166.374 37.4773 166.452 37.6278C166.529 37.7783 166.569 37.9359 166.569 38.1052C166.569 38.2581 166.536 38.4062 166.47 38.5473C166.404 38.6884 166.315 38.8154 166.199 38.9283C166.083 39.0412 165.947 39.1306 165.791 39.1988C165.633 39.267 165.463 39.3069 165.284 39.314L166.683 40.9955H166.102L164.736 39.3446H163.465V40.9955H162.979V36.8658H162.981ZM165.123 38.9424C165.258 38.9424 165.383 38.9213 165.498 38.8766C165.614 38.8343 165.713 38.7731 165.796 38.6979C165.878 38.6202 165.944 38.5309 165.994 38.4298C166.043 38.3286 166.069 38.2204 166.069 38.1052C166.069 37.99 166.043 37.8841 165.994 37.7807C165.944 37.6772 165.878 37.5902 165.796 37.5126C165.713 37.435 165.614 37.3762 165.498 37.3338C165.383 37.2915 165.258 37.268 165.123 37.268H163.467V38.9424H165.123Z" fill="#08337F"/>
<path d="M169.903 41.0637C169.615 41.0637 169.354 41.0214 169.115 40.9367C168.879 40.852 168.676 40.7345 168.507 40.5863C168.337 40.4381 168.207 40.2618 168.115 40.0595C168.023 39.8573 167.976 39.6385 167.976 39.401V36.8658H168.483V39.401C168.483 39.5703 168.516 39.7303 168.582 39.8784C168.648 40.0289 168.74 40.1583 168.863 40.2712C168.985 40.384 169.134 40.4734 169.309 40.5393C169.486 40.6051 169.681 40.6404 169.903 40.6404C170.125 40.6404 170.323 40.6075 170.498 40.5393C170.675 40.4734 170.823 40.384 170.944 40.2712C171.066 40.1583 171.158 40.0289 171.224 39.8784C171.291 39.7279 171.324 39.5703 171.324 39.401V36.8658H171.831V39.401C171.831 39.6362 171.784 39.8549 171.692 40.0595C171.6 40.2618 171.468 40.4381 171.3 40.5863C171.13 40.7368 170.927 40.852 170.691 40.9367C170.453 41.0214 170.191 41.0637 169.903 41.0637Z" fill="#08337F"/>
<path d="M173.527 36.8658H173.933L176.92 40.2147V36.8658H177.406V40.9931H177L174.013 37.6443V40.9931H173.527V36.8658Z" fill="#08337F"/>
<path d="M180.962 40.9931H179.171V36.8658H180.962C181.299 36.8658 181.615 36.9176 181.908 37.0211C182.2 37.1245 182.455 37.268 182.672 37.4514C182.889 37.6349 183.059 37.8512 183.182 38.1052C183.305 38.3592 183.368 38.632 183.368 38.9283C183.368 39.2246 183.307 39.4974 183.182 39.7514C183.057 40.0054 182.887 40.2241 182.672 40.4052C182.457 40.5863 182.2 40.7321 181.908 40.8356C181.615 40.9414 181.301 40.9931 180.962 40.9931ZM179.678 40.5816H180.962C181.24 40.5816 181.497 40.5416 181.728 40.4617C181.96 40.3817 182.158 40.2665 182.323 40.1207C182.488 39.9725 182.616 39.7985 182.705 39.5962C182.795 39.394 182.84 39.1729 182.84 38.933C182.84 38.6884 182.795 38.4674 182.705 38.2675C182.616 38.0676 182.488 37.8936 182.323 37.7454C182.158 37.5972 181.96 37.4844 181.728 37.4044C181.497 37.3244 181.24 37.2845 180.962 37.2845H179.678V40.5816Z" fill="#08337F"/>
<path d="M191.428 41.0637C191.14 41.0637 190.878 41.0214 190.64 40.9367C190.404 40.852 190.201 40.7345 190.031 40.5863C189.861 40.4381 189.731 40.2618 189.639 40.0595C189.547 39.8573 189.5 39.6385 189.5 39.401V36.8658H190.008V39.401C190.008 39.5703 190.041 39.7303 190.107 39.8784C190.173 40.0289 190.265 40.1583 190.387 40.2712C190.51 40.384 190.659 40.4734 190.833 40.5393C191.01 40.6051 191.206 40.6404 191.428 40.6404C191.65 40.6404 191.848 40.6075 192.022 40.5393C192.199 40.4734 192.348 40.384 192.468 40.2712C192.591 40.1583 192.683 40.0289 192.749 39.8784C192.815 39.7279 192.848 39.5703 192.848 39.401V36.8658H193.355V39.401C193.355 39.6362 193.308 39.8549 193.216 40.0595C193.124 40.2618 192.992 40.4381 192.825 40.5863C192.655 40.7368 192.452 40.852 192.216 40.9367C191.978 41.0214 191.716 41.0637 191.428 41.0637Z" fill="#08337F"/>
<path d="M195.052 40.9931V36.8658H195.526L197.418 39.1941L199.311 36.8658H199.785V40.9931H199.278V37.6325L197.451 39.8737H197.383L195.557 37.6325V40.9931H195.052Z" fill="#08337F"/>
<path d="M206.212 36.8658H206.719V40.9931H206.212V36.8658Z" fill="#08337F"/>
<path d="M208.484 36.8658H208.991V38.6649H211.728V36.8658H212.235V40.9931H211.728V39.0765H208.991V40.9931H208.484V36.8658Z" fill="#08337F"/>
<path d="M214 36.8658H216.142C216.336 36.8658 216.52 36.8988 216.697 36.967C216.874 37.0352 217.025 37.1222 217.157 37.2351C217.289 37.348 217.393 37.4773 217.471 37.6278C217.548 37.7783 217.589 37.9359 217.589 38.1052C217.589 38.2581 217.556 38.4062 217.489 38.5473C217.423 38.6884 217.334 38.8154 217.218 38.9283C217.103 39.0412 216.966 39.1306 216.81 39.1988C216.652 39.267 216.482 39.3069 216.303 39.314L217.702 40.9955H217.121L215.755 39.3446H214.484V40.9955H213.998V36.8658H214ZM216.142 38.9424C216.277 38.9424 216.402 38.9213 216.517 38.8766C216.633 38.8343 216.732 38.7731 216.815 38.6979C216.897 38.6202 216.963 38.5309 217.013 38.4298C217.062 38.3286 217.088 38.2204 217.088 38.1052C217.088 37.99 217.062 37.8841 217.013 37.7807C216.963 37.6772 216.897 37.5902 216.815 37.5126C216.732 37.435 216.633 37.3762 216.517 37.3338C216.402 37.2915 216.277 37.268 216.142 37.268H214.486V38.9424H216.142Z" fill="#08337F"/>
<path d="M223.485 40.6404L226.561 37.2798H223.553V36.8682H227.203V37.221L224.126 40.5816H227.269V40.9932H223.482V40.6404H223.485Z" fill="#08337F"/>
<path d="M230.65 41.0637C230.362 41.0637 230.1 41.0214 229.862 40.9367C229.626 40.852 229.423 40.7345 229.253 40.5863C229.083 40.4381 228.954 40.2618 228.862 40.0595C228.77 39.8573 228.722 39.6385 228.722 39.401V36.8658H229.23V39.401C229.23 39.5703 229.263 39.7303 229.329 39.8784C229.395 40.0289 229.487 40.1583 229.61 40.2712C229.732 40.384 229.881 40.4734 230.056 40.5393C230.232 40.6051 230.428 40.6404 230.65 40.6404C230.872 40.6404 231.07 40.6075 231.245 40.5393C231.422 40.4734 231.57 40.384 231.691 40.2712C231.813 40.1583 231.905 40.0289 231.971 39.8784C232.037 39.7279 232.07 39.5703 232.07 39.401V36.8658H232.578V39.401C232.578 39.6362 232.531 39.8549 232.438 40.0595C232.346 40.2618 232.214 40.4381 232.047 40.5863C231.877 40.7368 231.674 40.852 231.438 40.9367C231.202 41.0214 230.94 41.0637 230.65 41.0637Z" fill="#08337F"/>
<path d="M234.274 36.8658H234.781V38.6649H237.518V36.8658H238.026V40.9931H237.518V39.0765H234.781V40.9931H234.274V36.8658Z" fill="#08337F"/>
<path d="M241.326 36.8658H241.867L243.929 40.9931H243.388L242.82 39.8431H240.373L239.804 40.9931H239.264L241.326 36.8658ZM240.569 39.4434H242.624L241.595 37.3503L240.569 39.4434Z" fill="#08337F"/>
<path d="M246.89 41.0637C246.602 41.0637 246.34 41.0214 246.102 40.9367C245.866 40.852 245.663 40.7345 245.493 40.5863C245.323 40.4381 245.193 40.2618 245.101 40.0595C245.009 39.8573 244.962 39.6385 244.962 39.401V36.8658H245.469V39.401C245.469 39.5703 245.502 39.7303 245.568 39.8784C245.635 40.0289 245.727 40.1583 245.849 40.2712C245.972 40.384 246.121 40.4734 246.295 40.5393C246.472 40.6051 246.668 40.6404 246.89 40.6404C247.111 40.6404 247.31 40.6075 247.484 40.5393C247.661 40.4734 247.81 40.384 247.93 40.2712C248.053 40.1583 248.145 40.0289 248.211 39.8784C248.277 39.7279 248.31 39.5703 248.31 39.401V36.8658H248.817V39.401C248.817 39.6362 248.77 39.8549 248.678 40.0595C248.586 40.2618 248.454 40.4381 248.286 40.5863C248.117 40.7368 247.914 40.852 247.678 40.9367C247.439 41.0214 247.178 41.0637 246.89 41.0637Z" fill="#08337F"/>
<path d="M251.946 41.0637C251.625 41.0637 251.309 41.0308 250.995 40.9626C250.681 40.8967 250.403 40.7886 250.16 40.6381L250.349 40.3441C250.492 40.4029 250.639 40.4523 250.785 40.4922C250.931 40.5322 251.075 40.5628 251.214 40.5863C251.354 40.6098 251.488 40.6263 251.618 40.6357C251.745 40.6451 251.863 40.6498 251.967 40.6498C252.13 40.6498 252.297 40.6381 252.47 40.6145C252.644 40.591 252.802 40.5534 252.946 40.4993C253.09 40.4452 253.21 40.3747 253.305 40.2876C253.399 40.2006 253.446 40.0901 253.446 39.9608C253.446 39.8314 253.399 39.7209 253.307 39.6268C253.215 39.5351 253.1 39.4551 252.963 39.3916C252.826 39.3258 252.677 39.2717 252.517 39.2294C252.356 39.187 252.212 39.1471 252.08 39.1118C251.892 39.0647 251.686 39.0107 251.469 38.9495C251.25 38.8884 251.047 38.8131 250.861 38.719C250.674 38.6273 250.516 38.5121 250.391 38.378C250.264 38.2416 250.202 38.0747 250.202 37.8748C250.202 37.6819 250.259 37.5173 250.372 37.3833C250.485 37.2492 250.632 37.1363 250.811 37.0493C250.99 36.9623 251.193 36.8988 251.415 36.8588C251.639 36.8165 251.861 36.7977 252.08 36.7977C252.401 36.7977 252.696 36.8306 252.97 36.8988C253.243 36.9646 253.515 37.0681 253.784 37.2045L253.621 37.5055C253.383 37.4162 253.135 37.3433 252.878 37.2892C252.621 37.2351 252.359 37.2092 252.094 37.2092C251.915 37.2092 251.741 37.2233 251.571 37.2539C251.401 37.2845 251.252 37.3268 251.125 37.3833C250.997 37.4397 250.894 37.5102 250.818 37.5926C250.743 37.6749 250.702 37.7666 250.702 37.8701C250.702 37.9876 250.752 38.0911 250.851 38.1805C250.95 38.2699 251.07 38.3451 251.212 38.411C251.354 38.4768 251.502 38.5285 251.656 38.5709C251.809 38.6132 251.936 38.6461 252.04 38.6744C252.257 38.7284 252.477 38.7872 252.703 38.8507C252.927 38.9142 253.133 38.9918 253.319 39.0859C253.503 39.18 253.654 39.2976 253.772 39.4363C253.89 39.5751 253.949 39.7491 253.949 39.9584C253.949 40.1701 253.888 40.3488 253.763 40.4922C253.638 40.6357 253.479 40.7486 253.286 40.8333C253.092 40.9179 252.878 40.9767 252.639 41.012C252.401 41.0473 252.172 41.0637 251.946 41.0637Z" fill="#08337F"/>
<path d="M255.4 36.8658H258.59V37.2656H255.886V38.6696H257.981V39.0694H255.886V40.591H258.658V40.9931H255.4V36.8658Z" fill="#08337F"/>
<defs>
<radialGradient id="paint0_radial_968_490" cx="0" cy="0" r="1" gradientUnits="userSpaceOnUse" gradientTransform="translate(62.7641 67.2336) scale(34.9515 34.8384)">
<stop stop-color="white"/>
<stop offset="0.6791" stop-color="#EC1C24"/>
<stop offset="1" stop-color="#931216"/>
</radialGradient>
<radialGradient id="paint1_radial_968_490" cx="0" cy="0" r="1" gradientUnits="userSpaceOnUse" gradientTransform="translate(58.4135 67.8703) scale(30.3557 30.2575)">
<stop stop-color="white"/>
<stop offset="0.6791" stop-color="#EC1C24"/>
<stop offset="1" stop-color="#931216"/>
</radialGradient>
<radialGradient id="paint2_radial_968_490" cx="0" cy="0" r="1" gradientUnits="userSpaceOnUse" gradientTransform="translate(58.4135 67.8703) scale(30.3558 30.2576)">
<stop stop-color="white"/>
<stop offset="0.492" stop-color="#F37920"/>
<stop offset="1" stop-color="#ED3024"/>
</radialGradient>
<radialGradient id="paint3_radial_968_490" cx="0" cy="0" r="1" gradientUnits="userSpaceOnUse" gradientTransform="translate(58.4136 67.8703) scale(30.3559 30.2577)">
<stop stop-color="white"/>
<stop offset="0.6791" stop-color="#EC1C24"/>
<stop offset="1" stop-color="#931216"/>
</radialGradient>
<radialGradient id="paint4_radial_968_490" cx="0" cy="0" r="1" gradientUnits="userSpaceOnUse" gradientTransform="translate(58.4135 67.8704) scale(30.3558 30.2576)">
<stop stop-color="white"/>
<stop offset="0.492" stop-color="#8BC53F"/>
<stop offset="1" stop-color="#008941"/>
</radialGradient>
<radialGradient id="paint5_radial_968_490" cx="0" cy="0" r="1" gradientUnits="userSpaceOnUse" gradientTransform="translate(58.4135 67.8703) scale(30.3558 30.2576)">
<stop stop-color="white"/>
<stop offset="0.6791" stop-color="#EC1C24"/>
<stop offset="1" stop-color="#931216"/>
</radialGradient>
<radialGradient id="paint6_radial_968_490" cx="0" cy="0" r="1" gradientUnits="userSpaceOnUse" gradientTransform="translate(58.4135 67.8703) scale(30.3559 30.2577)">
<stop stop-color="white"/>
<stop offset="0.492" stop-color="#F37920"/>
<stop offset="1" stop-color="#ED3024"/>
</radialGradient>
<radialGradient id="paint7_radial_968_490" cx="0" cy="0" r="1" gradientUnits="userSpaceOnUse" gradientTransform="translate(58.4135 67.8703) scale(30.3557 30.2574)">
<stop stop-color="white"/>
<stop offset="0.492" stop-color="#F37920"/>
<stop offset="1" stop-color="#ED3024"/>
</radialGradient>
<radialGradient id="paint8_radial_968_490" cx="0" cy="0" r="1" gradientUnits="userSpaceOnUse" gradientTransform="translate(58.4135 67.8704) scale(30.3557 30.2576)">
<stop stop-color="white"/>
<stop offset="0.492" stop-color="#8BC53F"/>
<stop offset="1" stop-color="#008941"/>
</radialGradient>
<radialGradient id="paint9_radial_968_490" cx="0" cy="0" r="1" gradientUnits="userSpaceOnUse" gradientTransform="translate(58.4135 67.8704) scale(30.3557 30.2574)">
<stop stop-color="white"/>
<stop offset="0.6791" stop-color="#EC1C24"/>
<stop offset="1" stop-color="#931216"/>
</radialGradient>
<radialGradient id="paint10_radial_968_490" cx="0" cy="0" r="1" gradientUnits="userSpaceOnUse" gradientTransform="translate(58.4136 67.8702) scale(30.3559 30.2577)">
<stop stop-color="white"/>
<stop offset="0.492" stop-color="#00BCF1"/>
<stop offset="1" stop-color="#0060AE"/>
</radialGradient>
<radialGradient id="paint11_radial_968_490" cx="0" cy="0" r="1" gradientUnits="userSpaceOnUse" gradientTransform="translate(74.8267 62.1182) scale(65.8165 65.6034)">
<stop stop-color="white"/>
<stop offset="0.492" stop-color="#00BCF1"/>
<stop offset="1" stop-color="#0060AE"/>
</radialGradient>
<radialGradient id="paint12_radial_968_490" cx="0" cy="0" r="1" gradientUnits="userSpaceOnUse" gradientTransform="translate(21.9589 5.79558) scale(85.28 85.004)">
<stop stop-color="white"/>
<stop offset="0.6791" stop-color="#0074BB"/>
<stop offset="1" stop-color="#2B2B80"/>
</radialGradient>
<radialGradient id="paint13_radial_968_490" cx="0" cy="0" r="1" gradientUnits="userSpaceOnUse" gradientTransform="translate(97.1749 26.5026) rotate(-10.8443) scale(58.1567 61.0671)">
<stop stop-color="white"/>
<stop offset="0.6791" stop-color="#0074BB"/>
<stop offset="1" stop-color="#2B2B80"/>
</radialGradient>
</defs>
</svg>
