<?xml version="1.0" encoding="utf-8"?>
<!-- Generator: Adobe Illustrator 28.1.0, SVG Export Plug-In . SVG Version: 6.00 Build 0)  -->
<svg version="1.1" id="Слой_1" xmlns="http://www.w3.org/2000/svg" xmlns:xlink="http://www.w3.org/1999/xlink" x="0px" y="0px"
	 viewBox="0 0 1280 489" style="enable-background:new 0 0 1280 489;" xml:space="preserve">
<style type="text/css">
	.st0{opacity:0.35;}
	.st1{opacity:0;fill:#929497;}
	.st2{opacity:0.0152;fill:#909295;}
	.st3{opacity:0.0303;fill:#8F9093;}
	.st4{opacity:0.0455;fill:#8D8F92;}
	.st5{opacity:0.0606;fill:#8B8D90;}
	.st6{opacity:0.0758;fill:#8A8B8E;}
	.st7{opacity:0.0909;fill:#88898C;}
	.st8{opacity:0.1061;fill:#86888A;}
	.st9{opacity:0.1212;fill:#858689;}
	.st10{opacity:0.1364;fill:#838487;}
	.st11{opacity:0.1515;fill:#818285;}
	.st12{opacity:0.1667;fill:#7F8083;}
	.st13{opacity:0.1818;fill:#7E7F81;}
	.st14{opacity:0.197;fill:#7C7D80;}
	.st15{opacity:0.2121;fill:#7A7B7E;}
	.st16{opacity:0.2273;fill:#79797C;}
	.st17{opacity:0.2424;fill:#77787A;}
	.st18{opacity:0.2576;fill:#757678;}
	.st19{opacity:0.2727;fill:#747477;}
	.st20{opacity:0.2879;fill:#727275;}
	.st21{opacity:0.303;fill:#707173;}
	.st22{opacity:0.3182;fill:#6F6F71;}
	.st23{opacity:0.3333;fill:#6D6D6F;}
	.st24{opacity:0.3485;fill:#6B6B6E;}
	.st25{opacity:0.3636;fill:#6A696C;}
	.st26{opacity:0.3788;fill:#68686A;}
	.st27{opacity:0.3939;fill:#666668;}
	.st28{opacity:0.4091;fill:#656466;}
	.st29{opacity:0.4242;fill:#636265;}
	.st30{opacity:0.4394;fill:#616163;}
	.st31{opacity:0.4545;fill:#605F61;}
	.st32{opacity:0.4697;fill:#5E5D5F;}
	.st33{opacity:0.4848;fill:#5C5B5D;}
	.st34{opacity:0.5;fill:#5A5A5C;}
	.st35{opacity:0.5152;fill:#59585A;}
	.st36{opacity:0.5303;fill:#575658;}
	.st37{opacity:0.5455;fill:#555456;}
	.st38{opacity:0.5606;fill:#545254;}
	.st39{opacity:0.5758;fill:#525152;}
	.st40{opacity:0.5909;fill:#504F51;}
	.st41{opacity:0.6061;fill:#4F4D4F;}
	.st42{opacity:0.6212;fill:#4D4B4D;}
	.st43{opacity:0.6364;fill:#4B4A4B;}
	.st44{opacity:0.6515;fill:#4A4849;}
	.st45{opacity:0.6667;fill:#484648;}
	.st46{opacity:0.6818;fill:#464446;}
	.st47{opacity:0.697;fill:#454244;}
	.st48{opacity:0.7121;fill:#434142;}
	.st49{opacity:0.7273;fill:#413F40;}
	.st50{opacity:0.7424;fill:#403D3F;}
	.st51{opacity:0.7576;fill:#3E3B3D;}
	.st52{opacity:0.7727;fill:#3C3A3B;}
	.st53{opacity:0.7879;fill:#3B3839;}
	.st54{opacity:0.803;fill:#393637;}
	.st55{opacity:0.8182;fill:#373436;}
	.st56{opacity:0.8333;fill:#363334;}
	.st57{opacity:0.8485;fill:#343132;}
	.st58{opacity:0.8636;fill:#322F30;}
	.st59{opacity:0.8788;fill:#302D2E;}
	.st60{opacity:0.8939;fill:#2F2B2D;}
	.st61{opacity:0.9091;fill:#2D2A2B;}
	.st62{opacity:0.9242;fill:#2B2829;}
	.st63{opacity:0.9394;fill:#2A2627;}
	.st64{opacity:0.9545;fill:#282425;}
	.st65{opacity:0.9697;fill:#262324;}
	.st66{opacity:0.9848;fill:#252122;}
	.st67{fill:#231F20;}
	.st68{fill:url(#SVGID_1_);}
	.st69{fill:url(#SVGID_00000168118875396028727840000011397897285449977522_);}
	.st70{fill:url(#SVGID_00000054964105422578561810000010661409453287502260_);}
	.st71{fill:url(#SVGID_00000004536053124115726970000012153798228880062140_);}
	.st72{fill:url(#SVGID_00000129206027926618103830000013779054378854848643_);}
	.st73{fill:url(#SVGID_00000047781485042829402650000009387305728444532911_);}
	.st74{fill:url(#SVGID_00000161611958228230287630000014215600099610541500_);}
	.st75{fill:#26A9E0;}
	.st76{fill:url(#SVGID_00000134956058737815558760000014747992160514720185_);}
	.st77{fill:url(#SVGID_00000137852245619189154910000014137980963032661660_);}
	.st78{fill:url(#SVGID_00000127018423574789426260000003849936698911693953_);}
	.st79{fill:url(#SVGID_00000075137109621117468350000008914063092481231779_);}
	.st80{fill:url(#SVGID_00000158749561053335043980000007816952190847183012_);}
	.st81{fill:url(#SVGID_00000079447613819650779810000016859815690315304070_);}
	.st82{fill:url(#SVGID_00000178890707459471472430000016492821966249165474_);}
	.st83{fill:#08337F;}
</style>
<g>
	<g class="st0">
		<path class="st1" d="M434.62,386.19c0,12.12-78.43,21.94-175.2,21.94c-96.75,0-175.19-9.83-175.19-21.94
			c0-12.13,78.43-21.95,175.19-21.95C356.19,364.24,434.62,374.06,434.62,386.19z"/>
		<path class="st2" d="M432.48,386.04c0,11.95-77.47,21.64-173.06,21.64c-95.57,0-173.05-9.69-173.05-21.64
			c0-11.96,77.48-21.65,173.05-21.65C355.01,364.39,432.48,374.08,432.48,386.04z"/>
		<path class="st3" d="M430.35,385.9c0,11.79-76.51,21.35-170.93,21.35c-94.39,0-170.92-9.56-170.92-21.35
			c0-11.8,76.52-21.35,170.92-21.35C353.83,364.55,430.35,374.1,430.35,385.9z"/>
		<path class="st4" d="M428.21,385.76c0,11.62-75.56,21.05-168.79,21.05c-93.21,0-168.78-9.43-168.78-21.05
			c0-11.63,75.57-21.05,168.78-21.05C352.65,364.7,428.21,374.12,428.21,385.76z"/>
		<path class="st5" d="M426.08,385.61c0,11.46-74.6,20.75-166.65,20.75c-92.03,0-166.64-9.29-166.64-20.75
			c0-11.47,74.61-20.75,166.64-20.75C351.47,364.86,426.08,374.14,426.08,385.61z"/>
		<path class="st6" d="M423.94,385.47c0,11.29-73.65,20.45-164.52,20.45c-90.85,0-164.51-9.16-164.51-20.45
			c0-11.3,73.66-20.45,164.51-20.45C350.29,365.01,423.94,374.16,423.94,385.47z"/>
		<path class="st7" d="M421.8,385.32c0,11.13-72.69,20.15-162.38,20.15c-89.67,0-162.37-9.02-162.37-20.15
			c0-11.14,72.7-20.16,162.37-20.16C349.11,365.17,421.8,374.18,421.8,385.32z"/>
		<path class="st8" d="M419.67,385.18c0,10.96-71.73,19.85-160.25,19.85c-88.49,0-160.24-8.89-160.24-19.85
			c0-10.97,71.74-19.86,160.24-19.86C347.93,365.32,419.67,374.21,419.67,385.18z"/>
		<path class="st9" d="M417.53,385.04c0,10.8-70.78,19.55-158.11,19.55c-87.31,0-158.1-8.76-158.1-19.55
			c0-10.81,70.79-19.56,158.1-19.56C346.75,365.48,417.53,374.23,417.53,385.04z"/>
		<path class="st10" d="M415.4,384.89c0,10.63-69.82,19.25-155.98,19.25c-86.14,0-155.97-8.62-155.97-19.25
			c0-10.64,69.83-19.26,155.97-19.26C345.58,365.63,415.4,374.25,415.4,384.89z"/>
		<path class="st11" d="M413.26,384.75c0,10.47-68.87,18.95-153.84,18.95c-84.96,0-153.83-8.49-153.83-18.95
			c0-10.48,68.88-18.96,153.83-18.96C344.4,365.79,413.26,374.27,413.26,384.75z"/>
		<path class="st12" d="M411.13,384.6c0,10.3-67.91,18.65-151.71,18.65c-83.78,0-151.7-8.35-151.7-18.65
			c0-10.31,67.92-18.66,151.7-18.66C343.22,365.94,411.13,374.29,411.13,384.6z"/>
		<path class="st13" d="M408.99,384.46c0,10.14-66.95,18.35-149.57,18.35c-82.6,0-149.56-8.22-149.56-18.35
			c0-10.15,66.97-18.36,149.56-18.36C342.04,366.1,408.99,374.31,408.99,384.46z"/>
		<path class="st14" d="M406.85,384.31c0,9.97-66,18.06-147.43,18.06c-81.42,0-147.43-8.09-147.43-18.06
			c0-9.98,66.01-18.06,147.43-18.06C340.86,366.25,406.85,374.33,406.85,384.31z"/>
		<path class="st15" d="M404.72,384.17c0,9.81-65.04,17.76-145.3,17.76c-80.24,0-145.29-7.95-145.29-17.76
			c0-9.82,65.05-17.77,145.29-17.77C339.68,366.41,404.72,374.35,404.72,384.17z"/>
		<path class="st16" d="M402.58,384.03c0,9.64-64.09,17.46-143.16,17.46c-79.06,0-143.16-7.82-143.16-17.46
			c0-9.65,64.1-17.47,143.16-17.47C338.5,366.56,402.58,374.37,402.58,384.03z"/>
		<path class="st17" d="M400.45,383.88c0,9.48-63.13,17.16-141.03,17.16c-77.88,0-141.02-7.68-141.02-17.16
			c0-9.49,63.14-17.17,141.02-17.17C337.32,366.71,400.45,374.39,400.45,383.88z"/>
		<path class="st18" d="M398.31,383.74c0,9.31-62.17,16.86-138.89,16.86c-76.7,0-138.89-7.55-138.89-16.86
			c0-9.32,62.19-16.87,138.89-16.87C336.14,366.87,398.31,374.42,398.31,383.74z"/>
		<path class="st19" d="M396.18,383.59c0,9.15-61.22,16.56-136.76,16.56c-75.52,0-136.75-7.41-136.75-16.56
			c0-9.16,61.23-16.57,136.75-16.57C334.96,367.02,396.18,374.44,396.18,383.59z"/>
		<path class="st20" d="M394.04,383.45c0,8.98-60.26,16.26-134.62,16.26c-74.34,0-134.62-7.28-134.62-16.26
			c0-8.99,60.28-16.27,134.62-16.27C333.78,367.18,394.04,374.46,394.04,383.45z"/>
		<path class="st21" d="M391.91,383.31c0,8.82-59.31,15.96-132.48,15.96c-73.16,0-132.48-7.15-132.48-15.96
			c0-8.83,59.32-15.97,132.48-15.97C332.6,367.33,391.91,374.48,391.91,383.31z"/>
		<path class="st22" d="M389.77,383.16c0,8.65-58.35,15.66-130.35,15.66c-71.98,0-130.34-7.01-130.34-15.66
			c0-8.66,58.36-15.67,130.34-15.67C331.42,367.49,389.77,374.5,389.77,383.16z"/>
		<path class="st23" d="M387.63,383.02c0,8.49-57.39,15.36-128.21,15.36c-70.8,0-128.21-6.88-128.21-15.36
			c0-8.5,57.41-15.37,128.21-15.37C330.24,367.64,387.63,374.52,387.63,383.02z"/>
		<path class="st24" d="M385.5,382.87c0,8.32-56.44,15.07-126.08,15.07c-69.62,0-126.07-6.74-126.07-15.07
			c0-8.33,56.45-15.08,126.07-15.08C329.06,367.8,385.5,374.54,385.5,382.87z"/>
		<path class="st25" d="M383.36,382.73c0,8.16-55.48,14.77-123.94,14.77c-68.44,0-123.94-6.61-123.94-14.77
			c0-8.17,55.5-14.78,123.94-14.78C327.88,367.95,383.36,374.56,383.36,382.73z"/>
		<path class="st26" d="M381.23,382.58c0,7.99-54.53,14.47-121.81,14.47c-67.26,0-121.8-6.48-121.8-14.47
			c0-8,54.54-14.48,121.8-14.48C326.7,368.11,381.23,374.58,381.23,382.58z"/>
		<path class="st27" d="M379.09,382.44c0,7.83-53.57,14.17-119.67,14.17c-66.08,0-119.67-6.34-119.67-14.17
			c0-7.84,53.59-14.18,119.67-14.18C325.52,368.26,379.09,374.6,379.09,382.44z"/>
		<path class="st28" d="M376.96,382.3c0,7.66-52.61,13.87-117.54,13.87c-64.9,0-117.53-6.21-117.53-13.87
			c0-7.67,52.63-13.88,117.53-13.88C324.34,368.42,376.96,374.63,376.96,382.3z"/>
		<path class="st29" d="M374.82,382.15c0,7.5-51.66,13.57-115.4,13.57c-63.72,0-115.4-6.07-115.4-13.57
			c0-7.51,51.68-13.58,115.4-13.58C323.16,368.57,374.82,374.65,374.82,382.15z"/>
		<path class="st30" d="M372.68,382.01c0,7.33-50.7,13.27-113.26,13.27c-62.54,0-113.26-5.94-113.26-13.27
			c0-7.34,50.72-13.28,113.26-13.28C321.98,368.72,372.68,374.67,372.68,382.01z"/>
		<path class="st31" d="M370.55,381.86c0,7.17-49.74,12.97-111.13,12.97c-61.36,0-111.13-5.81-111.13-12.97
			c0-7.18,49.76-12.98,111.13-12.98C320.8,368.88,370.55,374.69,370.55,381.86z"/>
		<path class="st32" d="M368.41,381.72c0,7-48.79,12.67-108.99,12.67c-60.18,0-108.99-5.67-108.99-12.67
			c0-7.01,48.81-12.69,108.99-12.69C319.62,369.03,368.41,374.71,368.41,381.72z"/>
		<path class="st33" d="M366.28,381.58c0,6.84-47.83,12.37-106.86,12.37c-59,0-106.86-5.54-106.86-12.37
			c0-6.85,47.85-12.39,106.86-12.39C318.44,369.19,366.28,374.73,366.28,381.58z"/>
		<path class="st34" d="M364.14,381.43c0,6.67-46.88,12.08-104.72,12.08c-57.82,0-104.72-5.4-104.72-12.08
			c0-6.68,46.9-12.09,104.72-12.09C317.27,369.34,364.14,374.75,364.14,381.43z"/>
		<path class="st35" d="M362.01,381.29c0,6.51-45.92,11.78-102.59,11.78c-56.64,0-102.59-5.27-102.59-11.78
			c0-6.52,45.94-11.79,102.59-11.79C316.09,369.5,362.01,374.77,362.01,381.29z"/>
		<path class="st36" d="M359.87,381.14c0,6.34-44.96,11.48-100.45,11.48c-55.47,0-100.45-5.14-100.45-11.48
			c0-6.35,44.99-11.49,100.45-11.49C314.91,369.65,359.87,374.79,359.87,381.14z"/>
		<path class="st37" d="M357.74,381c0,6.18-44.01,11.18-98.31,11.18c-54.29,0-98.32-5-98.32-11.18c0-6.19,44.03-11.19,98.32-11.19
			C313.73,369.81,357.74,374.81,357.74,381z"/>
		<path class="st38" d="M355.6,380.85c0,6.01-43.05,10.88-96.18,10.88c-53.11,0-96.18-4.87-96.18-10.88
			c0-6.02,43.07-10.89,96.18-10.89C312.55,369.96,355.6,374.83,355.6,380.85z"/>
		<path class="st39" d="M353.46,380.71c0,5.85-42.1,10.58-94.04,10.58c-51.93,0-94.04-4.73-94.04-10.58
			c0-5.86,42.12-10.59,94.04-10.59C311.37,370.12,353.46,374.86,353.46,380.71z"/>
		<path class="st40" d="M351.33,380.57c0,5.68-41.14,10.28-91.91,10.28c-50.75,0-91.91-4.6-91.91-10.28
			c0-5.69,41.16-10.3,91.91-10.3C310.19,370.27,351.33,374.88,351.33,380.57z"/>
		<path class="st41" d="M349.19,380.42c0,5.52-40.18,9.98-89.77,9.98c-49.57,0-89.77-4.47-89.77-9.98c0-5.52,40.21-10,89.77-10
			C309.01,370.43,349.19,374.9,349.19,380.42z"/>
		<path class="st42" d="M347.06,380.28c0,5.35-39.23,9.68-87.64,9.68c-48.39,0-87.64-4.33-87.64-9.68c0-5.36,39.25-9.7,87.64-9.7
			C307.83,370.58,347.06,374.92,347.06,380.28z"/>
		<path class="st43" d="M344.92,380.13c0,5.19-38.27,9.38-85.5,9.38c-47.21,0-85.5-4.2-85.5-9.38c0-5.19,38.3-9.4,85.5-9.4
			C306.65,370.74,344.92,374.94,344.92,380.13z"/>
		<path class="st44" d="M342.79,379.99c0,5.02-37.32,9.09-83.37,9.09c-46.03,0-83.37-4.06-83.37-9.09c0-5.03,37.34-9.1,83.37-9.1
			C305.47,370.89,342.79,374.96,342.79,379.99z"/>
		<path class="st45" d="M340.65,379.85c0,4.86-36.36,8.79-81.23,8.79c-44.85,0-81.23-3.93-81.23-8.79c0-4.86,36.38-8.8,81.23-8.8
			C304.29,371.04,340.65,374.98,340.65,379.85z"/>
		<path class="st46" d="M338.51,379.7c0,4.69-35.4,8.49-79.09,8.49c-43.67,0-79.1-3.8-79.1-8.49c0-4.7,35.43-8.5,79.1-8.5
			C303.11,371.2,338.51,375,338.51,379.7z"/>
		<path class="st47" d="M336.38,379.56c0,4.53-34.45,8.19-76.96,8.19c-42.49,0-76.96-3.66-76.96-8.19c0-4.53,34.47-8.2,76.96-8.2
			C301.93,371.35,336.38,375.02,336.38,379.56z"/>
		<path class="st48" d="M334.24,379.41c0,4.36-33.49,7.89-74.82,7.89c-41.31,0-74.83-3.53-74.83-7.89c0-4.37,33.52-7.9,74.83-7.9
			C300.75,371.51,334.24,375.04,334.24,379.41z"/>
		<path class="st49" d="M332.11,379.27c0,4.2-32.54,7.59-72.69,7.59c-40.13,0-72.69-3.39-72.69-7.59c0-4.2,32.56-7.61,72.69-7.61
			C299.57,371.66,332.11,375.07,332.11,379.27z"/>
		<path class="st50" d="M329.97,379.12c0,4.03-31.58,7.29-70.55,7.29c-38.95,0-70.56-3.26-70.56-7.29c0-4.04,31.61-7.31,70.56-7.31
			C298.39,371.82,329.97,375.09,329.97,379.12z"/>
		<path class="st51" d="M327.84,378.98c0,3.87-30.62,6.99-68.42,6.99c-37.77,0-68.42-3.12-68.42-6.99c0-3.87,30.65-7.01,68.42-7.01
			C297.21,371.97,327.84,375.11,327.84,378.98z"/>
		<path class="st52" d="M325.7,378.84c0,3.7-29.67,6.69-66.28,6.69c-36.59,0-66.29-2.99-66.29-6.69c0-3.71,29.69-6.71,66.29-6.71
			C296.03,372.13,325.7,375.13,325.7,378.84z"/>
		<path class="st53" d="M323.57,378.69c0,3.54-28.71,6.39-64.14,6.39c-35.41,0-64.15-2.86-64.15-6.39c0-3.54,28.74-6.41,64.15-6.41
			C294.85,372.28,323.57,375.15,323.57,378.69z"/>
		<path class="st54" d="M321.43,378.55c0,3.37-27.76,6.1-62.01,6.1c-34.23,0-62.02-2.72-62.02-6.1c0-3.38,27.78-6.11,62.02-6.11
			C293.67,372.44,321.43,375.17,321.43,378.55z"/>
		<path class="st55" d="M319.29,378.4c0,3.21-26.8,5.8-59.87,5.8c-33.05,0-59.88-2.59-59.88-5.8c0-3.21,26.83-5.81,59.88-5.81
			C292.49,372.59,319.29,375.19,319.29,378.4z"/>
		<path class="st56" d="M317.16,378.26c0,3.04-25.84,5.5-57.74,5.5c-31.87,0-57.74-2.45-57.74-5.5c0-3.05,25.87-5.51,57.74-5.51
			C291.31,372.75,317.16,375.21,317.16,378.26z"/>
		<path class="st57" d="M315.02,378.12c0,2.88-24.89,5.2-55.6,5.2c-30.69,0-55.61-2.32-55.61-5.2c0-2.88,24.92-5.22,55.61-5.22
			C290.14,372.9,315.02,375.23,315.02,378.12z"/>
		<path class="st58" d="M312.89,377.97c0,2.71-23.93,4.9-53.47,4.9c-29.51,0-53.47-2.19-53.47-4.9c0-2.72,23.96-4.92,53.47-4.92
			C288.96,373.05,312.89,375.25,312.89,377.97z"/>
		<path class="st59" d="M310.75,377.83c0,2.55-22.98,4.6-51.33,4.6c-28.33,0-51.34-2.05-51.34-4.6c0-2.55,23-4.62,51.34-4.62
			C287.78,373.21,310.75,375.28,310.75,377.83z"/>
		<path class="st60" d="M308.62,377.68c0,2.38-22.02,4.3-49.2,4.3c-27.15,0-49.2-1.92-49.2-4.3c0-2.39,22.05-4.32,49.2-4.32
			C286.6,373.36,308.62,375.3,308.62,377.68z"/>
		<path class="st61" d="M306.48,377.54c0,2.22-21.06,4-47.06,4c-25.98,0-47.07-1.78-47.07-4c0-2.22,21.09-4.02,47.07-4.02
			C285.42,373.52,306.48,375.32,306.48,377.54z"/>
		<path class="st62" d="M304.34,377.39c0,2.05-20.11,3.7-44.92,3.7c-24.8,0-44.93-1.65-44.93-3.7c0-2.06,20.14-3.72,44.93-3.72
			C284.24,373.67,304.34,375.34,304.34,377.39z"/>
		<path class="st63" d="M302.21,377.25c0,1.89-19.15,3.4-42.79,3.4c-23.62,0-42.8-1.52-42.8-3.4c0-1.89,19.18-3.42,42.8-3.42
			C283.06,373.83,302.21,375.36,302.21,377.25z"/>
		<path class="st64" d="M300.07,377.11c0,1.72-18.2,3.1-40.65,3.1c-22.44,0-40.66-1.38-40.66-3.1c0-1.73,18.23-3.12,40.66-3.12
			C281.88,373.98,300.07,375.38,300.07,377.11z"/>
		<path class="st65" d="M297.94,376.96c0,1.56-17.24,2.81-38.52,2.81c-21.26,0-38.53-1.25-38.53-2.81c0-1.56,17.27-2.82,38.53-2.82
			C280.7,374.14,297.94,375.4,297.94,376.96z"/>
		<path class="st66" d="M295.8,376.82c0,1.39-16.28,2.51-36.38,2.51c-20.08,0-36.39-1.11-36.39-2.51c0-1.4,16.31-2.53,36.39-2.53
			C279.52,374.29,295.8,375.42,295.8,376.82z"/>
		<path class="st67" d="M293.67,376.67c0,1.23-15.33,2.21-34.25,2.21c-18.9,0-34.26-0.98-34.26-2.21c0-1.23,15.36-2.23,34.26-2.23
			C278.34,374.45,293.67,375.44,293.67,376.67z"/>
	</g>
	<g>
		<g>
			<radialGradient id="SVGID_1_" cx="266.0198" cy="285.8892" r="148.1388" gradientUnits="userSpaceOnUse">
				<stop  offset="0" style="stop-color:#FFFFFF"/>
				<stop  offset="0.6791" style="stop-color:#EC1C24"/>
				<stop  offset="1" style="stop-color:#931216"/>
			</radialGradient>
			<path class="st68" d="M148,310c1.44,3.17,3.1,6.52,5,10c1.99,3.64,4.02,6.97,6,10c-12.67,0-25.33,0-38,0
				c-1.67-3.33-3.33-6.67-5-10s-3.33-6.67-5-10C123.33,310,135.67,310,148,310z"/>
			<g>
				
					<radialGradient id="SVGID_00000126296151517041319200000011610464086987330181_" cx="247.5803" cy="288.5963" r="128.6601" gradientUnits="userSpaceOnUse">
					<stop  offset="0" style="stop-color:#FFFFFF"/>
					<stop  offset="0.6791" style="stop-color:#EC1C24"/>
					<stop  offset="1" style="stop-color:#931216"/>
				</radialGradient>
				<path style="fill:url(#SVGID_00000126296151517041319200000011610464086987330181_);" d="M199.04,241.66
					c2.75,9.34,5.99,18.69,9.94,27.71l-30.6-1.46c-3.62-9.4-6.53-19.13-8.95-28.66L199.04,241.66z"/>
				
					<radialGradient id="SVGID_00000168102916778978271370000001131576225827363263_" cx="247.5804" cy="288.5963" r="128.6605" gradientUnits="userSpaceOnUse">
					<stop  offset="0" style="stop-color:#FFFFFF"/>
					<stop  offset="0.492" style="stop-color:#F37920"/>
					<stop  offset="1" style="stop-color:#ED3024"/>
				</radialGradient>
				<path style="fill:url(#SVGID_00000168102916778978271370000001131576225827363263_);" d="M163.88,245.11
					c2.32,9.6,5.24,19.14,8.75,28.61l-32.91-1.61c-2.99-9.81-5.57-19.72-7.58-29.51L163.88,245.11z"/>
				
					<radialGradient id="SVGID_00000137839688458278916650000009933317331531225521_" cx="247.5806" cy="288.5964" r="128.6609" gradientUnits="userSpaceOnUse">
					<stop  offset="0" style="stop-color:#FFFFFF"/>
					<stop  offset="0.6791" style="stop-color:#EC1C24"/>
					<stop  offset="1" style="stop-color:#931216"/>
				</radialGradient>
				<path style="fill:url(#SVGID_00000137839688458278916650000009933317331531225521_);" d="M124.37,241.69
					c2,9.97,4.29,19.9,7.27,29.7l-35.33-1.78c-2.55-10.24-4.43-20.44-5.92-30.55L124.37,241.69z"/>
				
					<radialGradient id="SVGID_00000044882924600422314500000000078150136365365435_" cx="247.5804" cy="288.5966" r="128.6605" gradientUnits="userSpaceOnUse">
					<stop  offset="0" style="stop-color:#FFFFFF"/>
					<stop  offset="0.492" style="stop-color:#8BC53F"/>
					<stop  offset="1" style="stop-color:#008941"/>
				</radialGradient>
				<path style="fill:url(#SVGID_00000044882924600422314500000000078150136365365435_);" d="M156.33,208.33
					c1.75,9.41,3.78,18.79,6.47,28.05l-33.48-2.08c-2.28-9.67-3.91-19.29-5.18-28.83L156.33,208.33z"/>
				
					<radialGradient id="SVGID_00000134208897837471180570000004966764111723396231_" cx="247.5804" cy="288.5963" r="128.6604" gradientUnits="userSpaceOnUse">
					<stop  offset="0" style="stop-color:#FFFFFF"/>
					<stop  offset="0.6791" style="stop-color:#EC1C24"/>
					<stop  offset="1" style="stop-color:#931216"/>
				</radialGradient>
				<path style="fill:url(#SVGID_00000134208897837471180570000004966764111723396231_);" d="M212.09,282.44
					c1.57,3.44,3.23,7,5.01,10.3c-1.86,5.02-3.81,9.73-5.76,14.25l-17.92-0.38c-4.56-8.21-8.8-17-12.05-25.59L212.09,282.44z"/>
				
					<radialGradient id="SVGID_00000011738346163150421410000004788734365255099049_" cx="247.5806" cy="288.5963" r="128.6609" gradientUnits="userSpaceOnUse">
					<stop  offset="0" style="stop-color:#FFFFFF"/>
					<stop  offset="0.492" style="stop-color:#F37920"/>
					<stop  offset="1" style="stop-color:#ED3024"/>
				</radialGradient>
				<path style="fill:url(#SVGID_00000011738346163150421410000004788734365255099049_);" d="M135,277.71
					c2.92,8.95,6.22,17.99,10.23,26.71l-37.31-0.89c-3.38-9.12-6.26-18.42-8.56-27.59L135,277.71z"/>
				<path class="st75" d="M209.73,310.53c-2.03,4.22-3.95,8.17-5.96,11.82c-2.83-4.18-5.48-7.75-8.1-12.07L209.73,310.53z"/>
				
					<radialGradient id="SVGID_00000072264510670603877270000003251304140286422403_" cx="247.5802" cy="288.5966" r="128.6599" gradientUnits="userSpaceOnUse">
					<stop  offset="0" style="stop-color:#FFFFFF"/>
					<stop  offset="0.492" style="stop-color:#F37920"/>
					<stop  offset="1" style="stop-color:#ED3024"/>
				</radialGradient>
				<path style="fill:url(#SVGID_00000072264510670603877270000003251304140286422403_);" d="M189.15,310.25
					c3.36,5.61,7.4,11.83,11.68,16.97c-0.84,1.34-1.58,2.6-2.51,3.82l-30.59,0.03c-5.17-6.82-9.53-14.23-13.3-21.5L189.15,310.25z"
					/>
				
					<radialGradient id="SVGID_00000018937428741815888630000013731723598298741660_" cx="247.5804" cy="288.5968" r="128.66" gradientUnits="userSpaceOnUse">
					<stop  offset="0" style="stop-color:#FFFFFF"/>
					<stop  offset="0.492" style="stop-color:#8BC53F"/>
					<stop  offset="1" style="stop-color:#008941"/>
				</radialGradient>
				<path style="fill:url(#SVGID_00000018937428741815888630000013731723598298741660_);" d="M139.7,353.92l40.79-0.87
					c-6.07,4.56-12.57,7.42-19.48,8.4C151.19,361.25,146.88,358.55,139.7,353.92L139.7,353.92z"/>
				
					<radialGradient id="SVGID_00000013152791040659813660000009507227653021702295_" cx="247.5803" cy="288.5965" r="128.66" gradientUnits="userSpaceOnUse">
					<stop  offset="0" style="stop-color:#FFFFFF"/>
					<stop  offset="0.6791" style="stop-color:#EC1C24"/>
					<stop  offset="1" style="stop-color:#931216"/>
				</radialGradient>
				<path style="fill:url(#SVGID_00000013152791040659813660000009507227653021702295_);" d="M196.24,334.01
					c-3.84,5.33-7.96,9.95-12.24,13.77c0,0,0,0-0.09-0.11c-4.91-3.58-10.14-8.92-13.82-13.56L196.24,334.01z"/>
				
					<radialGradient id="SVGID_00000161602908656074978600000007961468144293303986_" cx="247.5807" cy="288.5962" r="128.6608" gradientUnits="userSpaceOnUse">
					<stop  offset="0" style="stop-color:#FFFFFF"/>
					<stop  offset="0.492" style="stop-color:#00BCF1"/>
					<stop  offset="1" style="stop-color:#0060AE"/>
				</radialGradient>
				<path style="fill:url(#SVGID_00000161602908656074978600000007961468144293303986_);" d="M162.71,334.16
					c4.52,5.66,9.75,11,15.61,15.34l-41.84,0.75c-5.31-4.69-9.8-10.33-13.6-16.1L162.71,334.16z"/>
				
					<radialGradient id="SVGID_00000090264876708416747970000006328166939918139543_" cx="317.1463" cy="264.1372" r="278.9572" gradientUnits="userSpaceOnUse">
					<stop  offset="0" style="stop-color:#FFFFFF"/>
					<stop  offset="0.492" style="stop-color:#00BCF1"/>
					<stop  offset="1" style="stop-color:#0060AE"/>
				</radialGradient>
				<path style="fill:url(#SVGID_00000090264876708416747970000006328166939918139543_);" d="M164,245
					c3.22,14.52,8.28,30.84,16.34,47.91c2.11,4.48,4.31,8.74,6.54,12.78c-26.29-0.56-52.58-1.13-78.88-1.69
					c-4.23-9.51-8.51-20.89-12-34c-3.02-11.32-4.87-21.78-6-31C114.67,241,139.33,243,164,245z"/>
			</g>
		</g>
		
			<radialGradient id="SVGID_00000179605366247770258160000015049523069937032357_" cx="93.0706" cy="24.6437" r="361.4517" gradientUnits="userSpaceOnUse">
			<stop  offset="0" style="stop-color:#FFFFFF"/>
			<stop  offset="0.6791" style="stop-color:#0074BB"/>
			<stop  offset="1" style="stop-color:#2B2B80"/>
		</radialGradient>
		<path style="fill:url(#SVGID_00000179605366247770258160000015049523069937032357_);" d="M312.45,108l-65.91,61.2l7.39-10.45
			l-0.2-5.43l-21.74,0.06l1.24,28.55l-27.47,27.12l36.41,3.74c-9.67,80.82-36.8,148.25-76.5,153.9l151.81-5.18
			c42.03-3.76,56.15-54.17,70.64-134.03l30.31,2.74L312.45,108z M274.03,250.87c2.53-14.77,17.63-24.09,34-20.99l-7.5,37.69
			l-28.25-6.44L274.03,250.87z M266.78,293.22l4.3-25.15l28.08,6.37l-4.95,24.88L266.78,293.22z M328.84,307.02l-27.11-6.03
			l5.13-24.81l27.74,6.29L328.84,307.02z M338.54,265.69l-2.35,10l-27.91-6.36l7.77-37.58C332,236.23,341.92,251.28,338.54,265.69z"
			/>
		
			<radialGradient id="SVGID_00000042703914023663399390000009068312101333173173_" cx="309.2375" cy="627.0284" r="252.9941" gradientTransform="matrix(0.9569 -0.1839 0.3171 0.9841 -82.8729 -447.4963)" gradientUnits="userSpaceOnUse">
			<stop  offset="0" style="stop-color:#FFFFFF"/>
			<stop  offset="0.6791" style="stop-color:#0074BB"/>
			<stop  offset="1" style="stop-color:#2B2B80"/>
		</radialGradient>
		<path style="fill:url(#SVGID_00000042703914023663399390000009068312101333173173_);" d="M314.4,116.76
			c7.69,33.63,5.59,75.46,1.44,110.04c0,0,16.26,5.48,23.12,16.57c4.63,7.47,6.23,15.96,4.34,23.98l-10.65,45.38l-38.51-8.58
			c-9.17,19.9-20.82,38.33-34.72,54.77c0,0,60.29-2.66,61.9-2.98c33.56-6.55,46.95-47.24,61.92-129.89l0.69-3.82l22.5,2.02
			L314.4,116.76z"/>
	</g>
</g>
<g>
	<path class="st83" d="M529.71,259.49h-38.93l-7.99,24.61H454.5l42.43-128.55h29.95l42.43,128.55h-31.61L529.71,259.49z
		 M499.26,234.14h21.96l-10.98-38.2L499.26,234.14z"/>
	<path class="st83" d="M609.24,285.2c-5.32,0-9.93-0.49-13.81-1.47c-3.88-0.98-7.07-2.78-9.57-5.42c-2.5-2.63-4.36-6.24-5.57-10.83
		c-1.22-4.59-1.83-10.5-1.83-17.72v-94.21h25.62v90.14c0,3.07,0.17,5.64,0.5,7.73c0.33,2.09,0.91,3.74,1.75,4.97
		c0.83,1.23,2.02,2.12,3.58,2.67c1.55,0.55,3.49,0.83,5.82,0.83c1.33,0,2.44-0.03,3.33-0.09c0.89-0.06,1.77-0.15,2.66-0.28v23.14
		C618.39,285.01,614.23,285.2,609.24,285.2z"/>
	<path class="st83" d="M664.98,285.2c-5.33,0-9.93-0.49-13.81-1.47c-3.88-0.98-7.07-2.78-9.57-5.42c-2.5-2.63-4.35-6.24-5.57-10.83
		c-1.22-4.59-1.83-10.5-1.83-17.72v-94.21h25.62v90.14c0,3.07,0.17,5.64,0.5,7.73c0.33,2.09,0.92,3.74,1.75,4.97
		c0.83,1.23,2.02,2.12,3.58,2.67c1.55,0.55,3.49,0.83,5.82,0.83c1.33,0,2.44-0.03,3.33-0.09c0.89-0.06,1.77-0.15,2.66-0.28v23.14
		C674.13,285.01,669.97,285.2,664.98,285.2z"/>
	<path class="st83" d="M689.1,186.76h23.63v13.22c0.67-1.59,1.69-3.31,3.08-5.14c1.39-1.84,3.02-3.55,4.91-5.14
		c1.88-1.59,4.02-2.88,6.41-3.86c2.38-0.98,4.96-1.47,7.74-1.47c1.88,0,3.38,0.12,4.49,0.36c1.11,0.24,2.11,0.49,3,0.73v24.25
		c-0.56-0.37-1.83-0.79-3.83-1.29c-2-0.49-4.33-0.73-6.99-0.73c-5.88,0-10.15,1.9-12.81,5.71s-3.99,8.41-3.99,13.8v56.88H689.1
		V186.76z"/>
	<path class="st83" d="M793.09,286.48c-6.21,0-12.04-1.01-17.47-3.03c-5.44-2.02-10.21-5.11-14.31-9.27
		c-4.11-4.16-7.32-9.39-9.65-15.7c-2.33-6.3-3.49-13.68-3.49-22.13v-3.67c0-7.96,1.17-14.94,3.49-20.94
		c2.33-6,5.55-11.02,9.65-15.06c4.1-4.04,8.87-7.1,14.31-9.18c5.43-2.08,11.26-3.12,17.47-3.12c6.21,0,12.04,1.04,17.47,3.12
		c5.43,2.08,10.21,5.14,14.31,9.18c4.1,4.04,7.32,9.06,9.65,15.06c2.33,6,3.49,12.98,3.49,20.94v3.67c0,8.33-1.16,15.64-3.49,21.94
		c-2.33,6.31-5.55,11.54-9.65,15.7c-4.1,4.16-8.88,7.29-14.31,9.37C805.13,285.44,799.3,286.48,793.09,286.48z M793.09,263.16
		c5.99,0,10.59-2.4,13.81-7.21c3.22-4.81,4.83-11.34,4.83-19.6v-3.7c0-7.39-1.61-13.4-4.83-18.03c-3.22-4.62-7.82-6.93-13.81-6.93
		c-5.99,0-10.59,2.31-13.81,6.93c-3.22,4.62-4.83,10.63-4.83,18.03v3.7c0,8.5,1.61,15.1,4.83,19.78
		C782.5,260.82,787.1,263.16,793.09,263.16z"/>
	<path class="st83" d="M881.61,286.48c-10.09,0-17.8-3.18-23.13-9.55c-5.32-6.36-7.99-16.04-7.99-29.02v-61.15h25.62v56.88
		c0,6.38,1.19,11.23,3.58,14.54c2.38,3.31,6.24,4.97,11.56,4.97c5.77,0,10.01-1.87,12.73-5.61c2.72-3.74,4.08-8.38,4.08-13.9v-56.88
		h25.62v97.33h-23.63v-13.22c-2.22,4.29-5.71,7.96-10.48,11.02C894.81,284.95,888.82,286.48,881.61,286.48z"/>
	<path class="st83" d="M950.33,186.76h23.63v13.22c2.22-4.28,5.68-7.96,10.4-11.02c4.71-3.06,11.01-4.59,18.88-4.59
		c10.54,0,18.5,3.15,23.88,9.46c5.38,6.31,8.07,15.27,8.07,26.9v63.36h-25.62v-57.07c0-6.38-1.25-11.2-3.74-14.45
		c-2.5-3.25-6.57-4.88-12.23-4.88c-3.11,0-5.77,0.52-7.99,1.57c-2.22,1.04-4.05,2.42-5.49,4.14c-1.44,1.72-2.5,3.77-3.16,6.17
		c-0.67,2.39-1,4.88-1,7.45v57.07h-25.62V186.76z"/>
	<path class="st83" d="M1085.6,286.48c-5.77,0-10.98-1.07-15.64-3.21c-4.66-2.14-8.65-5.29-11.98-9.46
		c-3.33-4.16-5.88-9.37-7.65-15.61c-1.78-6.24-2.66-13.53-2.66-21.85v-3.67c0-15.67,3.3-27.64,9.9-35.9
		c6.6-8.26,15.94-12.4,28.04-12.4c4.99,0,9.73,1.26,14.23,3.76c4.49,2.51,8.24,6.15,11.23,10.93v-43.52h25.62v128.55h-23.63v-13.22
		c-1.11,1.96-2.52,3.89-4.24,5.78c-1.72,1.9-3.74,3.58-6.07,5.05c-2.33,1.47-4.94,2.63-7.82,3.49
		C1092.03,286.05,1088.93,286.48,1085.6,286.48z M1091.76,263.16c5.43,0,10.01-2.08,13.73-6.24c3.71-4.16,5.57-10.1,5.57-17.81
		v-9.18c0-7.35-1.86-12.88-5.57-16.62c-3.72-3.73-8.29-5.6-13.73-5.6c-5.33,0-9.62,2.05-12.9,6.15c-3.27,4.1-4.91,10.38-4.91,18.82
		v3.67c0,8.81,1.69,15.49,5.07,20.02C1082.41,260.89,1086.65,263.16,1091.76,263.16z"/>
</g>
<g>
	<path class="st83" d="M950.36,340.71c-2.01,0-4.07-0.29-6.2-0.86s-4.15-1.6-6.08-3.1l1.65-2.6c1.93,1.18,3.85,1.96,5.76,2.33
		c1.91,0.37,3.46,0.56,4.64,0.56c0.87,0,1.81-0.09,2.84-0.27c1.02-0.18,1.97-0.45,2.83-0.83s1.59-0.89,2.19-1.54
		c0.59-0.65,0.89-1.45,0.89-2.39c0-0.98-0.29-1.78-0.89-2.39c-0.59-0.61-1.33-1.09-2.21-1.45c-0.89-0.36-1.82-0.62-2.81-0.8
		s-1.89-0.34-2.72-0.5c-1.18-0.24-2.46-0.52-3.84-0.86c-1.38-0.33-2.66-0.81-3.84-1.42c-1.18-0.61-2.17-1.42-2.95-2.42
		c-0.79-1-1.18-2.27-1.18-3.81c0-1.57,0.39-2.91,1.18-4.02c0.79-1.1,1.79-1.99,3.01-2.66c1.22-0.67,2.55-1.16,3.99-1.48
		c1.44-0.31,2.83-0.47,4.16-0.47c4.21,0,7.78,1.36,10.69,4.08l-1.42,2.66c-2.64-2.05-5.71-3.07-9.21-3.07c-1.06,0-2.1,0.1-3.1,0.3
		c-1,0.2-1.9,0.49-2.69,0.89c-0.79,0.39-1.42,0.9-1.89,1.51c-0.47,0.61-0.71,1.31-0.71,2.1c0,0.91,0.29,1.65,0.89,2.24
		c0.59,0.59,1.32,1.07,2.19,1.45c0.87,0.38,1.76,0.66,2.69,0.86c0.92,0.2,1.72,0.35,2.39,0.47c1.38,0.24,2.8,0.53,4.25,0.89
		c1.46,0.35,2.78,0.85,3.96,1.48c1.18,0.63,2.16,1.46,2.92,2.48c0.77,1.03,1.15,2.34,1.15,3.96s-0.39,2.97-1.18,4.08
		c-0.79,1.1-1.79,2-3.01,2.69c-1.22,0.69-2.57,1.18-4.04,1.48S951.74,340.71,950.36,340.71z"/>
	<path class="st83" d="M983.32,340.71c-2.32,0-4.44-0.39-6.35-1.18c-1.91-0.79-3.55-1.87-4.93-3.25c-1.38-1.38-2.44-3.01-3.19-4.9
		c-0.75-1.89-1.12-3.94-1.12-6.14s0.39-4.25,1.18-6.14c0.79-1.89,1.87-3.52,3.25-4.9c1.38-1.38,3-2.46,4.87-3.25
		c1.87-0.79,3.89-1.18,6.05-1.18c2.01,0,3.9,0.32,5.67,0.97c1.77,0.65,3.31,1.62,4.61,2.92s2.33,2.91,3.1,4.84
		c0.77,1.93,1.15,4.17,1.15,6.73c0,0.35,0,0.67,0,0.94c0,0.28-0.04,0.57-0.12,0.89h-25.52c0.39,2.95,1.65,5.36,3.78,7.21
		c2.12,1.85,4.86,2.78,8.21,2.78c1.65,0,3.39-0.25,5.2-0.74c1.81-0.49,3.52-1.21,5.14-2.16l1.65,2.6c-1.62,1.14-3.45,2.09-5.49,2.83
		C988.42,340.33,986.04,340.71,983.32,340.71z M993.54,323.4c-0.08-1.54-0.4-2.92-0.97-4.16s-1.32-2.28-2.24-3.13
		c-0.93-0.85-2.01-1.51-3.25-1.98c-1.24-0.47-2.57-0.71-3.99-0.71c-1.46,0-2.83,0.25-4.1,0.74c-1.28,0.49-2.4,1.17-3.37,2.04
		c-0.96,0.87-1.76,1.91-2.39,3.13c-0.63,1.22-1.04,2.58-1.24,4.08H993.54z"/>
	<path class="st83" d="M1004.58,310.47h4.13v5.32c0.95-1.81,2.19-3.27,3.72-4.37c1.54-1.1,3.48-1.65,5.85-1.65
		c1.5,0,2.89,0.25,4.19,0.74c1.3,0.49,2.5,1.19,3.6,2.1l-2.13,2.89c-0.91-0.67-1.86-1.14-2.86-1.42c-1-0.28-2.02-0.41-3.04-0.41
		c-1.34,0-2.58,0.26-3.72,0.77c-1.14,0.51-2.13,1.25-2.95,2.22c-0.83,0.97-1.48,2.16-1.95,3.57s-0.71,3.01-0.71,4.78v15h-4.13
		V310.47z"/>
	<path class="st83" d="M1028.45,310.47h4.49l10.1,24.98l10.1-24.98h4.49L1045.46,340h-4.84L1028.45,310.47z"/>
	<path class="st83" d="M1065.95,304.09c-0.79,0-1.47-0.28-2.04-0.83c-0.57-0.55-0.86-1.24-0.86-2.07c0-0.83,0.29-1.52,0.86-2.07
		c0.57-0.55,1.25-0.83,2.04-0.83s1.47,0.28,2.04,0.83c0.57,0.55,0.86,1.24,0.86,2.07c0,0.83-0.29,1.52-0.86,2.07
		C1067.42,303.81,1066.74,304.09,1065.95,304.09z M1063.88,310.47h4.13V340h-4.13V310.47z"/>
	<path class="st83" d="M1090.05,340.71c-2.17,0-4.15-0.39-5.96-1.18c-1.81-0.79-3.38-1.87-4.7-3.25s-2.34-3.01-3.07-4.9
		c-0.73-1.89-1.09-3.94-1.09-6.14s0.38-4.25,1.15-6.14c0.77-1.89,1.83-3.52,3.19-4.9c1.36-1.38,2.95-2.46,4.78-3.25
		c1.83-0.79,3.83-1.18,6-1.18c2.05,0,4,0.35,5.85,1.06c1.85,0.71,3.54,1.71,5.08,3.01l-1.42,2.66c-1.46-0.91-2.89-1.62-4.31-2.16
		c-1.42-0.53-2.95-0.8-4.61-0.8c-1.69,0-3.25,0.3-4.67,0.89c-1.42,0.59-2.63,1.41-3.63,2.45c-1,1.04-1.78,2.27-2.33,3.69
		c-0.55,1.42-0.83,2.97-0.83,4.67s0.26,3.25,0.77,4.67c0.51,1.42,1.26,2.65,2.25,3.69c0.98,1.04,2.17,1.86,3.54,2.45
		c1.38,0.59,2.91,0.89,4.61,0.89c1.3,0,2.81-0.21,4.55-0.62c1.73-0.41,3.49-1.13,5.26-2.16l1.65,2.6c-1.38,0.94-3.05,1.84-5.02,2.69
		C1095.11,340.29,1092.77,340.71,1090.05,340.71z"/>
	<path class="st83" d="M1121.77,340.71c-2.32,0-4.44-0.39-6.35-1.18c-1.91-0.79-3.55-1.87-4.93-3.25s-2.44-3.01-3.19-4.9
		c-0.75-1.89-1.12-3.94-1.12-6.14s0.39-4.25,1.18-6.14c0.79-1.89,1.87-3.52,3.25-4.9c1.38-1.38,3-2.46,4.87-3.25
		c1.87-0.79,3.89-1.18,6.05-1.18c2.01,0,3.9,0.32,5.67,0.97c1.77,0.65,3.31,1.62,4.61,2.92c1.3,1.3,2.33,2.91,3.1,4.84
		c0.77,1.93,1.15,4.17,1.15,6.73c0,0.35,0,0.67,0,0.94c0,0.28-0.04,0.57-0.12,0.89h-25.52c0.39,2.95,1.65,5.36,3.78,7.21
		c2.13,1.85,4.86,2.78,8.21,2.78c1.65,0,3.39-0.25,5.2-0.74c1.81-0.49,3.52-1.21,5.14-2.16l1.65,2.6c-1.62,1.14-3.45,2.09-5.49,2.83
		C1126.87,340.33,1124.49,340.71,1121.77,340.71z M1131.99,323.4c-0.08-1.54-0.4-2.92-0.97-4.16c-0.57-1.24-1.32-2.28-2.24-3.13
		c-0.93-0.85-2.01-1.51-3.25-1.98c-1.24-0.47-2.57-0.71-3.99-0.71c-1.46,0-2.83,0.25-4.11,0.74c-1.28,0.49-2.4,1.17-3.37,2.04
		c-0.97,0.87-1.76,1.91-2.39,3.13c-0.63,1.22-1.04,2.58-1.24,4.08H1131.99z"/>
</g>
</svg>
