<svg width="90" height="90" viewBox="0 0 90 90" fill="none" xmlns="http://www.w3.org/2000/svg">
<path d="M16.9026 63.1141C16.2576 63.1141 15.6147 62.853 15.1457 62.3389L0.620986 46.415C-0.206995 45.5068 -0.206995 44.1174 0.620986 43.2102L15.1457 27.2853C16.0306 26.3161 17.5346 26.2471 18.5046 27.1313C19.4746 28.0165 19.5436 29.5209 18.6586 30.4901L5.59488 44.8116L18.6596 59.1341C19.5446 60.1033 19.4756 61.6077 18.5056 62.4929C18.0486 62.908 17.4746 63.1141 16.9026 63.1141Z" fill="#FEB700"/>
<path d="M73.0973 63.1141C72.5253 63.1141 71.9523 62.909 71.4963 62.4929C70.5263 61.6077 70.4573 60.1043 71.3423 59.1341L84.406 44.8126L71.3423 30.4901C70.4573 29.5199 70.5263 28.0155 71.4963 27.1313C72.4663 26.2471 73.9693 26.3161 74.8542 27.2853L89.3789 43.2102C90.2069 44.1184 90.2069 45.5078 89.3789 46.415L74.8542 62.3389C74.3852 62.853 73.7423 63.1141 73.0973 63.1141Z" fill="#FEB700"/>
<path d="M60.7716 0.595145C59.7066 0.200049 58.5956 0 57.4696 0C53.4727 0 49.8638 2.54462 48.4908 6.33155C48.4908 6.33155 28.2503 62.2102 28.2353 62.2672C28.2283 62.2892 26.8363 87.4554 26.8363 87.4554C26.7563 88.5156 27.3953 89.4989 28.3983 89.859C28.6633 89.955 28.9363 90 29.2063 90C29.9593 90 30.6872 89.6429 31.1422 89.0068C31.1422 89.0068 46.1589 68.8928 46.1619 68.8848C46.1899 68.8238 66.4505 12.9392 66.4505 12.9392C68.2584 7.96095 65.7105 2.42459 60.7716 0.595145ZM42.581 64.8659L33.5432 61.519L50.9708 13.4333L60.0046 16.7821L42.581 64.8659ZM52.9627 7.93894C53.6577 6.02247 55.4687 4.73516 57.4696 4.73516C58.0276 4.73516 58.5816 4.83518 59.1146 5.03323C61.6186 5.96046 62.9035 8.78415 61.9795 11.3298L61.6186 12.327L52.5868 8.97919L52.9627 7.93894ZM31.4912 81.1838L32.7892 66.2922L40.119 69.0069L31.4912 81.1838Z" fill="#FEB700"/>
</svg>
